<?xml version="1.0" standalone="no"?>
<!DOCTYPE svg PUBLIC "-//W3C//DTD SVG 1.1//EN" "http://www.w3.org/Graphics/SVG/1.1/DTD/svg11.dtd" >
<svg xmlns="http://www.w3.org/2000/svg" xmlns:xlink="http://www.w3.org/1999/xlink" version="1.1">
<metadata>
Created by FontForge 20201107 at Mon Mar 11 14:06:37 2024
 By 
Copyright (c) 2019 by Connary Fagen. All rights reserved.
</metadata>
<defs>
<font id="VisbyCF-Light" horiz-adv-x="1292" >
  <font-face 
    font-family="Visby CF Light"
    font-weight="300"
    font-stretch="normal"
    units-per-em="2048"
    panose-1="0 0 4 0 0 0 0 0 0 0"
    ascent="1638"
    descent="-410"
    x-height="1065"
    cap-height="1454"
    bbox="-389 -512 2245 1939"
    underline-thickness="102"
    underline-position="-204"
    unicode-range="U+0020-FB01"
  />
<missing-glyph horiz-adv-x="1075" 
d="M883 1638v-2150h-682v2150h682zM717 1495h-357v-72h142v-80h-144v-69h359v69h-144v80h144v72zM573 1217h-215v-224h359v74h-144v150zM502 1145v-78h-72v78h72zM717 936h-359v-72h144v-80h-144v-69h215v149h144v72zM717 807h-72v-143h-287v-72h359v215zM717 545h-215v-121
h71v49h72v-100h-215v172h-72v-244h359v244zM717 172h-359v-244h359v244zM645 100v-100h-215v100h215zM717 -121h-359v-72h152l-152 -100v-72h359v72h-219l149 100h70v72z" />
    <glyph glyph-name="fi" unicode="fi" horiz-adv-x="972" 
d="M840 1065v-1065h-97v983h-473v-983h-94v983h-113v82h113v154q0 77 23 133.5t61.5 85.5t80.5 42t89 13q82 0 150 -41v-80q-61 35 -140 35q-170 0 -170 -201v-141h570zM743 1454h97v-98h-97v98z" />
    <glyph glyph-name="f_f" unicode="ff" horiz-adv-x="1251" 
d="M1010 1407q-170 0 -170 -201v-141h307v-82h-307v-983h-97v983h-473v-983h-94v983h-113v82h113v152q0 63 16 112.5t41 79.5t59 49.5t68 27t70 7.5q82 0 150 -41v-80q-61 35 -140 35q-170 0 -170 -201v-141h473v152q0 63 16 112.5t41 79.5t59.5 49.5t68.5 27t71 7.5
q84 0 148 -41v-80q-61 35 -137 35z" />
    <glyph glyph-name=".notdef" horiz-adv-x="1075" 
d="M883 1638v-2150h-682v2150h682zM717 1495h-357v-72h142v-80h-144v-69h359v69h-144v80h144v72zM573 1217h-215v-224h359v74h-144v150zM502 1145v-78h-72v78h72zM717 936h-359v-72h144v-80h-144v-69h215v149h144v72zM717 807h-72v-143h-287v-72h359v215zM717 545h-215v-121
h71v49h72v-100h-215v172h-72v-244h359v244zM717 172h-359v-244h359v244zM645 100v-100h-215v100h215zM717 -121h-359v-72h152l-152 -100v-72h359v72h-219l149 100h70v72z" />
    <glyph glyph-name=".null" horiz-adv-x="0" 
 />
    <glyph glyph-name="nonmarkingreturn" horiz-adv-x="682" 
 />
    <glyph glyph-name="space" unicode=" " horiz-adv-x="452" 
 />
    <glyph glyph-name="exclam" unicode="!" horiz-adv-x="393" 
d="M137 367v1087h96v-1087h-96zM197 -20q-28 0 -45 17.5t-17 43.5t17 44.5t45 18.5t44.5 -18.5t16.5 -44.5t-16.5 -43.5t-44.5 -17.5z" />
    <glyph glyph-name="quotedbl" unicode="&#x22;" horiz-adv-x="442" 
d="M82 1051v403h92v-403h-92zM268 1051v403h92v-403h-92z" />
    <glyph glyph-name="numbersign" unicode="#" horiz-adv-x="1126" 
d="M1034 979h-192l-37 -522h229v-88h-235l-27 -369h-96l26 369h-337l-27 -369h-96l26 369h-176v88h182l37 522h-219v86h225l27 369h96l-26 -369h338l26 369h96l-26 -369h186v-86zM709 457l36 522h-337l-37 -522h338z" />
    <glyph glyph-name="dollar" unicode="$" horiz-adv-x="866" 
d="M784 467q0 -132 -88.5 -206.5t-216.5 -84.5v-176h-82v176q-125 10 -207.5 84.5t-105.5 194.5l84 22q27 -106 100.5 -161.5t173.5 -55.5q65 0 119.5 20.5t91.5 69t37 117.5q0 85 -54 134t-179 101l-72 31q-248 104 -248 289q0 104 72.5 174.5t187.5 81.5v176h82v-176
q98 -10 168 -66.5t96 -144.5l-77 -29q-63 156 -228 156q-88 0 -147.5 -44t-59.5 -128q0 -67 44 -117t143 -92l61 -25q80 -34 131 -62t93.5 -65.5t61.5 -84.5t19 -109z" />
    <glyph glyph-name="percent" unicode="%" horiz-adv-x="1429" 
d="M326 961q-105 0 -179.5 73t-74.5 178t74.5 178.5t179.5 73.5t179.5 -73.5t74.5 -178.5t-74.5 -178t-179.5 -73zM285 0l-74 51l932 1405l71 -51zM326 1038q75 0 125.5 48.5t50.5 125.5t-50.5 125.5t-125.5 48.5t-125.5 -48.5t-50.5 -125.5t50.5 -125.5t125.5 -48.5z
M1104 -10q-105 0 -179.5 73.5t-74.5 178.5t74.5 178.5t179.5 73.5t179.5 -73.5t74.5 -178.5t-74.5 -178.5t-179.5 -73.5zM1104 68q73 0 123.5 48.5t50.5 125.5t-50.5 125.5t-123.5 48.5t-123.5 -48.5t-50.5 -125.5t50.5 -125.5t123.5 -48.5z" />
    <glyph glyph-name="ampersand" unicode="&#x26;" horiz-adv-x="1359" 
d="M1180 74q43 0 86 22v-80q-38 -28 -103 -28q-153 0 -153 178v70q-55 -115 -168 -185.5t-260 -70.5q-202 0 -334.5 129.5t-132.5 336.5q0 195 121 317.5t296 135.5l-294 555h712v-84h-577l284 -545h-63q-104 0 -190 -43t-139.5 -129t-53.5 -200q0 -175 112.5 -280
t272.5 -105q89 0 166 33.5t127.5 87t79 119t28.5 130.5v393h242v-81h-156l4 -570q0 -53 24.5 -79.5t68.5 -26.5z" />
    <glyph glyph-name="quotesingle" unicode="'" horiz-adv-x="256" 
d="M82 1051v403h92v-403h-92z" />
    <glyph glyph-name="parenleft" unicode="(" horiz-adv-x="468" 
d="M309 -266q-217 388 -217 921q0 507 217 871h88q-207 -377 -207 -871q0 -523 207 -921h-88z" />
    <glyph glyph-name="parenright" unicode=")" horiz-adv-x="468" 
d="M180 -266h-88q207 398 207 921q0 494 -207 871h88q217 -364 217 -871q0 -533 -217 -921z" />
    <glyph glyph-name="asterisk" unicode="*" horiz-adv-x="899" 
d="M412 1192l-6 240h88l-5 -240h-77zM387 1116l-233 62l20 82l232 -72zM512 1116l-18 72l231 72l20 -82zM311 864l-71 47l149 197l57 -49zM588 864l-135 195l57 49l149 -197z" />
    <glyph glyph-name="plus" unicode="+" horiz-adv-x="868" 
d="M776 616v-77h-305v-303h-76v303h-303v77h303v302h76v-302h305z" />
    <glyph glyph-name="comma" unicode="," horiz-adv-x="366" 
d="M61 -289l144 404h90l-143 -404h-91z" />
    <glyph glyph-name="hyphen" unicode="-" horiz-adv-x="819" 
d="M92 541v75h635v-75h-635z" />
    <glyph glyph-name="period" unicode="." horiz-adv-x="288" 
d="M145 -20q-30 0 -46.5 17.5t-16.5 43.5t17 44.5t46 18.5q28 0 45 -18.5t17 -44.5t-17 -43.5t-45 -17.5z" />
    <glyph glyph-name="slash" unicode="/" horiz-adv-x="899" 
d="M125 0l588 1536h102l-588 -1536h-102z" />
    <glyph glyph-name="zero" unicode="0" horiz-adv-x="1681" 
d="M840 -20q-146 0 -278 54.5t-231 150t-157.5 237t-58.5 305.5t58.5 305.5t157.5 237.5t231 150.5t278 54.5t278.5 -54.5t232 -150.5t158 -237.5t58.5 -305.5t-58.5 -305.5t-158 -237t-232 -150t-278.5 -54.5zM840 70q125 0 240 47.5t202 131.5t139 208.5t52 269.5
t-52 269.5t-139 208.5t-202 131.5t-240 47.5q-124 0 -239 -47.5t-202 -131.5t-139.5 -208.5t-52.5 -269.5t52.5 -269.5t139.5 -208.5t202 -131.5t239 -47.5z" />
    <glyph glyph-name="one" unicode="1" horiz-adv-x="567" 
d="M307 0v1362h-184v92h278v-1454h-94z" />
    <glyph glyph-name="two" unicode="2" horiz-adv-x="1069" 
d="M94 0l479 586q17 21 56 67t55 65.5t46.5 58.5t43.5 61t32.5 57t28 62t15 60.5t6.5 67.5q0 136 -85.5 217.5t-231.5 81.5q-151 0 -246.5 -87.5t-95.5 -249.5v-35h-95v43q0 188 123 304t314 116q186 0 297.5 -108t111.5 -273q0 -45 -7.5 -88t-26 -85.5t-33 -72.5t-46 -72.5
t-45.5 -60.5t-51 -62t-45 -53l-428 -514h690v-86h-862z" />
    <glyph glyph-name="three" unicode="3" horiz-adv-x="1148" 
d="M561 -20q-170 0 -292 86.5t-165 222.5l74 39q41 -117 142 -188.5t243 -71.5q78 0 147 23.5t123 68.5t85.5 117t31.5 161q0 133 -67.5 226t-178 127t-239.5 6l375 571h-650v86h801l-381 -573q82 1 159.5 -28t139.5 -83.5t100 -140t38 -189.5q0 -139 -66.5 -245
t-176 -160.5t-243.5 -54.5z" />
    <glyph glyph-name="four" unicode="4" horiz-adv-x="1089" 
d="M997 494v-88h-153v-406h-96v406h-644v88l644 960h96v-960h153zM205 494h543v815z" />
    <glyph glyph-name="five" unicode="5" horiz-adv-x="1157" 
d="M553 -20q-167 0 -288 83t-171 209l76 43q41 -103 144.5 -175t240.5 -72q172 0 290 113t118 292t-114 293.5t-286 114.5q-103 0 -194.5 -45.5t-151.5 -133.5l-82 27l98 725h678v-86h-604l-78 -551q61 71 151.5 109.5t192.5 38.5q131 0 240.5 -59.5t175.5 -173.5t66 -259
q0 -217 -143 -355t-359 -138z" />
    <glyph glyph-name="six" unicode="6" horiz-adv-x="1128" 
d="M571 877q194 0 324.5 -123.5t130.5 -319.5q0 -132 -62 -236.5t-167.5 -161t-233.5 -56.5q-197 0 -328 128t-131 332q0 42 7 84.5t16 76t28 75t31 65.5t37.5 63.5t35 54t37 51.5t30.5 42l356 502h106l-471 -666q115 89 254 89zM563 70q153 0 261 98t108 262q0 109 -52 192
t-135 124.5t-182 41.5q-153 0 -259.5 -97.5t-106.5 -260.5q0 -164 106.5 -262t259.5 -98z" />
    <glyph glyph-name="seven" unicode="7" horiz-adv-x="946" 
d="M233 0l525 1368h-697v86h824l-553 -1454h-99z" />
    <glyph glyph-name="eight" unicode="8" horiz-adv-x="1112" 
d="M557 -20q-122 0 -224.5 52t-165.5 151t-63 225q0 137 73 238t194 153q-90 53 -137.5 137t-47.5 182q0 148 103 252.5t268 104.5q164 0 266.5 -105t102.5 -252q0 -98 -47.5 -182t-137.5 -137q122 -52 195.5 -153t73.5 -238q0 -126 -63.5 -225t-166 -151t-223.5 -52z
M557 834q118 0 199.5 80.5t81.5 199.5q0 111 -77 191.5t-204 80.5q-128 0 -204.5 -80.5t-76.5 -191.5q0 -119 81.5 -199.5t199.5 -80.5zM557 70q147 0 250.5 93t103.5 245q0 150 -101.5 245t-252.5 95q-153 0 -253.5 -94.5t-100.5 -245.5t104 -244.5t250 -93.5z" />
    <glyph glyph-name="nine" unicode="9" horiz-adv-x="1128" 
d="M565 1475q197 0 329 -128.5t132 -332.5q0 -47 -7.5 -93.5t-24.5 -91t-31 -78t-41 -77t-40 -63.5t-42.5 -61t-34.5 -48l-359 -502h-106l471 662q-117 -84 -254 -84q-193 0 -323 123t-130 319q0 200 132.5 327.5t328.5 127.5zM197 1024q0 -82 30 -150.5t81 -113.5
t117.5 -69.5t139.5 -24.5q153 0 260 97.5t107 260.5q0 164 -107 262t-260 98t-260.5 -98t-107.5 -262z" />
    <glyph glyph-name="colon" unicode=":" horiz-adv-x="329" 
d="M176 897q-29 0 -46 19t-17 45t16.5 43.5t46.5 17.5q28 0 45 -17.5t17 -43.5t-17 -45t-45 -19zM176 -20q-30 0 -46.5 17.5t-16.5 43.5t17 44.5t46 18.5q28 0 45 -18.5t17 -44.5t-17 -43.5t-45 -17.5z" />
    <glyph glyph-name="semicolon" unicode=";" horiz-adv-x="393" 
d="M250 897q-29 0 -46.5 19t-17.5 45t17 43.5t47 17.5q28 0 44.5 -17.5t16.5 -43.5t-16.5 -45t-44.5 -19zM61 -289l144 404h90l-143 -404h-91z" />
    <glyph glyph-name="less" unicode="&#x3c;" horiz-adv-x="1017" 
d="M946 0l-854 455v75l854 455v-96l-747 -397l747 -394v-98z" />
    <glyph glyph-name="equal" unicode="=" horiz-adv-x="870" 
d="M92 702v78h686v-78h-686zM92 377v76h686v-76h-686z" />
    <glyph glyph-name="greater" unicode="&#x3e;" horiz-adv-x="1017" 
d="M72 0v98l747 394l-747 397v96l854 -455v-75z" />
    <glyph glyph-name="question" unicode="?" horiz-adv-x="980" 
d="M432 367v82q0 68 21 124.5t54.5 96t73.5 75t80.5 69.5t74 72t54.5 91t21 117q0 137 -87 214.5t-226 77.5q-144 0 -237 -84.5t-93 -236.5v-35h-96v35q0 188 116.5 299t309.5 111q190 0 299.5 -104t109.5 -273q0 -71 -21 -130t-54 -100.5t-73.5 -78.5t-80.5 -71.5t-73 -70
t-54 -84t-21 -104.5v-92h-98zM479 -20q-28 0 -44.5 17.5t-16.5 43.5t16.5 44.5t44.5 18.5q29 0 46.5 -18.5t17.5 -44.5t-17 -43.5t-47 -17.5z" />
    <glyph glyph-name="at" unicode="@" horiz-adv-x="1654" 
d="M1190 72q-145 -92 -348 -92q-147 0 -279.5 53.5t-231.5 148.5t-157.5 235.5t-58.5 305.5t59 307.5t158 239t230.5 151t275.5 54.5q142 0 269.5 -53.5t224 -150t153.5 -243t57 -321.5q0 -200 -65.5 -301t-176.5 -101q-82 0 -137 59.5t-59 167.5q-37 -114 -125 -171.5
t-191 -57.5q-67 0 -128.5 27t-110.5 78t-78 132.5t-29 182.5q0 102 29 181t78.5 126.5t110 71.5t128.5 24q99 0 180 -50t113 -144l17 174h63v-488q0 -119 38 -177t99 -58q156 0 156 307q0 133 -32 246.5t-88.5 196.5t-133.5 141.5t-168.5 87.5t-191.5 29q-127 0 -243 -47.5
t-204 -132.5t-140 -212t-52 -276t51.5 -274.5t140 -209t206.5 -130t251 -46.5q199 0 340 103v-94zM803 383q50 0 97 21t86 61.5t62 107.5t23 150q0 162 -79 243t-189 81q-53 0 -101.5 -19.5t-89 -57t-64.5 -101.5t-24 -146q0 -159 83.5 -249.5t195.5 -90.5z" />
    <glyph glyph-name="A" unicode="A" horiz-adv-x="1370" 
d="M1212 0l-155 391h-746l-155 -391h-103l588 1454h88l588 -1454h-105zM348 483h672l-336 838z" />
    <glyph glyph-name="B" unicode="B" horiz-adv-x="1163" 
d="M758 803q148 -32 229.5 -137.5t81.5 -257.5q0 -184 -122.5 -296t-364.5 -112h-447v1454h467q99 0 175 -27.5t121 -75.5t68 -107.5t23 -127.5q0 -69 -22 -128t-75 -109.5t-134 -75.5zM590 1366h-359v-530h351q149 0 232 75.5t83 198.5q0 118 -77.5 187t-229.5 69zM578 88
q195 0 296 84t101 238q0 160 -102 252t-295 92h-347v-666h347z" />
    <glyph glyph-name="C" unicode="C" horiz-adv-x="1490" 
d="M848 -20q-202 0 -369 94t-265.5 266t-98.5 387q0 162 57.5 302t155.5 237.5t232.5 153t285.5 55.5q68 0 135 -12t141 -40t146 -81.5t131 -129.5l-72 -57q-50 66 -113 112.5t-127.5 69.5t-121.5 33t-115 10q-131 0 -248 -47.5t-203.5 -132t-137 -207.5t-50.5 -266
q0 -190 86.5 -340.5t231.5 -231.5t321 -81q58 0 115 10t121.5 33t127.5 69.5t113 112.5l72 -57q-59 -76 -130.5 -129.5t-145.5 -81t-140.5 -39.5t-134.5 -12z" />
    <glyph glyph-name="D" unicode="D" horiz-adv-x="1318" 
d="M135 0v1454h367q335 0 529 -198.5t194 -528.5t-194 -528.5t-529 -198.5h-367zM231 92h267q297 0 462.5 171t165.5 464t-165.5 464t-462.5 171h-267v-1270z" />
    <glyph glyph-name="E" unicode="E" horiz-adv-x="1003" 
d="M231 92h668v-92h-764v1454h746v-92h-650v-586h557v-92h-557v-592z" />
    <glyph glyph-name="F" unicode="F" horiz-adv-x="993" 
d="M891 1368h-660v-594h590v-84h-590v-690h-96v1454h756v-86z" />
    <glyph glyph-name="G" unicode="G" horiz-adv-x="1630" 
d="M1516 709q6 -166 -45.5 -305t-144 -231t-217.5 -142.5t-267 -50.5q-148 0 -281 55.5t-231.5 152.5t-156.5 237.5t-58 301.5q0 162 57.5 302t155.5 237.5t232.5 153t285.5 55.5q68 0 135 -12t141 -40t146 -81.5t131 -129.5l-72 -57q-50 66 -113 112.5t-128.5 69.5
t-122.5 33t-115 10q-131 0 -248 -47.5t-203 -132t-136 -207.5t-50 -266q0 -142 51.5 -265.5t138.5 -208.5t203.5 -133t245.5 -48q111 0 208.5 35t175.5 101.5t127.5 172.5t59.5 240h-463v88h558z" />
    <glyph glyph-name="H" unicode="H" horiz-adv-x="1275" 
d="M1044 1454h97v-1454h-97v664h-813v-664h-96v1454h96v-698h813v698z" />
    <glyph glyph-name="I" unicode="I" horiz-adv-x="364" 
d="M135 0v1454h96v-1454h-96z" />
    <glyph glyph-name="J" unicode="J" horiz-adv-x="937" 
d="M408 -20q-113 0 -200.5 46.5t-133.5 129.5l63 61q95 -145 269 -145q141 0 222 88.5t81 253.5v1040h96v-1046q0 -108 -31.5 -191.5t-86.5 -134.5t-125.5 -76.5t-153.5 -25.5z" />
    <glyph glyph-name="K" unicode="K" horiz-adv-x="1247" 
d="M1067 0l-594 713l-242 -271v-442h-96v1454h96v-883l779 883h120l-598 -674l652 -780h-117z" />
    <glyph glyph-name="L" unicode="L" horiz-adv-x="1011" 
d="M231 92h687v-92h-783v1454h96v-1362z" />
    <glyph glyph-name="M" unicode="M" horiz-adv-x="1753" 
d="M135 0v1454h109l633 -1327l630 1327h111v-1454h-96v1251h-11l-596 -1251h-77l-596 1251h-11v-1251h-96z" />
    <glyph glyph-name="N" unicode="N" horiz-adv-x="1400" 
d="M135 0v1454h101l925 -1288h10v1288h97v-1454h-101l-925 1288h-11v-1288h-96z" />
    <glyph glyph-name="O" unicode="O" horiz-adv-x="1687" 
d="M844 -20q-143 0 -275.5 54.5t-233 150t-160.5 237t-60 305.5t60 305.5t160.5 237.5t233 150.5t275.5 54.5q144 0 276.5 -54.5t233.5 -150.5t161 -237.5t60 -305.5t-60 -305.5t-161 -237t-233.5 -150t-276.5 -54.5zM844 74q124 0 238.5 47t202 130t140 207t52.5 269
t-52.5 269t-140 207t-202 130t-238.5 47q-123 0 -237.5 -47t-202 -130t-140.5 -207t-53 -269t53 -269t140.5 -207t202 -130t237.5 -47z" />
    <glyph glyph-name="P" unicode="P" horiz-adv-x="1155" 
d="M575 1454q227 0 357.5 -128.5t130.5 -328.5q0 -204 -130 -332t-358 -128h-344v-537h-96v1454h440zM569 629q184 0 289 97.5t105 270.5t-105 269t-289 96h-338v-733h338z" />
    <glyph glyph-name="Q" unicode="Q" horiz-adv-x="1687" 
d="M1575 727q0 -177 -67.5 -323.5t-186.5 -247.5l131 -156h-117l-86 102q-178 -122 -405 -122q-143 0 -275.5 54.5t-233 150t-160.5 237t-60 305.5t60 305.5t160.5 237.5t233 150.5t275.5 54.5q144 0 276.5 -54.5t233.5 -150.5t161 -237.5t60 -305.5zM844 74q194 0 344 102
l-340 404h117l295 -351q102 89 159.5 216t57.5 282q0 145 -52.5 269t-140 207t-202 130t-238.5 47q-123 0 -237.5 -47t-202 -130t-140.5 -207t-53 -269t53 -269t140.5 -207t202 -130t237.5 -47z" />
    <glyph glyph-name="R" unicode="R" horiz-adv-x="1185" 
d="M1092 0h-111l-371 543q-12 -2 -39 -2h-340v-541h-96v1454h436q223 0 352.5 -129t129.5 -328q0 -169 -90 -287.5t-254 -154.5zM559 633q184 0 288.5 96t104.5 268q0 174 -104.5 269.5t-288.5 95.5h-328v-729h328z" />
    <glyph glyph-name="S" unicode="S" horiz-adv-x="1075" 
d="M553 -20q-180 0 -307.5 96t-161.5 254l82 37q31 -135 136.5 -214t252.5 -79q145 0 242.5 78.5t97.5 218.5q0 67 -23 119.5t-71 92.5t-100 67.5t-132 58.5l-98 39q-326 129 -326 378q0 155 111.5 252t282.5 97q163 0 268 -84.5t147 -214.5l-77 -37q-93 243 -336 243
q-129 0 -213 -70t-84 -186q0 -96 61.5 -167.5t196.5 -124.5l98 -39q75 -30 127.5 -56t106 -64t86 -79t53 -98.5t20.5 -126.5q0 -181 -125.5 -286t-314.5 -105z" />
    <glyph glyph-name="T" unicode="T" horiz-adv-x="1085" 
d="M1004 1454v-92h-412v-1362h-96v1362h-412v92h920z" />
    <glyph glyph-name="U" unicode="U" horiz-adv-x="1267" 
d="M635 -20q-220 0 -360 139.5t-140 384.5v950h96v-948q0 -204 112 -318t292 -114q179 0 291 114t112 318v948h97v-950q0 -245 -140.5 -384.5t-359.5 -139.5z" />
    <glyph glyph-name="V" unicode="V" horiz-adv-x="1390" 
d="M651 0l-588 1454h103l528 -1319l529 1319h104l-588 -1454h-88z" />
    <glyph glyph-name="W" unicode="W" horiz-adv-x="2004" 
d="M506 0l-432 1454h100l379 -1274l408 1274h81l410 -1274l377 1274h102l-434 -1454h-80l-416 1280l-413 -1280h-82z" />
    <glyph glyph-name="X" unicode="X" horiz-adv-x="1296" 
d="M1233 0h-115l-469 670l-471 -670h-115l527 752l-492 702h115l434 -620l434 620h117l-491 -702z" />
    <glyph glyph-name="Y" unicode="Y" horiz-adv-x="1265" 
d="M584 0v662l-510 792h110l449 -700l446 700h113l-512 -792v-662h-96z" />
    <glyph glyph-name="Z" unicode="Z" horiz-adv-x="1177" 
d="M63 0l875 1362h-827v92h993l-877 -1362h863v-92h-1027z" />
    <glyph glyph-name="bracketleft" unicode="[" horiz-adv-x="466" 
d="M92 -266v1792h283v-86h-187v-1620h187v-86h-283z" />
    <glyph glyph-name="backslash" unicode="\" horiz-adv-x="899" 
d="M774 0h-102l-588 1536h102z" />
    <glyph glyph-name="bracketright" unicode="]" horiz-adv-x="466" 
d="M375 -266h-283v86h187v1620h-187v86h283v-1792z" />
    <glyph glyph-name="asciicircum" unicode="^" horiz-adv-x="958" 
d="M92 973l342 461h90l342 -461h-116l-269 364l-272 -364h-117z" />
    <glyph glyph-name="underscore" unicode="_" horiz-adv-x="1208" 
d="M92 -88v88h1024v-88h-1024z" />
    <glyph glyph-name="grave" unicode="`" horiz-adv-x="262" 
d="M242 1200h-92l-130 316h97z" />
    <glyph glyph-name="a" unicode="a" 
d="M614 -20q-103 0 -197 36.5t-169 104t-119.5 174.5t-44.5 237q0 105 29 195.5t79.5 155t118 111t144.5 69t159 22.5q150 0 271 -73.5t174 -192.5h6v246h94v-1065h-94v246h-6q-53 -119 -174 -192.5t-271 -73.5zM623 68q84 0 162 29.5t141.5 85t102 146.5t38.5 203
t-38.5 203t-102 147t-141.5 85.5t-162 29.5t-162 -29.5t-141.5 -85t-101.5 -146.5t-38 -204q0 -91 25 -168t68 -131t99.5 -91.5t120 -55.5t130.5 -18z" />
    <glyph glyph-name="b" unicode="b" 
d="M678 1085q103 0 197.5 -36.5t169.5 -104t120 -175t45 -237.5t-45 -237t-120 -174.5t-169.5 -104t-197.5 -36.5q-150 0 -270 73.5t-172 192.5h-7v-246h-94v1454h94v-635h7q52 119 172 192.5t270 73.5zM670 68q84 0 161.5 29t141 84.5t101.5 146.5t38 204t-38 204
t-101.5 146.5t-141 85t-161.5 29.5t-162 -29.5t-142 -85.5t-102.5 -147t-38.5 -203t38.5 -203t102.5 -146.5t142 -85t162 -29.5z" />
    <glyph glyph-name="c" unicode="c" horiz-adv-x="1163" 
d="M627 -20q-103 0 -199.5 37t-173.5 105t-123.5 174t-46.5 234q0 129 46.5 236t123.5 175.5t173.5 106t199.5 37.5q142 0 264 -68t188 -194l-75 -41q-56 102 -156.5 158.5t-216.5 56.5q-85 0 -165 -31t-144 -88t-103 -147.5t-39 -200.5q0 -108 39 -197.5t103 -146
t144 -87.5t165 -31q116 0 216.5 56.5t156.5 158.5l75 -41q-66 -126 -188 -194t-264 -68z" />
    <glyph glyph-name="d" unicode="d" 
d="M1065 1454h94v-1454h-94v246h-6q-53 -119 -174 -192.5t-271 -73.5q-103 0 -197 36.5t-169 104t-119.5 174.5t-44.5 237q0 105 29 195.5t79.5 155t118 111t144.5 69t159 22.5q150 0 271 -73.5t174 -192.5h6v635zM623 68q84 0 162 29.5t141.5 85t102 146.5t38.5 203
t-38.5 203t-102 147t-141.5 85.5t-162 29.5t-162 -29.5t-141.5 -85t-101.5 -146.5t-38 -204q0 -91 25 -168t68 -131t99.5 -91.5t120 -55.5t130.5 -18z" />
    <glyph glyph-name="e" unicode="e" horiz-adv-x="1196" 
d="M606 1085q103 0 197.5 -38t168 -108.5t112.5 -184.5t28 -254h-938q8 -136 73.5 -235.5t165 -148t218.5 -48.5q108 0 200 40t150 113l55 -55q-72 -89 -182 -137.5t-233 -48.5q-106 0 -202.5 37t-171.5 105.5t-119 175.5t-44 237q0 129 44 235.5t117.5 174t166.5 104
t194 36.5zM606 997q-108 0 -201 -46t-156.5 -142.5t-72.5 -228.5h852q-4 128 -64.5 225t-154 144.5t-203.5 47.5z" />
    <glyph glyph-name="f" unicode="f" horiz-adv-x="681" 
d="M440 1407q-170 0 -170 -201v-141h310v-82h-310v-983h-94v983h-113v82h113v152q0 63 16 112.5t41 79.5t59 49.5t68 27t70 7.5q82 0 150 -41v-80q-61 35 -140 35z" />
    <glyph glyph-name="g" unicode="g" 
d="M1065 1065h94v-1022q0 -102 -30.5 -183.5t-81 -134t-119 -87.5t-141 -49.5t-150.5 -14.5q-106 0 -190 24t-123 54v88q114 -80 305 -80q68 0 128.5 11.5t117.5 40.5t98.5 72.5t66.5 112.5t25 156v193h-8q-53 -119 -174 -192.5t-271 -73.5q-101 0 -195 36t-168.5 103.5
t-119.5 174.5t-45 238t45 238.5t119.5 174.5t168.5 103.5t195 36.5q150 0 271 -73.5t174 -192.5h8v246zM621 68q67 0 130.5 18t121 56t100.5 92t68.5 131t25.5 167q0 112 -38.5 203t-102.5 147t-142.5 85.5t-162.5 29.5q-83 0 -160.5 -29.5t-141 -85t-101.5 -146.5t-38 -204
q0 -91 25 -168t67.5 -131t99.5 -91.5t120 -55.5t129 -18z" />
    <glyph glyph-name="h" unicode="h" horiz-adv-x="1165" 
d="M606 1085q88 0 163.5 -27.5t135 -82t93.5 -144t34 -204.5v-627h-94v618q0 186 -98 282.5t-252 96.5q-155 0 -257 -97t-102 -282v-618h-94v1454h94v-584q44 90 139.5 152.5t237.5 62.5z" />
    <glyph glyph-name="i" unicode="i" horiz-adv-x="362" 
d="M135 1356v98h94v-98h-94zM135 0v1065h94v-1065h-94z" />
    <glyph glyph-name="j" unicode="j" horiz-adv-x="364" 
d="M135 1356v98h96v-98h-96zM-184 -395v88h39q66 0 114 13t87 45t59 92.5t20 148.5v1073h96v-1075q0 -113 -28.5 -191t-83 -119t-119.5 -58t-152 -17h-32z" />
    <glyph glyph-name="k" unicode="k" horiz-adv-x="1060" 
d="M881 0l-463 498l-189 -203v-295h-94v1454h94v-1036l598 647h119l-469 -504l522 -561h-118z" />
    <glyph glyph-name="l" unicode="l" horiz-adv-x="362" 
d="M135 0v1454h94v-1454h-94z" />
    <glyph glyph-name="m" unicode="m" horiz-adv-x="1812" 
d="M1294 1085q173 0 278 -113.5t105 -338.5v-633h-94v621q0 175 -77 275.5t-230 100.5t-238.5 -102t-85.5 -274v-621h-94v621q0 175 -77 275.5t-230 100.5q-154 0 -238 -102t-84 -274v-621h-94v1065h94v-182q42 87 126.5 144.5t213.5 57.5q128 0 221 -62t134 -187
q16 46 44.5 88t72.5 79.5t109.5 59.5t143.5 22z" />
    <glyph glyph-name="n" unicode="n" horiz-adv-x="1165" 
d="M606 1085q88 0 163.5 -27.5t135 -82t93.5 -144t34 -204.5v-627h-94v618q0 186 -98 282.5t-252 96.5q-155 0 -257 -97t-102 -282v-618h-94v1065h94v-195q44 90 139.5 152.5t237.5 62.5z" />
    <glyph glyph-name="o" unicode="o" horiz-adv-x="1259" 
d="M629 -20q-104 0 -201 37t-174 105.5t-123.5 175t-46.5 234.5t46.5 235t123.5 175t174 105.5t201 37.5q83 0 162 -23t149 -70t122.5 -112t83 -155t30.5 -193t-30.5 -193t-83 -155t-122.5 -111.5t-149 -69.5t-162 -23zM629 68q86 0 166 31t144 87.5t102 146.5t38 199
t-38 199t-102 147t-144 88t-166 31t-166 -31t-143.5 -88t-101.5 -147t-38 -199t38 -199t101.5 -146.5t143.5 -87.5t166 -31z" />
    <glyph glyph-name="p" unicode="p" 
d="M678 1085q103 0 197.5 -36.5t169.5 -104t120 -175t45 -237.5t-45 -237t-120 -174.5t-169.5 -104t-197.5 -36.5q-150 0 -270 73.5t-172 192.5h-7v-635h-94v1454h94v-246h7q52 119 172 192.5t270 73.5zM670 68q84 0 161.5 29t141 84.5t101.5 146.5t38 204t-38 204
t-101.5 146.5t-141 85t-161.5 29.5t-162 -29.5t-142 -85.5t-102.5 -147t-38.5 -203t38.5 -203t102.5 -146.5t142 -85t162 -29.5z" />
    <glyph glyph-name="q" unicode="q" 
d="M1065 1065h94v-1454h-94v635h-6q-53 -119 -174 -192.5t-271 -73.5q-103 0 -197 36.5t-169 104t-119.5 174.5t-44.5 237q0 105 29 195.5t79.5 155t118 111t144.5 69t159 22.5q150 0 271 -73.5t174 -192.5h6v246zM623 68q84 0 162 29.5t141.5 85t102 146.5t38.5 203
t-38.5 203t-102 147t-141.5 85.5t-162 29.5t-162 -29.5t-141.5 -85t-101.5 -146.5t-38 -204q0 -91 25 -168t68 -131t99.5 -91.5t120 -55.5t130.5 -18z" />
    <glyph glyph-name="r" unicode="r" horiz-adv-x="712" 
d="M578 1085q35 0 53 -6v-86q-28 4 -51 4q-150 0 -250.5 -111.5t-100.5 -299.5v-586h-94v1065h94v-242q35 114 123.5 188t225.5 74z" />
    <glyph glyph-name="s" unicode="s" horiz-adv-x="856" 
d="M430 -20q-141 0 -236 75.5t-120 204.5l84 23q27 -106 100.5 -161.5t173.5 -55.5q65 0 119.5 20.5t91.5 68.5t37 117q0 85 -54.5 134.5t-179.5 101.5l-71 31q-248 104 -248 288q0 113 84.5 185.5t214.5 72.5q113 0 195.5 -57.5t111.5 -155.5l-78 -28q-62 155 -227 155
q-88 0 -147.5 -44t-59.5 -128q0 -67 44 -117t143 -92l61 -24q80 -34 131 -62t93.5 -66t61.5 -85t19 -109q0 -74 -29.5 -131.5t-79.5 -91.5t-110 -51.5t-125 -17.5z" />
    <glyph glyph-name="t" unicode="t" horiz-adv-x="610" 
d="M516 983h-205v-803q0 -106 105 -106q46 0 96 22v-80q-45 -28 -113 -28q-86 0 -134 42.5t-48 127.5v825h-133v82h133v272h94v-272h205v-82z" />
    <glyph glyph-name="u" unicode="u" horiz-adv-x="1165" 
d="M938 1065h94v-1065h-94v199q-44 -91 -140 -155t-239 -64q-87 0 -162.5 27.5t-134.5 82t-93 144t-34 204.5v627h94v-619q0 -186 98.5 -282t252.5 -96q73 0 136.5 23t113.5 68t79 119t29 168v619z" />
    <glyph glyph-name="v" unicode="v" horiz-adv-x="1124" 
d="M520 0l-457 1065h101l397 -938l400 938h100l-457 -1065h-84z" />
    <glyph glyph-name="w" unicode="w" horiz-adv-x="1894" 
d="M1735 1065h98l-408 -1065h-90l-387 948l-389 -948h-88l-408 1065h99l354 -936l383 936h96l383 -936z" />
    <glyph glyph-name="x" unicode="x" horiz-adv-x="1044" 
d="M53 0l416 543l-399 522h112l340 -449l340 449h113l-400 -522l416 -543h-114l-355 471l-354 -471h-115z" />
    <glyph glyph-name="y" unicode="y" horiz-adv-x="1124" 
d="M961 1065h100l-457 -1065l-172 -389h-94l178 399l-453 1055h101l397 -938z" />
    <glyph glyph-name="z" unicode="z" horiz-adv-x="1044" 
d="M63 0l750 979h-694v86h862l-752 -977h729v-88h-895z" />
    <glyph glyph-name="braceleft" unicode="{" horiz-adv-x="516" 
d="M332 -266q-65 0 -106.5 42.5t-41.5 108.5v596l-92 146l92 149v598q0 66 42 109t106 43h92v-86h-72q-32 0 -51.5 -20.5t-19.5 -53.5v-600l-80 -139l80 -135v-598q0 -33 19.5 -53.5t51.5 -20.5h72v-86h-92z" />
    <glyph glyph-name="bar" unicode="|" horiz-adv-x="417" 
d="M166 -184v1638h86v-1638h-86z" />
    <glyph glyph-name="braceright" unicode="}" horiz-adv-x="516" 
d="M184 -266h-92v86h72q32 0 52 21t20 53v598l81 135l-81 139v600q0 32 -20 53t-52 21h-72v86h92q64 0 106 -43t42 -109v-598l92 -149l-92 -146v-596q0 -66 -41.5 -108.5t-106.5 -42.5z" />
    <glyph glyph-name="asciitilde" unicode="~" horiz-adv-x="792" 
d="M530 475q-37 0 -68 14.5t-52.5 34.5t-42.5 40.5t-46.5 35t-54.5 14.5q-44 0 -68 -28t-24 -70h-82q0 87 48.5 132.5t121.5 45.5q37 0 68 -14.5t52.5 -35t42.5 -40.5t46.5 -34.5t54.5 -14.5q44 0 68 28t24 70h82q0 -87 -48.5 -132.5t-121.5 -45.5z" />
    <glyph glyph-name="exclamdown" unicode="&#xa1;" horiz-adv-x="313" 
d="M197 1085q28 0 44.5 -17.5t16.5 -43.5t-16.5 -44.5t-44.5 -18.5t-45 18.5t-17 44.5t17 43.5t45 17.5zM137 700h96v-1089h-96v1089z" />
    <glyph glyph-name="cent" unicode="&#xa2;" horiz-adv-x="1163" 
d="M657 221q109 6 201.5 60.5t145.5 148.5l75 -39q-63 -117 -175.5 -183.5t-246.5 -74.5v-215h-69v217q-98 6 -188 45t-160.5 106t-113 167.5t-42.5 220.5q0 97 27.5 182t75.5 147.5t112 109t137.5 71.5t151.5 30v220h69v-217q134 -8 246.5 -74t175.5 -182l-75 -39
q-53 93 -146 147.5t-201 60.5v-909zM180 674q0 -80 22.5 -150t61 -122t90.5 -91t111.5 -61t122.5 -27v905q-80 -7 -152 -40t-130 -88.5t-92 -140t-34 -185.5z" />
    <glyph glyph-name="sterling" unicode="&#xa3;" horiz-adv-x="1138" 
d="M1034 1006h-90v30q0 170 -101.5 261.5t-248.5 91.5q-91 0 -166 -34t-123.5 -106.5t-48.5 -171.5q0 -64 17 -124.5t56 -149t50 -117.5h354v-78h-332q17 -66 17 -125q0 -200 -191 -397h789v-86h-912v86q123 114 173.5 213t50.5 195q0 45 -15 114h-198v78h172
q-9 25 -49.5 114t-58 150.5t-17.5 130.5q0 174 119 284t315 110q199 0 318.5 -118.5t119.5 -320.5v-30z" />
    <glyph glyph-name="currency" unicode="&#xa4;" horiz-adv-x="1150" 
d="M1034 975q0 -158 -94 -279l96 -96l-86 -84l-94 94q-124 -94 -281 -94q-160 0 -280 96l-96 -96l-84 84l96 96q-94 121 -94 279q0 156 94 280l-96 97l84 84l96 -97q126 95 280 95q157 0 279 -95l96 97l86 -84l-96 -97q94 -124 94 -280zM575 625q147 -2 250 100.5t103 249.5
q0 148 -102.5 248t-250.5 102q-148 1 -249 -100t-101 -250q0 -147 101 -247.5t249 -102.5z" />
    <glyph glyph-name="yen" unicode="&#xa5;" horiz-adv-x="1265" 
d="M680 662v-23h305v-74h-305v-84h305v-73h-305v-408h-96v408h-283v73h283v84h-283v74h283v23l-510 792h110l449 -700l446 700h113z" />
    <glyph glyph-name="brokenbar" unicode="&#xa6;" horiz-adv-x="417" 
d="M166 881v573h86v-573h-86zM166 -184v573h86v-573h-86z" />
    <glyph glyph-name="section" unicode="&#xa7;" horiz-adv-x="882" 
d="M692 338q107 -83 107 -219q0 -142 -109 -223.5t-278 -81.5q-118 0 -213 46t-115 91v207h70v-170q15 -32 90 -67.5t170 -35.5q130 0 218.5 61.5t88.5 174.5q0 45 -15.5 82t-36.5 60.5t-61 46.5t-70 35.5t-83 31.5l-99 37q-136 50 -201 123t-65 180q0 138 117 215
q-117 86 -117 227q0 124 95 200.5t245 76.5q109 0 196 -41.5t115 -85.5v-209h-71v172q-17 28 -83 60t-155 32q-119 0 -192.5 -55t-73.5 -150q0 -78 51.5 -135t161.5 -100l98 -37q59 -21 99 -39t86 -46.5t73 -60t45.5 -78t18.5 -102.5q0 -143 -107 -223zM379 481l98 -37
q86 -30 146 -61q98 65 98 180q0 45 -15.5 82t-36.5 60.5t-61 46.5t-70 35.5t-83 31.5l-99 37q-25 9 -80 35q-110 -57 -110 -174q0 -78 51.5 -135.5t161.5 -100.5z" />
    <glyph glyph-name="dieresis" unicode="&#xa8;" horiz-adv-x="483" 
d="M0 1354v100h94v-100h-94zM387 1354v100h96v-100h-96z" />
    <glyph glyph-name="copyright" unicode="&#xa9;" horiz-adv-x="1681" 
d="M842 -14q-144 0 -276 53t-232 147t-159.5 235t-59.5 306t59.5 306t159.5 235t232 147t276 53q115 0 222.5 -33t199 -97.5t160 -153.5t107 -206.5t38.5 -250.5t-38.5 -250.5t-107 -206.5t-160 -153.5t-199 -97.5t-222.5 -33zM842 80q124 0 237.5 44.5t201.5 126t140 205
t52 271.5t-52 271.5t-140 205t-201.5 126t-237.5 44.5q-125 0 -239 -44.5t-202 -126t-140 -205t-52 -271.5t52 -271.5t140 -205t202 -126t239 -44.5zM854 260q-191 0 -323 131t-132 336t132 336t323 131q186 0 311 -125l-57 -65q-98 98 -250 98q-150 0 -257 -103.5
t-107 -271.5t107 -271.5t257 -103.5q152 0 250 101l57 -68q-125 -125 -311 -125z" />
    <glyph glyph-name="ordfeminine" unicode="&#xaa;" horiz-adv-x="784" 
d="M297 786q-95 0 -154 50t-59 143q0 169 233 195l215 22q-1 84 -47.5 127t-132.5 43q-64 0 -110.5 -23t-91.5 -67l-48 51q86 117 256 117q127 0 192 -73.5t66 -227.5v-197q0 -17 1 -31.5t1.5 -25t3.5 -22t4 -17t5.5 -15.5t5.5 -13.5t6.5 -14.5t7.5 -14h-86q-27 35 -30 104
q-36 -46 -98.5 -78.5t-139.5 -32.5zM307 864q82 0 143.5 47t81.5 90v121l-217 -22q-147 -16 -147 -119q0 -57 37.5 -87t101.5 -30z" />
    <glyph glyph-name="guillemotleft" unicode="&#xab;" horiz-adv-x="768" 
d="M379 276l-297 295v64l297 295l39 -41l-264 -287l264 -285zM678 276l-297 295v64l297 295l39 -41l-264 -287l264 -285z" />
    <glyph glyph-name="logicalnot" unicode="&#xac;" horiz-adv-x="927" 
d="M836 618v-288h-86v213h-658v75h744z" />
    <glyph glyph-name="uni00AD" unicode="&#xad;" horiz-adv-x="819" 
d="M92 541v75h635v-75h-635z" />
    <glyph glyph-name="registered" unicode="&#xae;" horiz-adv-x="1681" 
d="M842 -14q-144 0 -276 53t-232 147t-159.5 235t-59.5 306q0 169 59.5 312t159.5 238.5t232 148.5t276 53q115 0 222.5 -33.5t199 -98.5t160 -155t107 -209.5t38.5 -255.5q0 -133 -38.5 -250.5t-107 -206.5t-160 -153.5t-199 -97.5t-222.5 -33zM842 80q124 0 237.5 44.5
t201.5 126t140 205t52 271.5q0 151 -52 277t-140 208t-201 127t-238 45t-239 -45t-202 -127t-140 -208t-52 -277q0 -148 52 -271.5t140 -205t202 -126t239 -44.5zM578 315v838h278q131 0 206 -72.5t75 -191.5q0 -104 -55.5 -168t-145.5 -84l242 -322h-103l-233 318h-180
v-318h-84zM662 713h192q199 0 199 174q0 90 -51 139t-148 49h-192v-362z" />
    <glyph glyph-name="macron" unicode="&#xaf;" horiz-adv-x="737" 
d="M0 1354v80h737v-80h-737z" />
    <glyph glyph-name="degree" unicode="&#xb0;" horiz-adv-x="804" 
d="M401 877q-124 0 -210.5 87.5t-86.5 213.5t86 211.5t211 85.5t212 -86t87 -211q0 -126 -87 -213.5t-212 -87.5zM401 958q92 0 154.5 63t62.5 157q0 93 -62 155t-155 62q-91 0 -153 -62t-62 -155q0 -94 62 -157t153 -63z" />
    <glyph glyph-name="plusminus" unicode="&#xb1;" horiz-adv-x="868" 
d="M471 610h305v-78h-305v-303h-76v303h-303v78h303v301h76v-301zM90 2v78h686v-78h-686z" />
    <glyph glyph-name="uni00B2" unicode="&#xb2;" horiz-adv-x="557" 
d="M100 901v66l140 141q56 58 74 78.5t32 47t14 54.5q0 38 -28.5 64t-65.5 26q-39 0 -67.5 -26.5t-28.5 -75.5v-29h-76v29q0 72 50.5 119t121.5 47q70 0 121 -46.5t51 -107.5q0 -54 -29.5 -96.5t-109.5 -124.5l-96 -100h241v-66h-344z" />
    <glyph glyph-name="uni00B3" unicode="&#xb3;" horiz-adv-x="581" 
d="M291 893q-83 0 -136.5 55.5t-50.5 130.5h78q0 -50 30 -85.5t79 -35.5q45 0 77.5 28t32.5 71q0 55 -38.5 76.5t-112.5 21.5v59q66 0 97.5 23.5t31.5 62.5q0 32 -25.5 54t-62.5 22q-44 0 -70.5 -29t-27.5 -83h-74q-1 77 47.5 126.5t124.5 49.5q66 0 115 -42t49 -98
q0 -64 -62 -108q38 -16 62 -50.5t24 -84.5q0 -69 -56 -116.5t-132 -47.5z" />
    <glyph glyph-name="acute" unicode="&#xb4;" horiz-adv-x="262" 
d="M20 1200l125 316h97l-129 -316h-93z" />
    <glyph glyph-name="uni00B5" unicode="&#xb5;" horiz-adv-x="1165" 
d="M938 1065h94v-1065h-94v199q-44 -91 -140 -155t-239 -64q-212 0 -330 145v-514h-94v1454h94v-619q0 -186 98.5 -282t252.5 -96q73 0 136.5 23t113.5 68t79 119t29 168v619z" />
    <glyph glyph-name="paragraph" unicode="&#xb6;" horiz-adv-x="1390" 
d="M115 997q0 200 129 328.5t356 128.5h442v-1454h-96v537h-346q-228 0 -356.5 127.5t-128.5 332.5zM1161 1454h96v-1454h-96v1454zM946 1362h-338q-186 0 -290.5 -95.5t-104.5 -269.5q0 -173 105 -270.5t290 -97.5h338v733z" />
    <glyph glyph-name="periodcentered" unicode="&#xb7;" horiz-adv-x="329" 
d="M166 494q-30 0 -47 17.5t-17 43.5t17 43.5t47 17.5q28 0 44.5 -17.5t16.5 -43.5t-16.5 -43.5t-44.5 -17.5z" />
    <glyph glyph-name="cedilla" unicode="&#xb8;" horiz-adv-x="323" 
d="M131 -92q72 2 122 -42.5t50 -119.5q0 -66 -40 -109.5t-101 -58t-131 -4.5v68q180 -15 180 100q0 113 -158 92l-33 43l82 123h93z" />
    <glyph glyph-name="uni00B9" unicode="&#xb9;" horiz-adv-x="436" 
d="M195 901v453l-35 -23l-37 64l72 41h75v-535h-75z" />
    <glyph glyph-name="ordmasculine" unicode="&#xba;" horiz-adv-x="796" 
d="M397 786q-75 0 -145.5 37t-119 114.5t-48.5 178.5q0 77 28.5 141t74 103.5t100 61.5t110.5 22q76 0 146.5 -36.5t120 -113.5t49.5 -178t-49.5 -178.5t-120.5 -114.5t-146 -37zM397 868q93 0 163.5 65.5t70.5 182.5t-70.5 182.5t-163.5 65.5q-91 0 -161 -65.5t-70 -182.5
t70 -182.5t161 -65.5z" />
    <glyph glyph-name="guillemotright" unicode="&#xbb;" horiz-adv-x="768" 
d="M90 276l-39 41l264 285l-264 287l39 41l297 -295v-64zM389 276l-39 41l264 285l-264 287l39 41l297 -295v-64z" />
    <glyph glyph-name="onequarter" unicode="&#xbc;" horiz-adv-x="1165" 
d="M129 901v453l-35 -23l-37 64l72 41h76v-535h-76zM51 0l893 1434h86l-880 -1434h-99zM983 0v156h-270l270 379h76v-316h55v-63h-55v-156h-76zM850 219h133v195z" />
    <glyph glyph-name="onehalf" unicode="&#xbd;" horiz-adv-x="1114" 
d="M129 901v453l-35 -23l-37 64l72 41h76v-535h-76zM51 0l893 1434h86l-880 -1434h-99zM719 0v66l139 141q58 60 75 79t31.5 46t14.5 55q0 38 -28.5 64t-65.5 26q-39 0 -68 -26.5t-29 -75.5v-29h-75v29q0 72 50.5 119t121.5 47q70 0 121 -46.5t51 -107.5q0 -54 -29.5 -96.5
t-109.5 -124.5l-97 -100h242v-66h-344z" />
    <glyph glyph-name="threequarters" unicode="&#xbe;" horiz-adv-x="1202" 
d="M238 893q-83 0 -136.5 55.5t-50.5 130.5h78q0 -50 30 -85.5t79 -35.5q45 0 77.5 28t32.5 71q0 55 -38.5 76.5t-112.5 21.5v59q66 0 97.5 23.5t31.5 62.5q0 32 -25.5 54t-62.5 22q-44 0 -70.5 -29t-26.5 -83h-75q-1 77 47.5 126.5t124.5 49.5q66 0 114.5 -42t48.5 -98
q0 -65 -61 -108q38 -16 62 -50.5t24 -84.5q0 -69 -56 -116.5t-132 -47.5zM109 0l892 1434h86l-880 -1434h-98zM1020 0v156h-270l270 379h76v-316h55v-63h-55v-156h-76zM887 219h133v195z" />
    <glyph glyph-name="questiondown" unicode="&#xbf;" horiz-adv-x="980" 
d="M500 1085q30 0 46.5 -17.5t16.5 -43.5t-17 -44.5t-46 -18.5q-28 0 -45 18.5t-17 44.5t17 43.5t45 17.5zM549 698v-82q0 -68 -21 -124.5t-54.5 -96t-74.5 -75t-81.5 -69.5t-74 -72t-54.5 -91t-21 -117q0 -137 87.5 -215t225.5 -78q145 0 237.5 85t92.5 237v35h96v-35
q0 -188 -116 -299t-310 -111q-189 0 -299 104.5t-110 272.5q0 71 21 130t54.5 100.5t73.5 78.5t80.5 71.5t74 70t54.5 84t21 104.5v92h98z" />
    <glyph glyph-name="Agrave" unicode="&#xc0;" horiz-adv-x="1370" 
d="M727 1569h-92l-129 315h96zM1212 0l-155 391h-746l-155 -391h-103l588 1454h88l588 -1454h-105zM348 483h672l-336 838z" />
    <glyph glyph-name="Aacute" unicode="&#xc1;" horiz-adv-x="1370" 
d="M874 1884l-129 -315h-92l125 315h96zM1212 0l-155 391h-746l-155 -391h-103l588 1454h88l588 -1454h-105zM348 483h672l-336 838z" />
    <glyph glyph-name="Acircumflex" unicode="&#xc2;" horiz-adv-x="1370" 
d="M684 1802l-184 -217l-60 53l209 246h70l209 -246l-60 -53zM1212 0l-155 391h-746l-155 -391h-103l588 1454h88l588 -1454h-105zM348 483h672l-336 838z" />
    <glyph glyph-name="Atilde" unicode="&#xc3;" horiz-adv-x="1370" 
d="M557 1761q-44 0 -68 -28t-24 -70h-82q0 87 48.5 132.5t121.5 45.5q37 0 68 -14.5t52.5 -35t42.5 -40.5t46.5 -34.5t54.5 -14.5q44 0 68 28.5t24 71.5h82q0 -89 -48.5 -134.5t-121.5 -45.5q-37 0 -68 14.5t-52.5 35t-42.5 40.5t-46.5 34.5t-54.5 14.5zM1212 0l-155 391
h-746l-155 -391h-103l588 1454h88l588 -1454h-105zM348 483h672l-336 838z" />
    <glyph glyph-name="Adieresis" unicode="&#xc4;" horiz-adv-x="1370" 
d="M539 1823v-101h-95v101h95zM928 1823v-101h-97v101h97zM1212 0l-155 391h-746l-155 -391h-103l588 1454h88l588 -1454h-105zM348 483h672l-336 838z" />
    <glyph glyph-name="Aring" unicode="&#xc5;" horiz-adv-x="1370" 
d="M686 1602q-69 0 -116.5 46t-47.5 113q0 66 47.5 112t116.5 46q65 0 112.5 -46.5t47.5 -111.5q0 -67 -47.5 -113t-112.5 -46zM684 1847q-37 0 -62.5 -25.5t-25.5 -60.5q0 -37 25.5 -62.5t62.5 -25.5t61.5 25.5t24.5 62.5q0 36 -25 61t-61 25zM1212 0l-155 391h-746
l-155 -391h-103l588 1454h88l588 -1454h-105zM348 483h672l-336 838z" />
    <glyph glyph-name="AE" unicode="&#xc6;" horiz-adv-x="1914" 
d="M1143 92h669v-92h-765v416h-603l-280 -416h-111l981 1454h760v-92h-651v-586h557v-92h-557v-592zM502 502h545v809z" />
    <glyph glyph-name="Ccedilla" unicode="&#xc7;" horiz-adv-x="1490" 
d="M850 74q58 0 115 10t121.5 33t127.5 69.5t113 112.5l72 -57q-190 -244 -508 -260l-49 -74q72 2 122 -42.5t50 -119.5q0 -66 -40 -109.5t-101.5 -58t-131.5 -4.5v68q181 -15 181 100q0 113 -158 92l-33 43l70 105q-143 9 -269 67t-218 154.5t-145.5 232t-53.5 291.5
q0 162 57.5 302t155.5 237.5t232.5 153t285.5 55.5q68 0 135 -12t141 -40t146 -81.5t131 -129.5l-72 -57q-50 66 -113 112.5t-127.5 69.5t-121.5 33t-115 10q-131 0 -248 -47.5t-203.5 -132t-137 -207.5t-50.5 -266q0 -190 86.5 -340.5t231.5 -231.5t321 -81z" />
    <glyph glyph-name="Egrave" unicode="&#xc8;" horiz-adv-x="1003" 
d="M592 1589h-92l-129 316h96zM231 92h668v-92h-764v1454h746v-92h-650v-586h557v-92h-557v-592z" />
    <glyph glyph-name="Eacute" unicode="&#xc9;" horiz-adv-x="1003" 
d="M741 1905l-129 -316h-92l125 316h96zM231 92h668v-92h-764v1454h746v-92h-650v-586h557v-92h-557v-592z" />
    <glyph glyph-name="Ecircumflex" unicode="&#xca;" horiz-adv-x="1003" 
d="M551 1823l-184 -217l-60 53l209 246h70l209 -246l-60 -53zM231 92h668v-92h-764v1454h746v-92h-650v-586h557v-92h-557v-592z" />
    <glyph glyph-name="Edieresis" unicode="&#xcb;" horiz-adv-x="1003" 
d="M403 1843v-100h-94v100h94zM793 1843v-100h-97v100h97zM231 92h668v-92h-764v1454h746v-92h-650v-586h557v-92h-557v-592z" />
    <glyph glyph-name="Igrave" unicode="&#xcc;" horiz-adv-x="364" 
d="M223 1589h-92l-129 316h96zM135 0v1454h96v-1454h-96z" />
    <glyph glyph-name="Iacute" unicode="&#xcd;" horiz-adv-x="364" 
d="M152 1589l124 316h97l-129 -316h-92zM135 0v1454h96v-1454h-96z" />
    <glyph glyph-name="Icircumflex" unicode="&#xce;" horiz-adv-x="364" 
d="M-2 1606l-59 53l208 246h70l209 -246l-59 -53l-185 217zM135 0v1454h96v-1454h-96z" />
    <glyph glyph-name="Idieresis" unicode="&#xcf;" horiz-adv-x="364" 
d="M-59 1743v100h94v-100h-94zM328 1743v100h96v-100h-96zM135 0v1454h96v-1454h-96z" />
    <glyph glyph-name="Eth" unicode="&#xd0;" horiz-adv-x="1331" 
d="M514 1454q334 0 528.5 -198.5t194.5 -528.5t-194.5 -528.5t-528.5 -198.5h-369v680h-129v76h129v698h369zM510 92q297 0 463 171.5t166 463.5t-166 463.5t-463 171.5h-268v-606h409v-76h-409v-588h268z" />
    <glyph glyph-name="Ntilde" unicode="&#xd1;" horiz-adv-x="1400" 
d="M838 1642q-45 0 -82.5 22t-60 48t-55 48t-67.5 22q-44 0 -68 -28.5t-24 -70.5h-82q0 87 48.5 133t121.5 46q45 0 82.5 -22t60 -48t55 -48t67.5 -22q44 0 68 29t24 72h82q0 -89 -48.5 -135t-121.5 -46zM135 0v1454h101l925 -1288h10v1288h97v-1454h-101l-925 1288h-11
v-1288h-96z" />
    <glyph glyph-name="Ograve" unicode="&#xd2;" horiz-adv-x="1687" 
d="M887 1589h-92l-129 316h96zM844 -20q-143 0 -275.5 54.5t-233 150t-160.5 237t-60 305.5t60 305.5t160.5 237.5t233 150.5t275.5 54.5q144 0 276.5 -54.5t233.5 -150.5t161 -237.5t60 -305.5t-60 -305.5t-161 -237t-233.5 -150t-276.5 -54.5zM844 74q124 0 238.5 47
t202 130t140 207t52.5 269t-52.5 269t-140 207t-202 130t-238.5 47q-123 0 -237.5 -47t-202 -130t-140.5 -207t-53 -269t53 -269t140.5 -207t202 -130t237.5 -47z" />
    <glyph glyph-name="Oacute" unicode="&#xd3;" horiz-adv-x="1687" 
d="M813 1589l125 316h96l-129 -316h-92zM844 -20q-143 0 -275.5 54.5t-233 150t-160.5 237t-60 305.5t60 305.5t160.5 237.5t233 150.5t275.5 54.5q144 0 276.5 -54.5t233.5 -150.5t161 -237.5t60 -305.5t-60 -305.5t-161 -237t-233.5 -150t-276.5 -54.5zM844 74
q124 0 238.5 47t202 130t140 207t52.5 269t-52.5 269t-140 207t-202 130t-238.5 47q-123 0 -237.5 -47t-202 -130t-140.5 -207t-53 -269t53 -269t140.5 -207t202 -130t237.5 -47z" />
    <glyph glyph-name="Ocircumflex" unicode="&#xd4;" horiz-adv-x="1687" 
d="M659 1606l-59 53l209 246h70l208 -246l-59 -53l-184 217zM844 -20q-143 0 -275.5 54.5t-233 150t-160.5 237t-60 305.5t60 305.5t160.5 237.5t233 150.5t275.5 54.5q144 0 276.5 -54.5t233.5 -150.5t161 -237.5t60 -305.5t-60 -305.5t-161 -237t-233.5 -150t-276.5 -54.5
zM844 74q124 0 238.5 47t202 130t140 207t52.5 269t-52.5 269t-140 207t-202 130t-238.5 47q-123 0 -237.5 -47t-202 -130t-140.5 -207t-53 -269t53 -269t140.5 -207t202 -130t237.5 -47z" />
    <glyph glyph-name="Otilde" unicode="&#xd5;" horiz-adv-x="1687" 
d="M981 1642q-37 0 -68 14.5t-52.5 35t-42.5 41t-46.5 35t-54.5 14.5q-44 0 -68 -28.5t-24 -70.5h-82q0 87 48.5 133t121.5 46q37 0 68 -14.5t52.5 -35t42.5 -41t46.5 -35t54.5 -14.5q44 0 68 29t24 72h82q0 -89 -48.5 -135t-121.5 -46zM844 -20q-143 0 -275.5 54.5
t-233 150t-160.5 237t-60 305.5t60 305.5t160.5 237.5t233 150.5t275.5 54.5q144 0 276.5 -54.5t233.5 -150.5t161 -237.5t60 -305.5t-60 -305.5t-161 -237t-233.5 -150t-276.5 -54.5zM844 74q124 0 238.5 47t202 130t140 207t52.5 269t-52.5 269t-140 207t-202 130
t-238.5 47q-123 0 -237.5 -47t-202 -130t-140.5 -207t-53 -269t53 -269t140.5 -207t202 -130t237.5 -47z" />
    <glyph glyph-name="Odieresis" unicode="&#xd6;" horiz-adv-x="1687" 
d="M604 1743v100h94v-100h-94zM991 1743v100h96v-100h-96zM844 -20q-143 0 -275.5 54.5t-233 150t-160.5 237t-60 305.5t60 305.5t160.5 237.5t233 150.5t275.5 54.5q144 0 276.5 -54.5t233.5 -150.5t161 -237.5t60 -305.5t-60 -305.5t-161 -237t-233.5 -150t-276.5 -54.5z
M844 74q124 0 238.5 47t202 130t140 207t52.5 269t-52.5 269t-140 207t-202 130t-238.5 47q-123 0 -237.5 -47t-202 -130t-140.5 -207t-53 -269t53 -269t140.5 -207t202 -130t237.5 -47z" />
    <glyph glyph-name="multiply" unicode="&#xd7;" horiz-adv-x="722" 
d="M631 793l-213 -213l213 -215l-53 -54l-216 213l-215 -215l-55 56l215 215l-213 213l56 55l212 -213l213 213z" />
    <glyph glyph-name="Oslash" unicode="&#xd8;" horiz-adv-x="1687" 
d="M1214 1374q164 -96 262.5 -264.5t98.5 -382.5q0 -164 -60 -305.5t-161 -237t-233.5 -150t-276.5 -54.5q-139 0 -269 51l-63 -133h-109l84 174q-169 96 -270.5 267t-101.5 388q0 164 60 305.5t160.5 237.5t233 150.5t275.5 54.5q141 0 282 -56l52 107h108zM211 727
q0 -190 86.5 -338t230.5 -231l557 1175q-115 47 -241 47q-123 0 -237.5 -47t-202 -130t-140.5 -207t-53 -269zM844 74q124 0 238.5 47t202 130t140 207t52.5 269q0 186 -82 331t-221 230l-558 -1171q107 -43 228 -43z" />
    <glyph glyph-name="Ugrave" unicode="&#xd9;" horiz-adv-x="1267" 
d="M676 1589h-92l-129 316h96zM635 -20q-220 0 -360 139.5t-140 384.5v950h96v-948q0 -204 112 -318t292 -114q179 0 291 114t112 318v948h97v-950q0 -245 -140.5 -384.5t-359.5 -139.5z" />
    <glyph glyph-name="Uacute" unicode="&#xda;" horiz-adv-x="1267" 
d="M604 1589l125 316h96l-129 -316h-92zM635 -20q-220 0 -360 139.5t-140 384.5v950h96v-948q0 -204 112 -318t292 -114q179 0 291 114t112 318v948h97v-950q0 -245 -140.5 -384.5t-359.5 -139.5z" />
    <glyph glyph-name="Ucircumflex" unicode="&#xdb;" horiz-adv-x="1267" 
d="M451 1606l-60 53l209 246h70l209 -246l-60 -53l-184 217zM635 -20q-220 0 -360 139.5t-140 384.5v950h96v-948q0 -204 112 -318t292 -114q179 0 291 114t112 318v948h97v-950q0 -245 -140.5 -384.5t-359.5 -139.5z" />
    <glyph glyph-name="Udieresis" unicode="&#xdc;" horiz-adv-x="1267" 
d="M393 1743v100h94v-100h-94zM780 1743v100h97v-100h-97zM635 -20q-220 0 -360 139.5t-140 384.5v950h96v-948q0 -204 112 -318t292 -114q179 0 291 114t112 318v948h97v-950q0 -245 -140.5 -384.5t-359.5 -139.5z" />
    <glyph glyph-name="Yacute" unicode="&#xdd;" horiz-adv-x="1265" 
d="M602 1589l125 316h96l-129 -316h-92zM584 0v662l-510 792h110l449 -700l446 700h113l-512 -792v-662h-96z" />
    <glyph glyph-name="Thorn" unicode="&#xde;" horiz-adv-x="1206" 
d="M635 1157q231 0 354 -110.5t123 -315.5t-123 -315.5t-354 -110.5h-404v-305h-96v1454h96v-297h404zM623 393q200 0 296.5 84t96.5 254t-96.5 254t-296.5 84h-392v-676h392z" />
    <glyph glyph-name="germandbls" unicode="&#xdf;" horiz-adv-x="1196" 
d="M135 0v1069q0 167 112 266t331 99q208 0 330 -92t122 -259q0 -107 -54 -185t-169 -112q155 -37 225 -129.5t70 -242.5q0 -202 -126.5 -308t-373.5 -106h-209v88h199q416 0 416 326q0 327 -435 327h-180v84h180q179 0 271 59.5t92 192.5q0 134 -94.5 202.5t-263.5 68.5
q-349 0 -349 -285v-1063h-94z" />
    <glyph glyph-name="agrave" unicode="&#xe0;" 
d="M668 1200h-93l-129 316h97zM614 -20q-103 0 -197 36.5t-169 104t-119.5 174.5t-44.5 237q0 105 29 195.5t79.5 155t118 111t144.5 69t159 22.5q150 0 271 -73.5t174 -192.5h6v246h94v-1065h-94v246h-6q-53 -119 -174 -192.5t-271 -73.5zM623 68q84 0 162 29.5t141.5 85
t102 146.5t38.5 203t-38.5 203t-102 147t-141.5 85.5t-162 29.5t-162 -29.5t-141.5 -85t-101.5 -146.5t-38 -204q0 -91 25 -168t68 -131t99.5 -91.5t120 -55.5t130.5 -18z" />
    <glyph glyph-name="aacute" unicode="&#xe1;" 
d="M596 1200l125 316h96l-129 -316h-92zM614 -20q-103 0 -197 36.5t-169 104t-119.5 174.5t-44.5 237q0 105 29 195.5t79.5 155t118 111t144.5 69t159 22.5q150 0 271 -73.5t174 -192.5h6v246h94v-1065h-94v246h-6q-53 -119 -174 -192.5t-271 -73.5zM623 68q84 0 162 29.5
t141.5 85t102 146.5t38.5 203t-38.5 203t-102 147t-141.5 85.5t-162 29.5t-162 -29.5t-141.5 -85t-101.5 -146.5t-38 -204q0 -91 25 -168t68 -131t99.5 -91.5t120 -55.5t130.5 -18z" />
    <glyph glyph-name="acircumflex" unicode="&#xe2;" 
d="M442 1217l-59 53l209 246h70l208 -246l-59 -53l-184 217zM614 -20q-103 0 -197 36.5t-169 104t-119.5 174.5t-44.5 237q0 105 29 195.5t79.5 155t118 111t144.5 69t159 22.5q150 0 271 -73.5t174 -192.5h6v246h94v-1065h-94v246h-6q-53 -119 -174 -192.5t-271 -73.5z
M623 68q84 0 162 29.5t141.5 85t102 146.5t38.5 203t-38.5 203t-102 147t-141.5 85.5t-162 29.5t-162 -29.5t-141.5 -85t-101.5 -146.5t-38 -204q0 -91 25 -168t68 -131t99.5 -91.5t120 -55.5t130.5 -18z" />
    <glyph glyph-name="atilde" unicode="&#xe3;" 
d="M764 1253q-37 0 -68 14.5t-52.5 35t-42.5 41t-46.5 35t-54.5 14.5q-44 0 -68 -28.5t-24 -70.5h-82q0 87 48.5 133t121.5 46q37 0 68 -14.5t52.5 -35t42.5 -41t46.5 -35t54.5 -14.5q44 0 68 29t24 72h82q0 -89 -48.5 -135t-121.5 -46zM614 -20q-103 0 -197 36.5t-169 104
t-119.5 174.5t-44.5 237q0 105 29 195.5t79.5 155t118 111t144.5 69t159 22.5q150 0 271 -73.5t174 -192.5h6v246h94v-1065h-94v246h-6q-53 -119 -174 -192.5t-271 -73.5zM623 68q84 0 162 29.5t141.5 85t102 146.5t38.5 203t-38.5 203t-102 147t-141.5 85.5t-162 29.5
t-162 -29.5t-141.5 -85t-101.5 -146.5t-38 -204q0 -91 25 -168t68 -131t99.5 -91.5t120 -55.5t130.5 -18z" />
    <glyph glyph-name="adieresis" unicode="&#xe4;" 
d="M385 1354v100h94v-100h-94zM772 1354v100h96v-100h-96zM614 -20q-103 0 -197 36.5t-169 104t-119.5 174.5t-44.5 237q0 105 29 195.5t79.5 155t118 111t144.5 69t159 22.5q150 0 271 -73.5t174 -192.5h6v246h94v-1065h-94v246h-6q-53 -119 -174 -192.5t-271 -73.5z
M623 68q84 0 162 29.5t141.5 85t102 146.5t38.5 203t-38.5 203t-102 147t-141.5 85.5t-162 29.5t-162 -29.5t-141.5 -85t-101.5 -146.5t-38 -204q0 -91 25 -168t68 -131t99.5 -91.5t120 -55.5t130.5 -18z" />
    <glyph glyph-name="aring" unicode="&#xe5;" 
d="M629 1233q-69 0 -116.5 46.5t-47.5 113.5q0 66 47.5 111.5t116.5 45.5q65 0 112 -46t47 -111q0 -67 -47 -113.5t-112 -46.5zM627 1305q37 0 61.5 25.5t24.5 62.5q0 36 -25 61t-61 25q-37 0 -62.5 -25.5t-25.5 -60.5q0 -37 25.5 -62.5t62.5 -25.5zM614 -20
q-103 0 -197 36.5t-169 104t-119.5 174.5t-44.5 237q0 105 29 195.5t79.5 155t118 111t144.5 69t159 22.5q150 0 271 -73.5t174 -192.5h6v246h94v-1065h-94v246h-6q-53 -119 -174 -192.5t-271 -73.5zM623 68q84 0 162 29.5t141.5 85t102 146.5t38.5 203t-38.5 203t-102 147
t-141.5 85.5t-162 29.5t-162 -29.5t-141.5 -85t-101.5 -146.5t-38 -204q0 -91 25 -168t68 -131t99.5 -91.5t120 -55.5t130.5 -18z" />
    <glyph glyph-name="ae" unicode="&#xe6;" horiz-adv-x="2181" 
d="M1591 1085q103 0 197.5 -38t168 -108.5t112.5 -184.5t28 -254h-938q8 -136 73.5 -235.5t165 -148t218.5 -48.5q107 0 199.5 40t150.5 113l55 -55q-72 -89 -182 -137.5t-233 -48.5q-136 0 -254.5 59t-192.5 168v-207h-94v246h-6q-53 -119 -174 -192.5t-271 -73.5
q-103 0 -197 36.5t-169 104t-119.5 174.5t-44.5 237q0 105 29 195.5t79.5 155t118 111t144.5 69t159 22.5q150 0 271 -73.5t174 -192.5h6v246h94v-205q72 108 187.5 166.5t244.5 58.5zM623 68q84 0 162 29.5t141.5 85t102 146.5t38.5 203t-38.5 203t-102 147t-141.5 85.5
t-162 29.5t-162 -29.5t-141.5 -85t-101.5 -146.5t-38 -204q0 -91 25 -168t68 -131t99.5 -91.5t120 -55.5t130.5 -18zM1591 997q-108 0 -201 -46t-156.5 -142.5t-72.5 -228.5h852q-4 128 -64.5 225t-154 144.5t-203.5 47.5z" />
    <glyph glyph-name="ccedilla" unicode="&#xe7;" horiz-adv-x="1163" 
d="M631 68q116 0 216.5 56.5t156.5 158.5l75 -41q-61 -118 -172.5 -185t-244.5 -75l-50 -74q72 2 122 -42.5t50 -119.5q0 -66 -40 -109.5t-101 -58t-131 -4.5v68q180 -15 180 100q0 113 -157 92l-33 43l69 105q-96 10 -182.5 51t-155 108.5t-109 168.5t-40.5 220
q0 129 46.5 236t123.5 175.5t173.5 106t199.5 37.5q142 0 264 -68t188 -194l-75 -41q-56 102 -156.5 158.5t-216.5 56.5q-85 0 -165 -31t-144 -88t-103 -147.5t-39 -200.5q0 -108 39 -197.5t103 -146t144 -87.5t165 -31z" />
    <glyph glyph-name="egrave" unicode="&#xe8;" horiz-adv-x="1196" 
d="M633 1200h-92l-129 316h96zM606 1085q103 0 197.5 -38t168 -108.5t112.5 -184.5t28 -254h-938q8 -136 73.5 -235.5t165 -148t218.5 -48.5q108 0 200 40t150 113l55 -55q-72 -89 -182 -137.5t-233 -48.5q-106 0 -202.5 37t-171.5 105.5t-119 175.5t-44 237q0 129 44 235.5
t117.5 174t166.5 104t194 36.5zM606 997q-108 0 -201 -46t-156.5 -142.5t-72.5 -228.5h852q-4 128 -64.5 225t-154 144.5t-203.5 47.5z" />
    <glyph glyph-name="eacute" unicode="&#xe9;" horiz-adv-x="1196" 
d="M782 1516l-129 -316h-92l125 316h96zM606 1085q103 0 197.5 -38t168 -108.5t112.5 -184.5t28 -254h-938q8 -136 73.5 -235.5t165 -148t218.5 -48.5q108 0 200 40t150 113l55 -55q-72 -89 -182 -137.5t-233 -48.5q-106 0 -202.5 37t-171.5 105.5t-119 175.5t-44 237
q0 129 44 235.5t117.5 174t166.5 104t194 36.5zM606 997q-108 0 -201 -46t-156.5 -142.5t-72.5 -228.5h852q-4 128 -64.5 225t-154 144.5t-203.5 47.5z" />
    <glyph glyph-name="ecircumflex" unicode="&#xea;" horiz-adv-x="1196" 
d="M592 1434l-184 -217l-60 53l209 246h70l209 -246l-60 -53zM606 1085q103 0 197.5 -38t168 -108.5t112.5 -184.5t28 -254h-938q8 -136 73.5 -235.5t165 -148t218.5 -48.5q108 0 200 40t150 113l55 -55q-72 -89 -182 -137.5t-233 -48.5q-106 0 -202.5 37t-171.5 105.5
t-119 175.5t-44 237q0 129 44 235.5t117.5 174t166.5 104t194 36.5zM606 997q-108 0 -201 -46t-156.5 -142.5t-72.5 -228.5h852q-4 128 -64.5 225t-154 144.5t-203.5 47.5z" />
    <glyph glyph-name="edieresis" unicode="&#xeb;" horiz-adv-x="1196" 
d="M444 1454v-100h-94v100h94zM834 1454v-100h-97v100h97zM606 1085q103 0 197.5 -38t168 -108.5t112.5 -184.5t28 -254h-938q8 -136 73.5 -235.5t165 -148t218.5 -48.5q108 0 200 40t150 113l55 -55q-72 -89 -182 -137.5t-233 -48.5q-106 0 -202.5 37t-171.5 105.5
t-119 175.5t-44 237q0 129 44 235.5t117.5 174t166.5 104t194 36.5zM606 997q-108 0 -201 -46t-156.5 -142.5t-72.5 -228.5h852q-4 128 -64.5 225t-154 144.5t-203.5 47.5z" />
    <glyph glyph-name="igrave" unicode="&#xec;" horiz-adv-x="362" 
d="M223 1200h-92l-129 316h96zM135 0v1065h94v-1065h-94z" />
    <glyph glyph-name="iacute" unicode="&#xed;" horiz-adv-x="362" 
d="M152 1200l124 316h97l-129 -316h-92zM135 0v1065h94v-1065h-94z" />
    <glyph glyph-name="icircumflex" unicode="&#xee;" horiz-adv-x="362" 
d="M-2 1217l-59 53l208 246h70l209 -246l-59 -53l-185 217zM135 0v1065h94v-1065h-94z" />
    <glyph glyph-name="idieresis" unicode="&#xef;" horiz-adv-x="362" 
d="M-59 1354v100h94v-100h-94zM328 1354v100h96v-100h-96zM135 0v1065h94v-1065h-94z" />
    <glyph glyph-name="eth" unicode="&#xf0;" horiz-adv-x="1216" 
d="M793 1204q142 -184 215 -343t73 -345q0 -126 -40 -229t-109.5 -169.5t-162 -102t-198.5 -35.5q-98 0 -185.5 35.5t-155 102t-107 169.5t-39.5 229q0 259 130.5 404t356.5 145q102 0 171.5 -23.5t121.5 -80.5l-174 229l-215 -29v62l172 24l-141 187h108l136 -174l174 24
v-61zM571 68q83 0 156.5 27.5t131.5 81.5t92 141t34 198q0 235 -108 348t-306 113q-186 0 -288.5 -113.5t-102.5 -347.5q0 -110 33 -198t89 -141t124.5 -81t144.5 -28z" />
    <glyph glyph-name="ntilde" unicode="&#xf1;" horiz-adv-x="1165" 
d="M473 1393q-44 0 -68 -28.5t-24 -70.5h-82q0 87 48.5 133t121.5 46q37 0 68 -14.5t52.5 -35t42.5 -41t46.5 -35t54.5 -14.5q44 0 68 29t24 72h82q0 -89 -48.5 -135t-121.5 -46q-37 0 -68 14.5t-52.5 35t-42.5 41t-46.5 35t-54.5 14.5zM606 1085q88 0 163.5 -27.5t135 -82
t93.5 -144t34 -204.5v-627h-94v618q0 186 -98 282.5t-252 96.5q-155 0 -257 -97t-102 -282v-618h-94v1065h94v-195q44 90 139.5 152.5t237.5 62.5z" />
    <glyph glyph-name="ograve" unicode="&#xf2;" horiz-adv-x="1259" 
d="M672 1200h-92l-129 316h96zM629 -20q-104 0 -201 37t-174 105.5t-123.5 175t-46.5 234.5t46.5 235t123.5 175t174 105.5t201 37.5q83 0 162 -23t149 -70t122.5 -112t83 -155t30.5 -193t-30.5 -193t-83 -155t-122.5 -111.5t-149 -69.5t-162 -23zM629 68q86 0 166 31
t144 87.5t102 146.5t38 199t-38 199t-102 147t-144 88t-166 31t-166 -31t-143.5 -88t-101.5 -147t-38 -199t38 -199t101.5 -146.5t143.5 -87.5t166 -31z" />
    <glyph glyph-name="oacute" unicode="&#xf3;" horiz-adv-x="1259" 
d="M598 1200l125 316h96l-129 -316h-92zM629 -20q-104 0 -201 37t-174 105.5t-123.5 175t-46.5 234.5t46.5 235t123.5 175t174 105.5t201 37.5q83 0 162 -23t149 -70t122.5 -112t83 -155t30.5 -193t-30.5 -193t-83 -155t-122.5 -111.5t-149 -69.5t-162 -23zM629 68
q86 0 166 31t144 87.5t102 146.5t38 199t-38 199t-102 147t-144 88t-166 31t-166 -31t-143.5 -88t-101.5 -147t-38 -199t38 -199t101.5 -146.5t143.5 -87.5t166 -31z" />
    <glyph glyph-name="ocircumflex" unicode="&#xf4;" horiz-adv-x="1259" 
d="M444 1217l-59 53l209 246h70l208 -246l-59 -53l-184 217zM629 -20q-104 0 -201 37t-174 105.5t-123.5 175t-46.5 234.5t46.5 235t123.5 175t174 105.5t201 37.5q83 0 162 -23t149 -70t122.5 -112t83 -155t30.5 -193t-30.5 -193t-83 -155t-122.5 -111.5t-149 -69.5
t-162 -23zM629 68q86 0 166 31t144 87.5t102 146.5t38 199t-38 199t-102 147t-144 88t-166 31t-166 -31t-143.5 -88t-101.5 -147t-38 -199t38 -199t101.5 -146.5t143.5 -87.5t166 -31z" />
    <glyph glyph-name="otilde" unicode="&#xf5;" horiz-adv-x="1259" 
d="M766 1253q-37 0 -68 14.5t-52.5 35t-42.5 41t-46.5 35t-54.5 14.5q-44 0 -68 -28.5t-24 -70.5h-82q0 87 48.5 133t121.5 46q37 0 68 -14.5t52.5 -35t42.5 -41t46.5 -35t54.5 -14.5q44 0 68 29t24 72h82q0 -89 -48.5 -135t-121.5 -46zM629 -20q-104 0 -201 37t-174 105.5
t-123.5 175t-46.5 234.5t46.5 235t123.5 175t174 105.5t201 37.5q83 0 162 -23t149 -70t122.5 -112t83 -155t30.5 -193t-30.5 -193t-83 -155t-122.5 -111.5t-149 -69.5t-162 -23zM629 68q86 0 166 31t144 87.5t102 146.5t38 199t-38 199t-102 147t-144 88t-166 31t-166 -31
t-143.5 -88t-101.5 -147t-38 -199t38 -199t101.5 -146.5t143.5 -87.5t166 -31z" />
    <glyph glyph-name="odieresis" unicode="&#xf6;" horiz-adv-x="1259" 
d="M389 1354v100h94v-100h-94zM776 1354v100h96v-100h-96zM629 -20q-104 0 -201 37t-174 105.5t-123.5 175t-46.5 234.5t46.5 235t123.5 175t174 105.5t201 37.5q83 0 162 -23t149 -70t122.5 -112t83 -155t30.5 -193t-30.5 -193t-83 -155t-122.5 -111.5t-149 -69.5t-162 -23
zM629 68q86 0 166 31t144 87.5t102 146.5t38 199t-38 199t-102 147t-144 88t-166 31t-166 -31t-143.5 -88t-101.5 -147t-38 -199t38 -199t101.5 -146.5t143.5 -87.5t166 -31z" />
    <glyph glyph-name="divide" unicode="&#xf7;" horiz-adv-x="862" 
d="M418 762q-28 0 -45 17.5t-17 43.5t17 45t45 19t45.5 -19t17.5 -45t-17.5 -43.5t-45.5 -17.5zM92 541v75h680v-75h-680zM418 270q-28 0 -45 18t-17 44t17 44.5t45 18.5t45.5 -18.5t17.5 -44.5t-17.5 -44t-45.5 -18z" />
    <glyph glyph-name="oslash" unicode="&#xf8;" horiz-adv-x="1259" 
d="M903 1014q124 -68 198.5 -191.5t74.5 -290.5q0 -103 -30.5 -193t-83 -155t-122.5 -111.5t-149 -69.5t-162 -23q-112 0 -203 36l-57 -118h-93l74 155q-121 68 -193.5 191t-72.5 288q0 128 46.5 235t123.5 175t174 105.5t201 37.5q105 0 200 -36l64 135h92zM180 532
q0 -137 56.5 -239t152.5 -160l402 836q-79 28 -162 28q-86 0 -166 -31t-143.5 -88t-101.5 -147t-38 -199zM629 68q86 0 166 31t144 87.5t102 146.5t38 199q0 137 -58.5 240.5t-156.5 161.5l-399 -836q77 -30 164 -30z" />
    <glyph glyph-name="ugrave" unicode="&#xf9;" horiz-adv-x="1165" 
d="M639 1200h-92l-129 316h96zM938 1065h94v-1065h-94v199q-44 -91 -140 -155t-239 -64q-87 0 -162.5 27.5t-134.5 82t-93 144t-34 204.5v627h94v-619q0 -186 98.5 -282t252.5 -96q73 0 136.5 23t113.5 68t79 119t29 168v619z" />
    <glyph glyph-name="uacute" unicode="&#xfa;" horiz-adv-x="1165" 
d="M788 1516l-129 -316h-92l125 316h96zM938 1065h94v-1065h-94v199q-44 -91 -140 -155t-239 -64q-87 0 -162.5 27.5t-134.5 82t-93 144t-34 204.5v627h94v-619q0 -186 98.5 -282t252.5 -96q73 0 136.5 23t113.5 68t79 119t29 168v619z" />
    <glyph glyph-name="ucircumflex" unicode="&#xfb;" horiz-adv-x="1165" 
d="M598 1434l-184 -217l-60 53l209 246h70l209 -246l-60 -53zM938 1065h94v-1065h-94v199q-44 -91 -140 -155t-239 -64q-87 0 -162.5 27.5t-134.5 82t-93 144t-34 204.5v627h94v-619q0 -186 98.5 -282t252.5 -96q73 0 136.5 23t113.5 68t79 119t29 168v619z" />
    <glyph glyph-name="udieresis" unicode="&#xfc;" horiz-adv-x="1165" 
d="M451 1454v-100h-95v100h95zM840 1454v-100h-97v100h97zM938 1065h94v-1065h-94v199q-44 -91 -140 -155t-239 -64q-87 0 -162.5 27.5t-134.5 82t-93 144t-34 204.5v627h94v-619q0 -186 98.5 -282t252.5 -96q73 0 136.5 23t113.5 68t79 119t29 168v619z" />
    <glyph glyph-name="yacute" unicode="&#xfd;" horiz-adv-x="1124" 
d="M750 1516l-129 -316h-93l125 316h97zM961 1065h100l-457 -1065l-172 -389h-94l178 399l-453 1055h101l397 -938z" />
    <glyph glyph-name="thorn" unicode="&#xfe;" 
d="M678 1085q103 0 197.5 -36.5t169.5 -104t120 -175t45 -237.5t-45 -237t-120 -174.5t-169.5 -104t-197.5 -36.5q-150 0 -270 73.5t-172 192.5h-7v-635h-94v1843h94v-635h7q52 119 172 192.5t270 73.5zM670 68q84 0 161.5 29t141 84.5t101.5 146.5t38 204t-38 204
t-101.5 146.5t-141 85t-161.5 29.5t-162 -29.5t-142 -85.5t-102.5 -147t-38.5 -203t38.5 -203t102.5 -146.5t142 -85t162 -29.5z" />
    <glyph glyph-name="ydieresis" unicode="&#xff;" horiz-adv-x="1124" 
d="M412 1454v-100h-95v100h95zM801 1454v-100h-96v100h96zM961 1065h100l-457 -1065l-172 -389h-94l178 399l-453 1055h101l397 -938z" />
    <glyph glyph-name="Amacron" unicode="&#x100;" horiz-adv-x="1370" 
d="M1055 1802v-80h-738v80h738zM1212 0l-155 391h-746l-155 -391h-103l588 1454h88l588 -1454h-105zM348 483h672l-336 838z" />
    <glyph glyph-name="amacron" unicode="&#x101;" 
d="M258 1354v80h737v-80h-737zM614 -20q-103 0 -197 36.5t-169 104t-119.5 174.5t-44.5 237q0 105 29 195.5t79.5 155t118 111t144.5 69t159 22.5q150 0 271 -73.5t174 -192.5h6v246h94v-1065h-94v246h-6q-53 -119 -174 -192.5t-271 -73.5zM623 68q84 0 162 29.5t141.5 85
t102 146.5t38.5 203t-38.5 203t-102 147t-141.5 85.5t-162 29.5t-162 -29.5t-141.5 -85t-101.5 -146.5t-38 -204q0 -91 25 -168t68 -131t99.5 -91.5t120 -55.5t130.5 -18z" />
    <glyph glyph-name="Abreve" unicode="&#x102;" horiz-adv-x="1370" 
d="M684 1612q-136 0 -206 80.5t-68 191.5h90q2 -78 47 -132t137 -54q94 0 138 53.5t46 132.5h93q1 -52 -15 -99t-48.5 -86.5t-87.5 -63t-126 -23.5zM1212 0l-155 391h-746l-155 -391h-103l588 1454h88l588 -1454h-105zM348 483h672l-336 838z" />
    <glyph glyph-name="abreve" unicode="&#x103;" 
d="M627 1243q-136 0 -206.5 81t-68.5 192h90q2 -78 47.5 -132.5t137.5 -54.5q94 0 138 54t46 133h92q1 -52 -15 -99t-48 -87t-87 -63.5t-126 -23.5zM614 -20q-103 0 -197 36.5t-169 104t-119.5 174.5t-44.5 237q0 105 29 195.5t79.5 155t118 111t144.5 69t159 22.5
q150 0 271 -73.5t174 -192.5h6v246h94v-1065h-94v246h-6q-53 -119 -174 -192.5t-271 -73.5zM623 68q84 0 162 29.5t141.5 85t102 146.5t38.5 203t-38.5 203t-102 147t-141.5 85.5t-162 29.5t-162 -29.5t-141.5 -85t-101.5 -146.5t-38 -204q0 -91 25 -168t68 -131t99.5 -91.5
t120 -55.5t130.5 -18z" />
    <glyph glyph-name="Aogonek" unicode="&#x104;" horiz-adv-x="1370" 
d="M1063 -223q0 -69 50.5 -104t117.5 -17v-62q-28 -14 -63 -16.5t-70.5 7t-65.5 29.5t-48.5 56t-18.5 82q0 91 66.5 157.5t174.5 104.5l-149 377h-746l-155 -391h-103l588 1454h88l588 -1454q-134 -31 -194 -93t-60 -130zM348 483h672l-336 838z" />
    <glyph glyph-name="aogonek" unicode="&#x105;" 
d="M1065 1065h94v-1065h-2q-134 -31 -194 -93t-60 -130q0 -69 50.5 -104t117.5 -17v-62q-28 -14 -63 -16.5t-70.5 7t-65.5 29.5t-48.5 56t-18.5 82q0 93 72.5 161.5t187.5 104.5v228h-6q-53 -119 -174 -192.5t-271 -73.5q-103 0 -197 36.5t-169 104t-119.5 174.5t-44.5 237
q0 105 29 195.5t79.5 155t118 111t144.5 69t159 22.5q150 0 271 -73.5t174 -192.5h6v246zM623 68q84 0 162 29.5t141.5 85t102 146.5t38.5 203t-38.5 203t-102 147t-141.5 85.5t-162 29.5t-162 -29.5t-141.5 -85t-101.5 -146.5t-38 -204q0 -91 25 -168t68 -131t99.5 -91.5
t120 -55.5t130.5 -18z" />
    <glyph glyph-name="Cacute" unicode="&#x106;" horiz-adv-x="1490" 
d="M762 1589l125 316h96l-129 -316h-92zM848 -20q-202 0 -369 94t-265.5 266t-98.5 387q0 162 57.5 302t155.5 237.5t232.5 153t285.5 55.5q68 0 135 -12t141 -40t146 -81.5t131 -129.5l-72 -57q-50 66 -113 112.5t-127.5 69.5t-121.5 33t-115 10q-131 0 -248 -47.5
t-203.5 -132t-137 -207.5t-50.5 -266q0 -190 86.5 -340.5t231.5 -231.5t321 -81q58 0 115 10t121.5 33t127.5 69.5t113 112.5l72 -57q-59 -76 -130.5 -129.5t-145.5 -81t-140.5 -39.5t-134.5 -12z" />
    <glyph glyph-name="cacute" unicode="&#x107;" horiz-adv-x="1163" 
d="M584 1200l125 316h96l-129 -316h-92zM627 -20q-103 0 -199.5 37t-173.5 105t-123.5 174t-46.5 234q0 129 46.5 236t123.5 175.5t173.5 106t199.5 37.5q142 0 264 -68t188 -194l-75 -41q-56 102 -156.5 158.5t-216.5 56.5q-85 0 -165 -31t-144 -88t-103 -147.5t-39 -200.5
q0 -108 39 -197.5t103 -146t144 -87.5t165 -31q116 0 216.5 56.5t156.5 158.5l75 -41q-66 -126 -188 -194t-264 -68z" />
    <glyph glyph-name="Cdotaccent" unicode="&#x10a;" horiz-adv-x="1490" 
d="M743 1743v100h95v-100h-95zM848 -20q-202 0 -369 94t-265.5 266t-98.5 387q0 162 57.5 302t155.5 237.5t232.5 153t285.5 55.5q68 0 135 -12t141 -40t146 -81.5t131 -129.5l-72 -57q-50 66 -113 112.5t-127.5 69.5t-121.5 33t-115 10q-131 0 -248 -47.5t-203.5 -132
t-137 -207.5t-50.5 -266q0 -190 86.5 -340.5t231.5 -231.5t321 -81q58 0 115 10t121.5 33t127.5 69.5t113 112.5l72 -57q-59 -76 -130.5 -129.5t-145.5 -81t-140.5 -39.5t-134.5 -12z" />
    <glyph glyph-name="cdotaccent" unicode="&#x10b;" horiz-adv-x="1163" 
d="M565 1354v100h94v-100h-94zM627 -20q-103 0 -199.5 37t-173.5 105t-123.5 174t-46.5 234q0 129 46.5 236t123.5 175.5t173.5 106t199.5 37.5q142 0 264 -68t188 -194l-75 -41q-56 102 -156.5 158.5t-216.5 56.5q-85 0 -165 -31t-144 -88t-103 -147.5t-39 -200.5
q0 -108 39 -197.5t103 -146t144 -87.5t165 -31q116 0 216.5 56.5t156.5 158.5l75 -41q-66 -126 -188 -194t-264 -68z" />
    <glyph glyph-name="Ccaron" unicode="&#x10c;" horiz-adv-x="1490" 
d="M608 1907l185 -217l184 217l59 -54l-209 -245h-69l-209 245zM848 -20q-202 0 -369 94t-265.5 266t-98.5 387q0 162 57.5 302t155.5 237.5t232.5 153t285.5 55.5q68 0 135 -12t141 -40t146 -81.5t131 -129.5l-72 -57q-50 66 -113 112.5t-127.5 69.5t-121.5 33t-115 10
q-131 0 -248 -47.5t-203.5 -132t-137 -207.5t-50.5 -266q0 -190 86.5 -340.5t231.5 -231.5t321 -81q58 0 115 10t121.5 33t127.5 69.5t113 112.5l72 -57q-59 -76 -130.5 -129.5t-145.5 -81t-140.5 -39.5t-134.5 -12z" />
    <glyph glyph-name="ccaron" unicode="&#x10d;" horiz-adv-x="1163" 
d="M430 1518l184 -218l185 218l59 -54l-209 -245h-69l-209 245zM627 -20q-103 0 -199.5 37t-173.5 105t-123.5 174t-46.5 234q0 129 46.5 236t123.5 175.5t173.5 106t199.5 37.5q142 0 264 -68t188 -194l-75 -41q-56 102 -156.5 158.5t-216.5 56.5q-85 0 -165 -31t-144 -88
t-103 -147.5t-39 -200.5q0 -108 39 -197.5t103 -146t144 -87.5t165 -31q116 0 216.5 56.5t156.5 158.5l75 -41q-66 -126 -188 -194t-264 -68z" />
    <glyph glyph-name="Dcaron" unicode="&#x10e;" horiz-adv-x="1318" 
d="M487 1907l185 -217l184 217l59 -54l-208 -245h-70l-209 245zM135 0v1454h367q335 0 529 -198.5t194 -528.5t-194 -528.5t-529 -198.5h-367zM231 92h267q297 0 462.5 171t165.5 464t-165.5 464t-462.5 171h-267v-1270z" />
    <glyph glyph-name="dcaron" unicode="&#x10f;" horiz-adv-x="1247" 
d="M1343 1470h97l-129 -315h-92zM1065 1454h94v-1454h-94v246h-6q-53 -119 -174 -192.5t-271 -73.5q-103 0 -197 36.5t-169 104t-119.5 174.5t-44.5 237q0 105 29 195.5t79.5 155t118 111t144.5 69t159 22.5q150 0 271 -73.5t174 -192.5h6v635zM623 68q84 0 162 29.5
t141.5 85t102 146.5t38.5 203t-38.5 203t-102 147t-141.5 85.5t-162 29.5t-162 -29.5t-141.5 -85t-101.5 -146.5t-38 -204q0 -91 25 -168t68 -131t99.5 -91.5t120 -55.5t130.5 -18z" />
    <glyph glyph-name="Dcroat" unicode="&#x110;" horiz-adv-x="1331" 
d="M514 1454q334 0 528.5 -198.5t194.5 -528.5t-194.5 -528.5t-528.5 -198.5h-369v680h-129v76h129v698h369zM510 92q297 0 463 171.5t166 463.5t-166 463.5t-463 171.5h-268v-606h409v-76h-409v-588h268z" />
    <glyph glyph-name="dcroat" unicode="&#x111;" horiz-adv-x="1267" 
d="M1233 1298v-75h-74v-1223h-94v246h-6q-53 -119 -174 -192.5t-271 -73.5q-103 0 -197 36.5t-169 104t-119.5 174.5t-44.5 237q0 105 29 195.5t79.5 155t118 111t144.5 69t159 22.5q150 0 271 -73.5t174 -192.5h6v404h-465v75h465v156h94v-156h74zM623 68q84 0 162 29.5
t141.5 85t102 146.5t38.5 203t-38.5 203t-102 147t-141.5 85.5t-162 29.5t-162 -29.5t-141.5 -85t-101.5 -146.5t-38 -204q0 -91 25 -168t68 -131t99.5 -91.5t120 -55.5t130.5 -18z" />
    <glyph glyph-name="Emacron" unicode="&#x112;" horiz-adv-x="1003" 
d="M182 1823h738v-80h-738v80zM231 684v-592h668v-92h-764v1454h746v-92h-650v-586h557v-92h-557z" />
    <glyph glyph-name="emacron" unicode="&#x113;" horiz-adv-x="1196" 
d="M961 1434v-80h-738v80h738zM606 1085q103 0 197.5 -38t168 -108.5t112.5 -184.5t28 -254h-938q8 -136 73.5 -235.5t165 -148t218.5 -48.5q108 0 200 40t150 113l55 -55q-72 -89 -182 -137.5t-233 -48.5q-106 0 -202.5 37t-171.5 105.5t-119 175.5t-44 237q0 129 44 235.5
t117.5 174t166.5 104t194 36.5zM606 997q-108 0 -201 -46t-156.5 -142.5t-72.5 -228.5h852q-4 128 -64.5 225t-154 144.5t-203.5 47.5z" />
    <glyph glyph-name="Edotaccent" unicode="&#x116;" horiz-adv-x="1003" 
d="M596 1843v-100h-94v100h94zM231 92h668v-92h-764v1454h746v-92h-650v-586h557v-92h-557v-592z" />
    <glyph glyph-name="edotaccent" unicode="&#x117;" horiz-adv-x="1196" 
d="M637 1454v-100h-94v100h94zM606 1085q103 0 197.5 -38t168 -108.5t112.5 -184.5t28 -254h-938q8 -136 73.5 -235.5t165 -148t218.5 -48.5q108 0 200 40t150 113l55 -55q-72 -89 -182 -137.5t-233 -48.5q-106 0 -202.5 37t-171.5 105.5t-119 175.5t-44 237q0 129 44 235.5
t117.5 174t166.5 104t194 36.5zM606 997q-108 0 -201 -46t-156.5 -142.5t-72.5 -228.5h852q-4 128 -64.5 225t-154 144.5t-203.5 47.5z" />
    <glyph glyph-name="Eogonek" unicode="&#x118;" horiz-adv-x="1003" 
d="M899 0q-134 -31 -194 -93t-60 -130q0 -69 50.5 -104t117.5 -17v-62q-28 -14 -63 -16.5t-70.5 7t-65.5 29.5t-48.5 56t-18.5 82q0 82 56.5 145.5t150.5 102.5h-619v1454h746v-92h-650v-586h557v-92h-557v-592h668v-92z" />
    <glyph glyph-name="eogonek" unicode="&#x119;" horiz-adv-x="1196" 
d="M606 1085q103 0 197.5 -38t168 -108.5t112.5 -184.5t28 -254h-938q8 -136 73.5 -235.5t165 -148t218.5 -48.5q108 0 200 40t150 113l55 -55q-110 -134 -297 -174q-116 -34 -168.5 -92.5t-52.5 -122.5q0 -69 50.5 -104t117.5 -17v-62q-28 -14 -63 -16.5t-70.5 7
t-65.5 29.5t-48.5 56t-18.5 82q0 72 45 130.5t121 97.5q-101 6 -191 45.5t-159.5 108t-110.5 172.5t-41 229q0 129 44 235.5t117.5 174t166.5 104t194 36.5zM606 997q-108 0 -201 -46t-156.5 -142.5t-72.5 -228.5h852q-4 128 -64.5 225t-154 144.5t-203.5 47.5z" />
    <glyph glyph-name="Ecaron" unicode="&#x11a;" horiz-adv-x="1003" 
d="M586 1608h-70l-209 245l60 54l184 -217l184 217l60 -54zM231 92h668v-92h-764v1454h746v-92h-650v-586h557v-92h-557v-592z" />
    <glyph glyph-name="ecaron" unicode="&#x11b;" horiz-adv-x="1196" 
d="M629 1219h-70l-209 245l60 54l184 -218l184 218l60 -54zM606 1085q103 0 197.5 -38t168 -108.5t112.5 -184.5t28 -254h-938q8 -136 73.5 -235.5t165 -148t218.5 -48.5q108 0 200 40t150 113l55 -55q-72 -89 -182 -137.5t-233 -48.5q-106 0 -202.5 37t-171.5 105.5
t-119 175.5t-44 237q0 129 44 235.5t117.5 174t166.5 104t194 36.5zM606 997q-108 0 -201 -46t-156.5 -142.5t-72.5 -228.5h852q-4 128 -64.5 225t-154 144.5t-203.5 47.5z" />
    <glyph glyph-name="Gbreve" unicode="&#x11e;" horiz-adv-x="1630" 
d="M854 1632q-136 0 -206 81t-68 192h90q2 -78 47 -132.5t137 -54.5q94 0 138 54t46 133h92q1 -52 -15 -99t-48 -87t-87 -63.5t-126 -23.5zM1516 709q6 -166 -45.5 -305t-144 -231t-217.5 -142.5t-267 -50.5q-148 0 -281 55.5t-231.5 152.5t-156.5 237.5t-58 301.5
q0 162 57.5 302t155.5 237.5t232.5 153t285.5 55.5q68 0 135 -12t141 -40t146 -81.5t131 -129.5l-72 -57q-50 66 -113 112.5t-128.5 69.5t-122.5 33t-115 10q-131 0 -248 -47.5t-203 -132t-136 -207.5t-50 -266q0 -142 51.5 -265.5t138.5 -208.5t203.5 -133t245.5 -48
q111 0 208.5 35t175.5 101.5t127.5 172.5t59.5 240h-463v88h558z" />
    <glyph glyph-name="gbreve" unicode="&#x11f;" 
d="M616 1243q-136 0 -206 81t-68 192h90q2 -79 46 -133t138 -54t138.5 54.5t46.5 132.5h90q2 -111 -68.5 -192t-206.5 -81zM1065 1065h94v-1022q0 -102 -30.5 -183.5t-81 -134t-119 -87.5t-141 -49.5t-150.5 -14.5q-106 0 -190 24t-123 54v88q114 -80 305 -80
q68 0 128.5 11.5t117.5 40.5t98.5 72.5t66.5 112.5t25 156v193h-8q-53 -119 -174 -192.5t-271 -73.5q-101 0 -195 36t-168.5 103.5t-119.5 174.5t-45 238t45 238.5t119.5 174.5t168.5 103.5t195 36.5q150 0 271 -73.5t174 -192.5h8v246zM621 68q67 0 130.5 18t121 56
t100.5 92t68.5 131t25.5 167q0 112 -38.5 203t-102.5 147t-142.5 85.5t-162.5 29.5q-83 0 -160.5 -29.5t-141 -85t-101.5 -146.5t-38 -204q0 -91 25 -168t67.5 -131t99.5 -91.5t120 -55.5t129 -18z" />
    <glyph glyph-name="Gdotaccent" unicode="&#x120;" horiz-adv-x="1630" 
d="M901 1843v-100h-94v100h94zM1516 709q6 -166 -45.5 -305t-144 -231t-217.5 -142.5t-267 -50.5q-148 0 -281 55.5t-231.5 152.5t-156.5 237.5t-58 301.5q0 162 57.5 302t155.5 237.5t232.5 153t285.5 55.5q68 0 135 -12t141 -40t146 -81.5t131 -129.5l-72 -57
q-50 66 -113 112.5t-128.5 69.5t-122.5 33t-115 10q-131 0 -248 -47.5t-203 -132t-136 -207.5t-50 -266q0 -142 51.5 -265.5t138.5 -208.5t203.5 -133t245.5 -48q111 0 208.5 35t175.5 101.5t127.5 172.5t59.5 240h-463v88h558z" />
    <glyph glyph-name="gdotaccent" unicode="&#x121;" 
d="M662 1454v-100h-95v100h95zM1065 1065h94v-1022q0 -102 -30.5 -183.5t-81 -134t-119 -87.5t-141 -49.5t-150.5 -14.5q-106 0 -190 24t-123 54v88q114 -80 305 -80q68 0 128.5 11.5t117.5 40.5t98.5 72.5t66.5 112.5t25 156v193h-8q-53 -119 -174 -192.5t-271 -73.5
q-101 0 -195 36t-168.5 103.5t-119.5 174.5t-45 238t45 238.5t119.5 174.5t168.5 103.5t195 36.5q150 0 271 -73.5t174 -192.5h8v246zM621 68q67 0 130.5 18t121 56t100.5 92t68.5 131t25.5 167q0 112 -38.5 203t-102.5 147t-142.5 85.5t-162.5 29.5q-83 0 -160.5 -29.5
t-141 -85t-101.5 -146.5t-38 -204q0 -91 25 -168t67.5 -131t99.5 -91.5t120 -55.5t129 -18z" />
    <glyph glyph-name="uni0122" unicode="&#x122;" horiz-adv-x="1630" 
d="M1516 709q6 -166 -45.5 -305t-144 -231t-217.5 -142.5t-267 -50.5q-148 0 -281 55.5t-231.5 152.5t-156.5 237.5t-58 301.5q0 162 57.5 302t155.5 237.5t232.5 153t285.5 55.5q68 0 135 -12t141 -40t146 -81.5t131 -129.5l-72 -57q-50 66 -113 112.5t-128.5 69.5
t-122.5 33t-115 10q-131 0 -248 -47.5t-203 -132t-136 -207.5t-50 -266q0 -142 51.5 -265.5t138.5 -208.5t203.5 -133t245.5 -48q111 0 208.5 35t175.5 101.5t127.5 172.5t59.5 240h-463v88h558zM641 -477l141 403h92l-143 -403h-90z" />
    <glyph glyph-name="uni0123" unicode="&#x123;" 
d="M770 1642l-143 -403h-88l141 403h90zM1065 1065h94v-1022q0 -102 -30.5 -183.5t-81 -134t-119 -87.5t-141 -49.5t-150.5 -14.5q-106 0 -190 24t-123 54v88q114 -80 305 -80q68 0 128.5 11.5t117.5 40.5t98.5 72.5t66.5 112.5t25 156v193h-8q-53 -119 -174 -192.5
t-271 -73.5q-101 0 -195 36t-168.5 103.5t-119.5 174.5t-45 238t45 238.5t119.5 174.5t168.5 103.5t195 36.5q150 0 271 -73.5t174 -192.5h8v246zM621 68q67 0 130.5 18t121 56t100.5 92t68.5 131t25.5 167q0 112 -38.5 203t-102.5 147t-142.5 85.5t-162.5 29.5
q-83 0 -160.5 -29.5t-141 -85t-101.5 -146.5t-38 -204q0 -91 25 -168t67.5 -131t99.5 -91.5t120 -55.5t129 -18z" />
    <glyph glyph-name="Hbar" unicode="&#x126;" horiz-adv-x="1275" 
d="M1044 1454h97v-1454h-97v664h-813v-664h-96v1454h96v-352h813v352zM231 756h813v252h-813v-252z" />
    <glyph glyph-name="hbar" unicode="&#x127;" horiz-adv-x="1187" 
d="M629 1085q88 0 163.5 -27.5t135 -82t93.5 -144t34 -204.5v-627h-94v618q0 186 -98.5 282.5t-252.5 96.5q-155 0 -256.5 -97t-101.5 -282v-618h-94v1190h-158v67h158v197h94v-197h233v-67h-233v-320q44 90 139.5 152.5t237.5 62.5z" />
    <glyph glyph-name="Imacron" unicode="&#x12a;" horiz-adv-x="364" 
d="M-186 1743v80h737v-80h-737zM135 0v1454h96v-1454h-96z" />
    <glyph glyph-name="imacron" unicode="&#x12b;" horiz-adv-x="362" 
d="M-186 1354v80h737v-80h-737zM135 0v1065h94v-1065h-94z" />
    <glyph glyph-name="Iogonek" unicode="&#x12e;" horiz-adv-x="364" 
d="M135 1454h96v-1454h-2q-134 -31 -194 -93t-60 -130q0 -69 50.5 -104t117.5 -17v-62q-28 -14 -63 -16.5t-70.5 7t-65.5 29.5t-48.5 56t-18.5 82q0 93 71.5 161.5t186.5 104.5v1436z" />
    <glyph glyph-name="iogonek" unicode="&#x12f;" horiz-adv-x="362" 
d="M227 1454v-100h-94v100h94zM135 1065h94v-1065h-2q-134 -31 -194 -93t-60 -130q0 -69 50.5 -104t117.5 -17v-62q-28 -14 -63 -16.5t-70.5 7t-65.5 29.5t-48.5 56t-18.5 82q0 93 72.5 161.5t187.5 104.5v1047z" />
    <glyph glyph-name="Idotaccent" unicode="&#x130;" horiz-adv-x="364" 
d="M133 1743v100h94v-100h-94zM135 0v1454h96v-1454h-96z" />
    <glyph glyph-name="dotlessi" unicode="&#x131;" horiz-adv-x="362" 
d="M135 0v1065h94v-1065h-94z" />
    <glyph glyph-name="IJ" unicode="&#x132;" horiz-adv-x="1302" 
d="M135 0v1454h96v-1454h-96zM772 -20q-113 0 -200.5 46.5t-133.5 129.5l64 61q95 -145 268 -145q141 0 222 88.5t81 253.5v1040h96v-1046q0 -108 -31.5 -191.5t-86.5 -134.5t-125.5 -76.5t-153.5 -25.5z" />
    <glyph glyph-name="ij" unicode="&#x133;" horiz-adv-x="727" 
d="M135 1356v98h94v-98h-94zM498 1356v98h96v-98h-96zM135 0v1065h94v-1065h-94zM178 -395v88h39q66 0 114 13t87.5 45t59.5 92.5t20 148.5v1073h96v-1075q0 -113 -28.5 -191t-83 -119t-119.5 -58t-152 -17h-33z" />
    <glyph glyph-name="uni0136" unicode="&#x136;" horiz-adv-x="1247" 
d="M532 780l652 -780h-117l-594 713l-242 -271v-442h-96v1454h96v-883l779 883h120zM473 -477l141 403h93l-144 -403h-90z" />
    <glyph glyph-name="uni0137" unicode="&#x137;" horiz-adv-x="1060" 
d="M477 561l522 -561h-118l-463 498l-189 -203v-295h-94v1454h94v-1036l598 647h119zM358 -477l142 403h92l-143 -403h-91z" />
    <glyph glyph-name="Lacute" unicode="&#x139;" horiz-adv-x="989" 
d="M412 1880l-129 -315h-93l125 315h97zM231 92h687v-92h-783v1454h96v-1362z" />
    <glyph glyph-name="lacute" unicode="&#x13a;" horiz-adv-x="362" 
d="M150 1589l124 316h97l-129 -316h-92zM135 0v1454h94v-1454h-94z" />
    <glyph glyph-name="uni013B" unicode="&#x13b;" horiz-adv-x="1011" 
d="M231 92h687v-92h-783v1454h96v-1362zM340 -477l141 403h92l-143 -403h-90z" />
    <glyph glyph-name="uni013C" unicode="&#x13c;" horiz-adv-x="362" 
d="M135 0v1454h94v-1454h-94zM-8 -477l141 403h92l-143 -403h-90z" />
    <glyph glyph-name="Lcaron" unicode="&#x13d;" horiz-adv-x="1011" 
d="M231 92h687v-92h-783v1454h96v-1362zM702 1436l-143 -404h-90l143 404h90z" />
    <glyph glyph-name="lcaron" unicode="&#x13e;" horiz-adv-x="460" 
d="M309 1071l142 404h92l-144 -404h-90zM135 0v1454h94v-1454h-94z" />
    <glyph glyph-name="Ldot" unicode="&#x13f;" horiz-adv-x="1011" 
d="M231 92h687v-92h-783v1454h96v-1362zM623 672q-28 0 -45 17.5t-17 43.5t17 44t45 18q29 0 46 -18t17 -44t-16.5 -43.5t-46.5 -17.5z" />
    <glyph glyph-name="ldot" unicode="&#x140;" horiz-adv-x="446" 
d="M135 0v1454h94v-1454h-94zM455 668q-28 0 -45 17.5t-17 43.5t17 44t45 18t45.5 -18t17.5 -44t-17.5 -43.5t-45.5 -17.5z" />
    <glyph glyph-name="Lslash" unicode="&#x141;" horiz-adv-x="1126" 
d="M346 92h686v-92h-782v518l-137 -145v129l137 145v807h96v-706l297 313h2v-127l-299 -316v-526z" />
    <glyph glyph-name="lslash" unicode="&#x142;" horiz-adv-x="407" 
d="M451 1071v-108l-199 -228v-735h-96v627l-199 -228v111l199 227v717h96v-608l197 225h2z" />
    <glyph glyph-name="Nacute" unicode="&#x143;" horiz-adv-x="1400" 
d="M672 1589l125 316h96l-129 -316h-92zM135 0v1454h101l925 -1288h10v1288h97v-1454h-101l-925 1288h-11v-1288h-96z" />
    <glyph glyph-name="nacute" unicode="&#x144;" horiz-adv-x="1165" 
d="M793 1516l-129 -316h-93l125 316h97zM606 1085q88 0 163.5 -27.5t135 -82t93.5 -144t34 -204.5v-627h-94v618q0 186 -98 282.5t-252 96.5q-155 0 -257 -97t-102 -282v-618h-94v1065h94v-195q44 90 139.5 152.5t237.5 62.5z" />
    <glyph glyph-name="uni0145" unicode="&#x145;" horiz-adv-x="1400" 
d="M135 0v1454h101l925 -1288h10v1288h97v-1454h-101l-925 1288h-11v-1288h-96zM514 -477l141 403h93l-144 -403h-90z" />
    <glyph glyph-name="uni0146" unicode="&#x146;" horiz-adv-x="1165" 
d="M606 1085q88 0 163.5 -27.5t135 -82t93.5 -144t34 -204.5v-627h-94v618q0 186 -98 282.5t-252 96.5q-155 0 -257 -97t-102 -282v-618h-94v1065h94v-195q44 90 139.5 152.5t237.5 62.5zM412 -477l141 403h92l-143 -403h-90z" />
    <glyph glyph-name="Ncaron" unicode="&#x147;" horiz-adv-x="1400" 
d="M518 1907l184 -217l185 217l59 -54l-209 -245h-69l-209 245zM135 0v1454h101l925 -1288h10v1288h97v-1454h-101l-925 1288h-11v-1288h-96z" />
    <glyph glyph-name="ncaron" unicode="&#x148;" horiz-adv-x="1165" 
d="M637 1219h-70l-209 245l60 54l184 -218l184 218l60 -54zM606 1085q88 0 163.5 -27.5t135 -82t93.5 -144t34 -204.5v-627h-94v618q0 186 -98 282.5t-252 96.5q-155 0 -257 -97t-102 -282v-618h-94v1065h94v-195q44 90 139.5 152.5t237.5 62.5z" />
    <glyph glyph-name="Eng" unicode="&#x14a;" horiz-adv-x="1396" 
d="M1264 1434v-1352l-11 -12v-68q0 -108 -31.5 -191.5t-86.5 -134.5t-125.5 -76.5t-153.5 -25.5q-113 0 -199.5 46.5t-134.5 129.5l64 62q96 -146 270 -146q139 0 220 89t81 253v35l-926 1208v-1251h-96v1434h72l950 -1241v856h10v385h97z" />
    <glyph glyph-name="eng" unicode="&#x14b;" horiz-adv-x="1165" 
d="M606 1085q88 0 163.5 -27.5t135 -82t93.5 -144t34 -204.5v-635q0 -114 -28 -192t-82 -119.5t-119 -58.5t-152 -17h-35v88h39q66 0 114 13t88 45t60.5 92.5t20.5 148.5v626q0 186 -98 282.5t-252 96.5q-155 0 -257 -97t-102 -282v-618h-94v1065h94v-195q44 90 139.5 152.5
t237.5 62.5z" />
    <glyph glyph-name="Omacron" unicode="&#x14c;" horiz-adv-x="1687" 
d="M477 1743v80h737v-80h-737zM844 -20q-143 0 -275.5 54.5t-233 150t-160.5 237t-60 305.5t60 305.5t160.5 237.5t233 150.5t275.5 54.5q144 0 276.5 -54.5t233.5 -150.5t161 -237.5t60 -305.5t-60 -305.5t-161 -237t-233.5 -150t-276.5 -54.5zM844 74q124 0 238.5 47
t202 130t140 207t52.5 269t-52.5 269t-140 207t-202 130t-238.5 47q-123 0 -237.5 -47t-202 -130t-140.5 -207t-53 -269t53 -269t140.5 -207t202 -130t237.5 -47z" />
    <glyph glyph-name="omacron" unicode="&#x14d;" horiz-adv-x="1259" 
d="M262 1354v80h737v-80h-737zM629 -20q-104 0 -201 37t-174 105.5t-123.5 175t-46.5 234.5t46.5 235t123.5 175t174 105.5t201 37.5q83 0 162 -23t149 -70t122.5 -112t83 -155t30.5 -193t-30.5 -193t-83 -155t-122.5 -111.5t-149 -69.5t-162 -23zM629 68q86 0 166 31
t144 87.5t102 146.5t38 199t-38 199t-102 147t-144 88t-166 31t-166 -31t-143.5 -88t-101.5 -147t-38 -199t38 -199t101.5 -146.5t143.5 -87.5t166 -31z" />
    <glyph glyph-name="Ohungarumlaut" unicode="&#x150;" horiz-adv-x="1687" 
d="M672 1589l125 316h96l-129 -316h-92zM901 1589l125 316h96l-129 -316h-92zM844 -20q-143 0 -275.5 54.5t-233 150t-160.5 237t-60 305.5t60 305.5t160.5 237.5t233 150.5t275.5 54.5q144 0 276.5 -54.5t233.5 -150.5t161 -237.5t60 -305.5t-60 -305.5t-161 -237
t-233.5 -150t-276.5 -54.5zM844 74q124 0 238.5 47t202 130t140 207t52.5 269t-52.5 269t-140 207t-202 130t-238.5 47q-123 0 -237.5 -47t-202 -130t-140.5 -207t-53 -269t53 -269t140.5 -207t202 -130t237.5 -47z" />
    <glyph glyph-name="ohungarumlaut" unicode="&#x151;" horiz-adv-x="1259" 
d="M457 1200l125 316h96l-129 -316h-92zM686 1200l125 316h96l-129 -316h-92zM629 -20q-104 0 -201 37t-174 105.5t-123.5 175t-46.5 234.5t46.5 235t123.5 175t174 105.5t201 37.5q83 0 162 -23t149 -70t122.5 -112t83 -155t30.5 -193t-30.5 -193t-83 -155t-122.5 -111.5
t-149 -69.5t-162 -23zM629 68q86 0 166 31t144 87.5t102 146.5t38 199t-38 199t-102 147t-144 88t-166 31t-166 -31t-143.5 -88t-101.5 -147t-38 -199t38 -199t101.5 -146.5t143.5 -87.5t166 -31z" />
    <glyph glyph-name="OE" unicode="&#x152;" horiz-adv-x="2347" 
d="M1575 92h670v-92h-766v348q-96 -171 -267 -269.5t-368 -98.5q-143 0 -275.5 54.5t-233 150t-160.5 237t-60 305.5t60 305.5t160.5 237.5t233 150.5t275.5 54.5q197 0 368 -99t267 -270v348h747v-92h-651v-586h559v-92h-559v-592zM844 74q124 0 238.5 47t202 130t140 207
t52.5 269t-52.5 269t-140 207t-202 130t-238.5 47q-123 0 -237.5 -47t-202 -130t-140.5 -207t-53 -269t53 -269t140.5 -207t202 -130t237.5 -47z" />
    <glyph glyph-name="oe" unicode="&#x153;" horiz-adv-x="2181" 
d="M2095 500h-919q-3 -36 -9 -74q31 -169 156 -263.5t291 -94.5q108 0 200 40t150 113l55 -55q-72 -89 -182 -137.5t-233 -48.5q-156 0 -287 78t-197 221q-69 -142 -203 -220.5t-288 -78.5q-104 0 -201 37t-174 105.5t-123.5 175t-46.5 234.5t46.5 235t123.5 175t174 105.5
t201 37.5q154 0 288 -78t203 -219q64 142 191.5 219.5t277.5 77.5q103 0 197.5 -38t168 -108.5t112.5 -184.5t28 -254zM629 68q105 0 197.5 42t160 129t86.5 205q-6 44 -6 91q0 45 6 86q-30 177 -156 276.5t-288 99.5q-86 0 -166 -31t-143.5 -88t-101.5 -147t-38 -199
t38 -199t101.5 -146.5t143.5 -87.5t166 -31zM1589 997q-153 0 -272 -94t-150 -262l7 -61h837q-2 97 -37.5 177t-94 132t-133 80t-157.5 28z" />
    <glyph glyph-name="Racute" unicode="&#x154;" horiz-adv-x="1185" 
d="M803 1905l-129 -316h-92l125 316h96zM1092 0h-111l-371 543q-12 -2 -39 -2h-340v-541h-96v1454h436q223 0 352.5 -129t129.5 -328q0 -169 -90 -287.5t-254 -154.5zM559 633q184 0 288.5 96t104.5 268q0 174 -104.5 269.5t-288.5 95.5h-328v-729h328z" />
    <glyph glyph-name="racute" unicode="&#x155;" horiz-adv-x="712" 
d="M567 1516l-129 -316h-92l125 316h96zM578 1085q35 0 53 -6v-86q-28 4 -51 4q-150 0 -250.5 -111.5t-100.5 -299.5v-586h-94v1065h94v-242q35 114 123.5 188t225.5 74z" />
    <glyph glyph-name="uni0156" unicode="&#x156;" horiz-adv-x="1185" 
d="M709 555l383 -555h-111l-371 543q-12 -2 -39 -2h-340v-541h-96v1454h436q223 0 352.5 -129t129.5 -328q0 -169 -90 -287.5t-254 -154.5zM559 633q184 0 288.5 96t104.5 268q0 174 -104.5 269.5t-288.5 95.5h-328v-729h328zM422 -477l141 403h92l-143 -403h-90z" />
    <glyph glyph-name="uni0157" unicode="&#x157;" horiz-adv-x="712" 
d="M578 1085q35 0 53 -6v-86q-28 4 -51 4q-150 0 -250.5 -111.5t-100.5 -299.5v-586h-94v1065h94v-242q35 114 123.5 188t225.5 74zM-6 -477l141 403h92l-143 -403h-90z" />
    <glyph glyph-name="Rcaron" unicode="&#x158;" horiz-adv-x="1185" 
d="M647 1608h-69l-209 245l59 54l184 -217l185 217l59 -54zM1092 0h-111l-371 543q-12 -2 -39 -2h-340v-541h-96v1454h436q223 0 352.5 -129t129.5 -328q0 -169 -90 -287.5t-254 -154.5zM559 633q184 0 288.5 96t104.5 268q0 174 -104.5 269.5t-288.5 95.5h-328v-729h328z
" />
    <glyph glyph-name="rcaron" unicode="&#x159;" horiz-adv-x="712" 
d="M412 1219h-70l-209 245l60 54l184 -218l184 218l60 -54zM578 1085q35 0 53 -6v-86q-28 4 -51 4q-150 0 -250.5 -111.5t-100.5 -299.5v-586h-94v1065h94v-242q35 114 123.5 188t225.5 74z" />
    <glyph glyph-name="Sacute" unicode="&#x15a;" horiz-adv-x="1075" 
d="M506 1589l125 316h96l-129 -316h-92zM553 -20q-180 0 -307.5 96t-161.5 254l82 37q31 -135 136.5 -214t252.5 -79q145 0 242.5 78.5t97.5 218.5q0 67 -23 119.5t-71 92.5t-100 67.5t-132 58.5l-98 39q-326 129 -326 378q0 155 111.5 252t282.5 97q163 0 268 -84.5
t147 -214.5l-77 -37q-93 243 -336 243q-129 0 -213 -70t-84 -186q0 -96 61.5 -167.5t196.5 -124.5l98 -39q75 -30 127.5 -56t106 -64t86 -79t53 -98.5t20.5 -126.5q0 -181 -125.5 -286t-314.5 -105z" />
    <glyph glyph-name="sacute" unicode="&#x15b;" horiz-adv-x="856" 
d="M389 1200l125 316h96l-129 -316h-92zM430 -20q-141 0 -236 75.5t-120 204.5l84 23q27 -106 100.5 -161.5t173.5 -55.5q65 0 119.5 20.5t91.5 68.5t37 117q0 85 -54.5 134.5t-179.5 101.5l-71 31q-248 104 -248 288q0 113 84.5 185.5t214.5 72.5q113 0 195.5 -57.5
t111.5 -155.5l-78 -28q-62 155 -227 155q-88 0 -147.5 -44t-59.5 -128q0 -67 44 -117t143 -92l61 -24q80 -34 131 -62t93.5 -66t61.5 -85t19 -109q0 -74 -29.5 -131.5t-79.5 -91.5t-110 -51.5t-125 -17.5z" />
    <glyph glyph-name="Scedilla" unicode="&#x15e;" horiz-adv-x="1075" 
d="M993 371q0 -173 -115 -276.5t-292 -114.5l-49 -72q72 2 122 -42.5t50 -119.5q0 -66 -40 -109.5t-101.5 -58t-131.5 -4.5v68q180 -15 180 100q0 113 -157 92l-33 43l70 105q-159 15 -270 109t-142 239l82 37q31 -135 136.5 -214t252.5 -79q145 0 242.5 78.5t97.5 218.5
q0 67 -23 119.5t-71 92.5t-100 67.5t-132 58.5l-98 39q-326 129 -326 378q0 155 111.5 252t282.5 97q163 0 268 -84.5t147 -214.5l-77 -37q-93 243 -336 243q-129 0 -213 -70t-84 -186q0 -96 61.5 -167.5t196.5 -124.5l98 -39q75 -30 127.5 -56t106 -64t86 -79t53 -98.5
t20.5 -126.5z" />
    <glyph glyph-name="scedilla" unicode="&#x15f;" horiz-adv-x="856" 
d="M774 272q0 -70 -27 -126t-73 -90.5t-101.5 -53.5t-117.5 -22l-49 -72q72 2 122 -42.5t50 -119.5q0 -66 -40 -109.5t-101.5 -58t-131.5 -4.5v68q180 -15 180 100q0 54 -39.5 78t-117.5 14l-33 43l72 107q-117 17 -194 90t-99 186l84 23q27 -106 100.5 -161.5t173.5 -55.5
q65 0 119.5 20.5t91.5 68.5t37 117q0 85 -54.5 134.5t-179.5 101.5l-71 31q-248 104 -248 288q0 113 84.5 185.5t214.5 72.5q113 0 195.5 -57.5t111.5 -155.5l-78 -28q-62 155 -227 155q-88 0 -147.5 -44t-59.5 -128q0 -67 44 -117t143 -92l61 -24q80 -34 131 -62t93.5 -66
t61.5 -85t19 -109z" />
    <glyph glyph-name="Scaron" unicode="&#x160;" horiz-adv-x="1075" 
d="M352 1907l185 -217l184 217l59 -54l-209 -245h-69l-209 245zM553 -20q-180 0 -307.5 96t-161.5 254l82 37q31 -135 136.5 -214t252.5 -79q145 0 242.5 78.5t97.5 218.5q0 67 -23 119.5t-71 92.5t-100 67.5t-132 58.5l-98 39q-326 129 -326 378q0 155 111.5 252t282.5 97
q163 0 268 -84.5t147 -214.5l-77 -37q-93 243 -336 243q-129 0 -213 -70t-84 -186q0 -96 61.5 -167.5t196.5 -124.5l98 -39q75 -30 127.5 -56t106 -64t86 -79t53 -98.5t20.5 -126.5q0 -181 -125.5 -286t-314.5 -105z" />
    <glyph glyph-name="scaron" unicode="&#x161;" horiz-adv-x="856" 
d="M238 1518l184 -218l184 218l60 -54l-209 -245h-70l-209 245zM430 -20q-141 0 -236 75.5t-120 204.5l84 23q27 -106 100.5 -161.5t173.5 -55.5q65 0 119.5 20.5t91.5 68.5t37 117q0 85 -54.5 134.5t-179.5 101.5l-71 31q-248 104 -248 288q0 113 84.5 185.5t214.5 72.5
q113 0 195.5 -57.5t111.5 -155.5l-78 -28q-62 155 -227 155q-88 0 -147.5 -44t-59.5 -128q0 -67 44 -117t143 -92l61 -24q80 -34 131 -62t93.5 -66t61.5 -85t19 -109q0 -74 -29.5 -131.5t-79.5 -91.5t-110 -51.5t-125 -17.5z" />
    <glyph glyph-name="uni0162" unicode="&#x162;" horiz-adv-x="1085" 
d="M1004 1362h-412v-1362h6l-92 -96q72 2 125 -44.5t53 -121.5q0 -94 -90.5 -143t-214.5 -25l20 49q86 -13 140.5 25t54.5 94q0 60 -49 92t-109 2l-39 43l105 125h-6v1362h-412v92h920v-92z" />
    <glyph glyph-name="uni0163" unicode="&#x163;" horiz-adv-x="610" 
d="M362 -84q72 2 122.5 -42.5t50.5 -119.5q0 -66 -40 -109.5t-101.5 -58t-131.5 -4.5v68q180 -15 180 100q0 113 -157 92l-33 43l74 113q-109 29 -109 160v825h-133v82h133v272h94v-272h205v-82h-205v-803q0 -106 105 -106q46 0 96 22v-80q-40 -24 -100 -28z" />
    <glyph glyph-name="Tcaron" unicode="&#x164;" horiz-adv-x="1085" 
d="M580 1608h-70l-209 245l59 54l185 -217l184 217l59 -54zM1004 1454v-92h-412v-1362h-96v1362h-412v92h920z" />
    <glyph glyph-name="tcaron" unicode="&#x165;" horiz-adv-x="587" 
d="M616 1470l-129 -315h-92l125 315h96zM311 1337v-272h205v-82h-205v-803q0 -106 105 -106q46 0 96 22v-80q-45 -28 -113 -28q-86 0 -134 42.5t-48 127.5v825h-133v82h133v272h94z" />
    <glyph glyph-name="Tbar" unicode="&#x166;" horiz-adv-x="1085" 
d="M1004 1362h-412v-293h332v-94h-332v-975h-96v975h-312v94h312v293h-412v92h920v-92z" />
    <glyph glyph-name="tbar" unicode="&#x167;" horiz-adv-x="610" 
d="M516 983h-205v-131h205v-82h-205v-590q0 -106 105 -106q46 0 96 22v-80q-45 -28 -113 -28q-86 0 -134 42.5t-48 127.5v612h-133v82h133v131h-133v82h133v272h94v-272h205v-82z" />
    <glyph glyph-name="Utilde" unicode="&#x168;" horiz-adv-x="1267" 
d="M770 1642q-37 0 -68 14.5t-52.5 35t-42.5 41t-46.5 35t-54.5 14.5q-44 0 -68 -28.5t-24 -70.5h-82q0 87 48.5 133t121.5 46q37 0 68 -14.5t52.5 -35t42.5 -41t46.5 -35t54.5 -14.5q44 0 68 29t24 72h82q0 -89 -48.5 -135t-121.5 -46zM635 -20q-220 0 -360 139.5
t-140 384.5v950h96v-948q0 -204 112 -318t292 -114q179 0 291 114t112 318v948h97v-950q0 -245 -140.5 -384.5t-359.5 -139.5z" />
    <glyph glyph-name="utilde" unicode="&#x169;" horiz-adv-x="1165" 
d="M469 1393q-44 0 -68 -28.5t-24 -70.5h-82q0 87 48.5 133t121.5 46q37 0 68 -14.5t52.5 -35t42.5 -41t46.5 -35t54.5 -14.5q44 0 68 29t24 72h82q0 -89 -48.5 -135t-121.5 -46q-37 0 -68 14.5t-52.5 35t-42.5 41t-46.5 35t-54.5 14.5zM938 1065h94v-1065h-94v199
q-44 -91 -140 -155t-239 -64q-87 0 -162.5 27.5t-134.5 82t-93 144t-34 204.5v627h94v-619q0 -186 98.5 -282t252.5 -96q73 0 136.5 23t113.5 68t79 119t29 168v619z" />
    <glyph glyph-name="Umacron" unicode="&#x16a;" horiz-adv-x="1267" 
d="M266 1743v80h738v-80h-738zM635 -20q-220 0 -360 139.5t-140 384.5v950h96v-948q0 -204 112 -318t292 -114q179 0 291 114t112 318v948h97v-950q0 -245 -140.5 -384.5t-359.5 -139.5z" />
    <glyph glyph-name="umacron" unicode="&#x16b;" horiz-adv-x="1165" 
d="M967 1434v-80h-738v80h738zM938 1065h94v-1065h-94v199q-44 -91 -140 -155t-239 -64q-87 0 -162.5 27.5t-134.5 82t-93 144t-34 204.5v627h94v-619q0 -186 98.5 -282t252.5 -96q73 0 136.5 23t113.5 68t79 119t29 168v619z" />
    <glyph glyph-name="Ubreve" unicode="&#x16c;" horiz-adv-x="1267" 
d="M633 1632q-136 0 -206.5 81t-68.5 192h91q2 -78 47 -132.5t137 -54.5q94 0 138 54t46 133h92q1 -52 -15 -99t-48 -87t-87 -63.5t-126 -23.5zM635 -20q-220 0 -360 139.5t-140 384.5v950h96v-948q0 -204 112 -318t292 -114q179 0 291 114t112 318v948h97v-950
q0 -245 -140.5 -384.5t-359.5 -139.5z" />
    <glyph glyph-name="ubreve" unicode="&#x16d;" horiz-adv-x="1165" 
d="M598 1243q-136 0 -206 81t-68 192h90q2 -78 47 -132.5t137 -54.5q94 0 138 54t46 133h92q1 -52 -15 -99t-48 -87t-87 -63.5t-126 -23.5zM938 1065h94v-1065h-94v199q-44 -91 -140 -155t-239 -64q-87 0 -162.5 27.5t-134.5 82t-93 144t-34 204.5v627h94v-619
q0 -186 98.5 -282t252.5 -96q73 0 136.5 23t113.5 68t79 119t29 168v619z" />
    <glyph glyph-name="Uring" unicode="&#x16e;" horiz-adv-x="1267" 
d="M637 1622q-69 0 -116.5 46.5t-47.5 113.5q0 66 47.5 111.5t116.5 45.5q65 0 112.5 -46t47.5 -111q0 -67 -47.5 -113.5t-112.5 -46.5zM635 1694q37 0 61.5 25.5t24.5 62.5q0 36 -25 61t-61 25q-37 0 -62.5 -25.5t-25.5 -60.5q0 -37 25.5 -62.5t62.5 -25.5zM635 -20
q-220 0 -360 139.5t-140 384.5v950h96v-948q0 -204 112 -318t292 -114q179 0 291 114t112 318v948h97v-950q0 -245 -140.5 -384.5t-359.5 -139.5z" />
    <glyph glyph-name="uring" unicode="&#x16f;" horiz-adv-x="1165" 
d="M600 1233q-69 0 -116.5 46.5t-47.5 113.5q0 66 47.5 111.5t116.5 45.5q65 0 112.5 -46t47.5 -111q0 -67 -47.5 -113.5t-112.5 -46.5zM598 1479q-37 0 -62.5 -25.5t-25.5 -60.5q0 -37 25.5 -62.5t62.5 -25.5t61.5 25.5t24.5 62.5q0 36 -25 61t-61 25zM938 1065h94v-1065
h-94v199q-44 -91 -140 -155t-239 -64q-87 0 -162.5 27.5t-134.5 82t-93 144t-34 204.5v627h94v-619q0 -186 98.5 -282t252.5 -96q73 0 136.5 23t113.5 68t79 119t29 168v619z" />
    <glyph glyph-name="Uhungarumlaut" unicode="&#x170;" horiz-adv-x="1267" 
d="M463 1589l125 316h96l-129 -316h-92zM692 1589l125 316h96l-129 -316h-92zM635 -20q-220 0 -360 139.5t-140 384.5v950h96v-948q0 -204 112 -318t292 -114q179 0 291 114t112 318v948h97v-950q0 -245 -140.5 -384.5t-359.5 -139.5z" />
    <glyph glyph-name="uhungarumlaut" unicode="&#x171;" horiz-adv-x="1165" 
d="M647 1516l-129 -316h-92l125 316h96zM877 1516l-129 -316h-93l125 316h97zM938 1065h94v-1065h-94v199q-44 -91 -140 -155t-239 -64q-87 0 -162.5 27.5t-134.5 82t-93 144t-34 204.5v627h94v-619q0 -186 98.5 -282t252.5 -96q73 0 136.5 23t113.5 68t79 119t29 168v619z
" />
    <glyph glyph-name="Uogonek" unicode="&#x172;" horiz-adv-x="1267" 
d="M1038 1454h97v-950q0 -210 -105 -343.5t-278 -168.5q-116 -34 -168 -92.5t-52 -122.5q0 -69 50.5 -104t117.5 -17v-62q-28 -14 -63 -16.5t-70.5 7t-65.5 29.5t-48.5 56t-18.5 82q0 72 45 130.5t121 97.5q-207 12 -336 150.5t-129 373.5v950h96v-948q0 -204 112 -318
t292 -114q179 0 291 114t112 318v948z" />
    <glyph glyph-name="uogonek" unicode="&#x173;" horiz-adv-x="1165" 
d="M788 -223q0 -69 50.5 -104t117.5 -17v-62q-28 -14 -63 -16.5t-70.5 7t-65.5 29.5t-48.5 56t-18.5 82q0 92 68.5 159t179.5 103v185q-44 -91 -140 -155t-239 -64q-87 0 -162.5 27.5t-134.5 82t-93 144t-34 204.5v627h94v-619q0 -186 98.5 -282t252.5 -96q73 0 136.5 23
t113.5 68t79 119t29 168v619h94v-1063l10 -2q-134 -31 -194 -93t-60 -130z" />
    <glyph glyph-name="Wcircumflex" unicode="&#x174;" horiz-adv-x="2004" 
d="M819 1606l-59 53l209 246h69l209 -246l-59 -53l-184 217zM506 0l-432 1454h100l379 -1274l408 1274h81l410 -1274l377 1274h102l-434 -1454h-80l-416 1280l-413 -1280h-82z" />
    <glyph glyph-name="wcircumflex" unicode="&#x175;" horiz-adv-x="1894" 
d="M948 1434l-184 -217l-59 53l208 246h70l209 -246l-59 -53zM1735 1065h98l-408 -1065h-90l-387 948l-389 -948h-88l-408 1065h99l354 -936l383 936h96l383 -936z" />
    <glyph glyph-name="Ycircumflex" unicode="&#x176;" horiz-adv-x="1265" 
d="M449 1606l-60 53l209 246h70l209 -246l-60 -53l-184 217zM584 0v662l-510 792h110l449 -700l446 700h113l-512 -792v-662h-96z" />
    <glyph glyph-name="ycircumflex" unicode="&#x177;" horiz-adv-x="1124" 
d="M559 1434l-184 -217l-60 53l209 246h70l209 -246l-60 -53zM961 1065h100l-457 -1065l-172 -389h-94l178 399l-453 1055h101l397 -938z" />
    <glyph glyph-name="Ydieresis" unicode="&#x178;" horiz-adv-x="1265" 
d="M391 1743v100h94v-100h-94zM778 1743v100h96v-100h-96zM584 0v662l-510 792h110l449 -700l446 700h113l-512 -792v-662h-96z" />
    <glyph glyph-name="Zacute" unicode="&#x179;" horiz-adv-x="1177" 
d="M553 1589l125 316h96l-129 -316h-92zM63 0l875 1362h-827v92h993l-877 -1362h863v-92h-1027z" />
    <glyph glyph-name="zacute" unicode="&#x17a;" horiz-adv-x="1044" 
d="M502 1200l125 316h96l-129 -316h-92zM63 0l750 979h-694v86h862l-752 -977h729v-88h-895z" />
    <glyph glyph-name="Zdotaccent" unicode="&#x17b;" horiz-adv-x="1177" 
d="M537 1743v100h94v-100h-94zM63 0l875 1362h-827v92h993l-877 -1362h863v-92h-1027z" />
    <glyph glyph-name="zdotaccent" unicode="&#x17c;" horiz-adv-x="1044" 
d="M483 1354v100h95v-100h-95zM63 0l750 979h-694v86h862l-752 -977h729v-88h-895z" />
    <glyph glyph-name="Zcaron" unicode="&#x17d;" horiz-adv-x="1177" 
d="M401 1907l185 -217l184 217l59 -54l-208 -245h-70l-209 245zM63 0l875 1362h-827v92h993l-877 -1362h863v-92h-1027z" />
    <glyph glyph-name="zcaron" unicode="&#x17e;" horiz-adv-x="1044" 
d="M348 1518l184 -218l185 218l59 -54l-209 -245h-69l-209 245zM63 0l750 979h-694v86h862l-752 -977h729v-88h-895z" />
    <glyph glyph-name="uni018F" unicode="&#x18f;" horiz-adv-x="1630" 
d="M770 1475q151 0 287.5 -55.5t238 -153t161 -238t59.5 -301.5t-58 -301.5t-156.5 -237.5t-231.5 -152.5t-279 -55.5q-142 0 -267.5 50.5t-218.5 142.5t-145 231t-47 305h1302v18q0 143 -51.5 266.5t-139 207.5t-205.5 131.5t-249 47.5q-56 0 -112.5 -9.5t-121 -32.5
t-126 -69.5t-107.5 -111.5l-72 55q54 76 124 130.5t144 81.5t139.5 39t131.5 12zM780 74q237 0 414.5 151.5t212.5 395.5h-1198q10 -134 59.5 -239.5t127.5 -172t175.5 -101t208.5 -34.5z" />
    <glyph glyph-name="florin" unicode="&#x192;" horiz-adv-x="690" 
d="M449 1407q-170 0 -170 -201v-141h309v-82h-309v-1118q0 -78 -22.5 -135t-61 -86.5t-80 -42.5t-88.5 -13q-77 0 -152 41v80q61 -35 139 -35q170 0 170 203v1106h-114v82h114v154q0 77 23 133.5t61.5 85.5t80 42t87.5 13q84 0 152 -41v-80q-61 35 -139 35z" />
    <glyph glyph-name="uni01CD" unicode="&#x1cd;" horiz-adv-x="1370" 
d="M721 1587h-70l-209 246l60 53l184 -217l184 217l60 -53zM1212 0l-155 391h-746l-155 -391h-103l588 1454h88l588 -1454h-105zM348 483h672l-336 838z" />
    <glyph glyph-name="uni01CE" unicode="&#x1ce;" 
d="M444 1518l185 -218l184 218l59 -54l-208 -245h-70l-209 245zM614 -20q-103 0 -197 36.5t-169 104t-119.5 174.5t-44.5 237q0 105 29 195.5t79.5 155t118 111t144.5 69t159 22.5q150 0 271 -73.5t174 -192.5h6v246h94v-1065h-94v246h-6q-53 -119 -174 -192.5t-271 -73.5z
M623 68q84 0 162 29.5t141.5 85t102 146.5t38.5 203t-38.5 203t-102 147t-141.5 85.5t-162 29.5t-162 -29.5t-141.5 -85t-101.5 -146.5t-38 -204q0 -91 25 -168t68 -131t99.5 -91.5t120 -55.5t130.5 -18z" />
    <glyph glyph-name="uni01CF" unicode="&#x1cf;" horiz-adv-x="364" 
d="M-2 1907l184 -217l185 217l59 -54l-209 -245h-70l-208 245zM135 0v1454h96v-1454h-96z" />
    <glyph glyph-name="uni01D0" unicode="&#x1d0;" horiz-adv-x="362" 
d="M0 1518l184 -218l185 218l59 -54l-209 -245h-69l-209 245zM135 0v1065h94v-1065h-94z" />
    <glyph glyph-name="uni01D1" unicode="&#x1d1;" horiz-adv-x="1687" 
d="M662 1907l184 -217l184 217l60 -54l-209 -245h-70l-209 245zM844 -20q-143 0 -275.5 54.5t-233 150t-160.5 237t-60 305.5t60 305.5t160.5 237.5t233 150.5t275.5 54.5q144 0 276.5 -54.5t233.5 -150.5t161 -237.5t60 -305.5t-60 -305.5t-161 -237t-233.5 -150
t-276.5 -54.5zM844 74q124 0 238.5 47t202 130t140 207t52.5 269t-52.5 269t-140 207t-202 130t-238.5 47q-123 0 -237.5 -47t-202 -130t-140.5 -207t-53 -269t53 -269t140.5 -207t202 -130t237.5 -47z" />
    <glyph glyph-name="uni01D2" unicode="&#x1d2;" horiz-adv-x="1259" 
d="M446 1518l185 -218l184 218l59 -54l-208 -245h-70l-209 245zM629 -20q-104 0 -201 37t-174 105.5t-123.5 175t-46.5 234.5t46.5 235t123.5 175t174 105.5t201 37.5q83 0 162 -23t149 -70t122.5 -112t83 -155t30.5 -193t-30.5 -193t-83 -155t-122.5 -111.5t-149 -69.5
t-162 -23zM629 68q86 0 166 31t144 87.5t102 146.5t38 199t-38 199t-102 147t-144 88t-166 31t-166 -31t-143.5 -88t-101.5 -147t-38 -199t38 -199t101.5 -146.5t143.5 -87.5t166 -31z" />
    <glyph glyph-name="uni01D3" unicode="&#x1d3;" horiz-adv-x="1267" 
d="M451 1907l184 -217l184 217l60 -54l-209 -245h-70l-209 245zM635 -20q-220 0 -360 139.5t-140 384.5v950h96v-948q0 -204 112 -318t292 -114q179 0 291 114t112 318v948h97v-950q0 -245 -140.5 -384.5t-359.5 -139.5z" />
    <glyph glyph-name="uni01D4" unicode="&#x1d4;" horiz-adv-x="1165" 
d="M633 1219h-70l-209 245l60 54l184 -218l184 218l60 -54zM938 1065h94v-1065h-94v199q-44 -91 -140 -155t-239 -64q-87 0 -162.5 27.5t-134.5 82t-93 144t-34 204.5v627h94v-619q0 -186 98.5 -282t252.5 -96q73 0 136.5 23t113.5 68t79 119t29 168v619z" />
    <glyph glyph-name="uni01EA" unicode="&#x1ea;" horiz-adv-x="1687" 
d="M938 -14q-106 -34 -154.5 -91.5t-48.5 -117.5q0 -69 51 -104t117 -17v-62q-27 -14 -62 -16.5t-70.5 7t-65.5 29.5t-49 56t-19 82q0 142 166 230q-137 7 -262 64t-219.5 152.5t-150.5 233t-56 295.5q0 164 60 305.5t160.5 237.5t233 150.5t275.5 54.5q144 0 276.5 -54.5
t233.5 -150.5t161 -237.5t60 -305.5q0 -151 -51 -283t-138 -226t-202.5 -154.5t-245.5 -77.5zM211 727q0 -145 53 -269t140.5 -207t202 -130t237.5 -47q124 0 238.5 47t202 130t140 207t52.5 269t-52.5 269t-140 207t-202 130t-238.5 47q-123 0 -237.5 -47t-202 -130
t-140.5 -207t-53 -269z" />
    <glyph glyph-name="uni0218" unicode="&#x218;" horiz-adv-x="1075" 
d="M553 -20q-180 0 -307.5 96t-161.5 254l82 37q31 -135 136.5 -214t252.5 -79q145 0 242.5 78.5t97.5 218.5q0 67 -23 119.5t-71 92.5t-100 67.5t-132 58.5l-98 39q-326 129 -326 378q0 155 111.5 252t282.5 97q163 0 268 -84.5t147 -214.5l-77 -37q-93 243 -336 243
q-129 0 -213 -70t-84 -186q0 -96 61.5 -167.5t196.5 -124.5l98 -39q75 -30 127.5 -56t106 -64t86 -79t53 -98.5t20.5 -126.5q0 -181 -125.5 -286t-314.5 -105zM360 -477l142 403h92l-143 -403h-91z" />
    <glyph glyph-name="uni0219" unicode="&#x219;" horiz-adv-x="856" 
d="M430 -20q-141 0 -236 75.5t-120 204.5l84 23q27 -106 100.5 -161.5t173.5 -55.5q65 0 119.5 20.5t91.5 68.5t37 117q0 85 -54.5 134.5t-179.5 101.5l-71 31q-248 104 -248 288q0 113 84.5 185.5t214.5 72.5q113 0 195.5 -57.5t111.5 -155.5l-78 -28q-62 155 -227 155
q-88 0 -147.5 -44t-59.5 -128q0 -67 44 -117t143 -92l61 -24q80 -34 131 -62t93.5 -66t61.5 -85t19 -109q0 -74 -29.5 -131.5t-79.5 -91.5t-110 -51.5t-125 -17.5zM229 -477l142 403h92l-144 -403h-90z" />
    <glyph glyph-name="uni021A" unicode="&#x21a;" horiz-adv-x="1085" 
d="M1004 1454v-92h-412v-1362h-96v1362h-412v92h920zM354 -477l142 403h92l-144 -403h-90z" />
    <glyph glyph-name="uni021B" unicode="&#x21b;" horiz-adv-x="610" 
d="M516 983h-205v-803q0 -106 105 -106q46 0 96 22v-80q-45 -28 -113 -28q-86 0 -134 42.5t-48 127.5v825h-133v82h133v272h94v-272h205v-82zM186 -469l142 403h92l-144 -403h-90z" />
    <glyph glyph-name="uni0237" unicode="&#x237;" horiz-adv-x="364" 
d="M-184 -395v88h39q66 0 114 13t87 45t59 92.5t20 148.5v1073h96v-1075q0 -113 -28.5 -191t-83 -119t-119.5 -58t-152 -17h-32z" />
    <glyph glyph-name="uni0259" unicode="&#x259;" horiz-adv-x="1198" 
d="M575 1085q106 0 202.5 -37t172 -105.5t120 -175.5t44.5 -237q0 -129 -44.5 -235.5t-118 -174t-167 -104t-194.5 -36.5q-103 0 -197 38t-167.5 108.5t-112.5 184.5t-29 254h940q-12 202 -143 317t-314 115q-108 0 -201 -40t-151 -113l-53 55q72 89 181.5 137.5t231.5 48.5
zM590 68q108 0 201.5 46t157.5 142.5t73 228.5h-852q2 -97 37.5 -177t93.5 -132t132.5 -80t156.5 -28z" />
    <glyph glyph-name="circumflex" unicode="&#x2c6;" horiz-adv-x="528" 
d="M80 1217l-60 53l209 246h70l209 -246l-59 -53l-185 217z" />
    <glyph glyph-name="caron" unicode="&#x2c7;" horiz-adv-x="528" 
d="M80 1518l184 -218l185 218l59 -54l-209 -245h-70l-209 245z" />
    <glyph glyph-name="breve" unicode="&#x2d8;" horiz-adv-x="591" 
d="M295 1243q-136 0 -206.5 81t-68.5 192h91q2 -78 47 -132.5t137 -54.5q94 0 138 54t46 133h92q1 -52 -15 -99t-48 -87t-87 -63.5t-126 -23.5z" />
    <glyph glyph-name="dotaccent" unicode="&#x2d9;" horiz-adv-x="135" 
d="M20 1354v100h95v-100h-95z" />
    <glyph glyph-name="ring" unicode="&#x2da;" horiz-adv-x="364" 
d="M184 1233q-69 0 -116.5 46.5t-47.5 113.5q0 66 47.5 111.5t116.5 45.5q65 0 112.5 -46t47.5 -111q0 -67 -47.5 -113.5t-112.5 -46.5zM182 1305q37 0 61.5 25.5t24.5 62.5q0 36 -25 61t-61 25q-37 0 -62.5 -25.5t-25.5 -60.5q0 -37 25.5 -62.5t62.5 -25.5z" />
    <glyph glyph-name="ogonek" unicode="&#x2db;" horiz-adv-x="352" 
d="M266 -406q-28 -14 -63 -16.5t-70.5 7t-65.5 29.5t-48.5 56t-18.5 82q0 94 73.5 163t190.5 105l88 -20q-134 -31 -194 -93t-60 -130q0 -69 50.5 -104t117.5 -17v-62z" />
    <glyph glyph-name="tilde" unicode="&#x2dc;" horiz-adv-x="649" 
d="M459 1253q-37 0 -68 14.5t-52.5 35t-42.5 41t-46.5 35t-54.5 14.5q-44 0 -68.5 -28.5t-24.5 -70.5h-82q0 87 48.5 133t121.5 46q45 0 82.5 -22t60 -48t55 -48t67.5 -22q44 0 68 29t24 72h82q0 -89 -48.5 -135t-121.5 -46z" />
    <glyph glyph-name="hungarumlaut" unicode="&#x2dd;" horiz-adv-x="491" 
d="M20 1200l125 316h97l-129 -316h-93zM250 1200l125 316h96l-129 -316h-92z" />
    <glyph glyph-name="uni0326" unicode="&#x326;" horiz-adv-x="0" 
d="M-254 -477l141 403h93l-144 -403h-90z" />
    <glyph glyph-name="uni0394" unicode="&#x394;" horiz-adv-x="1501" 
d="M102 0l629 1434h39l629 -1434h-1297zM240 88h1022l-510 1172z" />
    <glyph glyph-name="uni03A9" unicode="&#x3a9;" horiz-adv-x="1648" 
d="M166 0v92h309v39q-360 238 -360 600q0 152 60.5 287.5t159.5 228.5t227.5 147t262.5 54t262 -54t227.5 -147t160.5 -228.5t61 -287.5q0 -363 -362 -600v-39h311v-92h-393v180l92 70q256 194 256 481q0 134 -53.5 253t-140.5 200.5t-197.5 128.5t-223.5 47
q-114 0 -225 -47t-197.5 -128.5t-140 -200.5t-53.5 -253q0 -287 256 -481l92 -70v-180h-391z" />
    <glyph glyph-name="uni03BC" unicode="&#x3bc;" horiz-adv-x="1165" 
d="M938 1065h94v-1065h-94v199q-44 -91 -140 -155t-239 -64q-212 0 -330 145v-514h-94v1454h94v-619q0 -186 98.5 -282t252.5 -96q73 0 136.5 23t113.5 68t79 119t29 168v619z" />
    <glyph glyph-name="pi" unicode="&#x3c0;" horiz-adv-x="1310" 
d="M1079 76q68 0 140 37v-88q-72 -37 -136 -37q-89 0 -137.5 47t-48.5 158v786h-494v-979h-96v979h-205v86h1094v-86h-203v-791q0 -68 20 -90t66 -22z" />
    <glyph glyph-name="uni0401" unicode="&#x401;" horiz-adv-x="1003" 
d="M373 1843v-100h-94v100h94zM762 1843v-100h-96v100h96zM231 92h668v-92h-764v1454h746v-92h-650v-586h557v-92h-557v-592z" />
    <glyph glyph-name="uni0403" unicode="&#x403;" horiz-adv-x="1024" 
d="M739 1905l-129 -316h-92l125 316h96zM930 1454v-92h-699v-1362h-96v1454h795z" />
    <glyph glyph-name="uni0404" unicode="&#x404;" horiz-adv-x="1490" 
d="M850 74q58 0 115 10t121.5 33t127.5 69.5t113 112.5l72 -57q-59 -76 -130.5 -129.5t-145.5 -81t-140.5 -39.5t-134.5 -12q-202 0 -369 94t-265.5 266t-98.5 387q0 162 57.5 302t155.5 237.5t232.5 153t285.5 55.5q68 0 135 -12t141 -40t146 -81.5t131 -129.5l-72 -57
q-50 66 -113 112.5t-127.5 69.5t-121.5 33t-115 10q-171 0 -313 -75.5t-230 -218t-96 -324.5h438v-88h-436q12 -176 100.5 -314t229 -212t307.5 -74z" />
    <glyph glyph-name="uni0406" unicode="&#x406;" horiz-adv-x="364" 
d="M135 0v1454h96v-1454h-96z" />
    <glyph glyph-name="uni0407" unicode="&#x407;" horiz-adv-x="364" 
d="M-59 1743v100h94v-100h-94zM328 1743v100h96v-100h-96zM135 0v1454h96v-1454h-96z" />
    <glyph glyph-name="uni0410" unicode="&#x410;" horiz-adv-x="1370" 
d="M1212 0l-155 391h-746l-155 -391h-103l588 1454h88l588 -1454h-105zM348 483h672l-336 838z" />
    <glyph glyph-name="uni0411" unicode="&#x411;" horiz-adv-x="1155" 
d="M575 918q228 0 358 -128t130 -333q0 -200 -130.5 -328.5t-357.5 -128.5h-440v1454h797v-92h-701v-444h344zM569 92q184 0 289 96t105 269t-105 270.5t-289 97.5h-338v-733h338z" />
    <glyph glyph-name="uni0412" unicode="&#x412;" horiz-adv-x="1163" 
d="M758 803q148 -32 229.5 -137.5t81.5 -257.5q0 -184 -122.5 -296t-364.5 -112h-447v1454h467q99 0 175 -27.5t121 -75.5t68 -107.5t23 -127.5q0 -69 -22 -128t-75 -109.5t-134 -75.5zM590 1366h-359v-530h351q149 0 232 75.5t83 198.5q0 118 -77.5 187t-229.5 69zM578 88
q195 0 296 84t101 238q0 160 -102 252t-295 92h-347v-666h347z" />
    <glyph glyph-name="uni0413" unicode="&#x413;" horiz-adv-x="1024" 
d="M930 1454v-92h-699v-1362h-96v1454h795z" />
    <glyph glyph-name="uni0414" unicode="&#x414;" horiz-adv-x="1443" 
d="M1221 92h151v-233h-96v141h-1108v-141h-96v233h86q23 34 40.5 81t29 90.5t19 121.5t11.5 130t5.5 164t2 174.5t0.5 207.5v393h955v-1362zM250 92h874v1270h-762v-301v-147.5t-0.5 -130.5t-2 -125t-4 -108t-7 -104t-10.5 -87t-14 -83t-19 -68t-24.5 -65t-30.5 -51z" />
    <glyph glyph-name="uni0415" unicode="&#x415;" horiz-adv-x="1003" 
d="M231 92h668v-92h-764v1454h746v-92h-650v-586h557v-92h-557v-592z" />
    <glyph glyph-name="uni0416" unicode="&#x416;" horiz-adv-x="2127" 
d="M1950 0l-596 715l-242 -273v-442h-96v438l-244 275l-594 -713h-117l654 778l-600 676h121l780 -887v887h96v-883l780 883h119l-598 -674l653 -780h-116z" />
    <glyph glyph-name="uni0417" unicode="&#x417;" horiz-adv-x="1175" 
d="M590 -20q-223 0 -360.5 126.5t-137.5 319.5h98q0 -154 114 -254t292 -100q107 0 193.5 36.5t141 112.5t54.5 180q0 161 -124 246t-322 88v78q179 9 279 95.5t100 205.5t-94.5 193.5t-237.5 74.5q-153 0 -250.5 -88.5t-97.5 -249.5h-99q0 197 124.5 314t322.5 117
q186 0 308 -101.5t122 -255.5q0 -113 -73 -205t-218 -131q162 -29 260 -127t98 -254q0 -190 -140 -305.5t-353 -115.5z" />
    <glyph glyph-name="uni0418" unicode="&#x418;" horiz-adv-x="1400" 
d="M1268 0h-97v1288h-10l-925 -1288h-101v1454h96v-1288h11l925 1288h101v-1454z" />
    <glyph glyph-name="uni0419" unicode="&#x419;" horiz-adv-x="1400" 
d="M772 1612q-136 0 -206 80.5t-68 191.5h90q2 -79 46 -132.5t138 -53.5t138 53.5t46 132.5h91q1 -52 -15 -99t-48 -86.5t-87 -63t-125 -23.5zM1268 0h-97v1288h-10l-925 -1288h-101v1454h96v-1288h11l925 1288h101v-1454z" />
    <glyph glyph-name="uni041A" unicode="&#x41a;" horiz-adv-x="1247" 
d="M1067 0l-594 713l-242 -271v-442h-96v1454h96v-883l779 883h120l-598 -674l652 -780h-117z" />
    <glyph glyph-name="uni041B" unicode="&#x41b;" horiz-adv-x="1411" 
d="M180 -12q-81 0 -139 39v84q72 -35 123 -35q43 0 65.5 24t22.5 80v1274h1024v-1454h-96v1362h-832v-1212q0 -82 -48.5 -122t-119.5 -40z" />
    <glyph glyph-name="uni041C" unicode="&#x41c;" horiz-adv-x="1753" 
d="M135 0v1454h109l633 -1327l630 1327h111v-1454h-96v1251h-11l-596 -1251h-77l-596 1251h-11v-1251h-96z" />
    <glyph glyph-name="uni041D" unicode="&#x41d;" horiz-adv-x="1275" 
d="M1044 1454h97v-1454h-97v664h-813v-664h-96v1454h96v-698h813v698z" />
    <glyph glyph-name="uni041E" unicode="&#x41e;" horiz-adv-x="1687" 
d="M844 -20q-143 0 -275.5 54.5t-233 150t-160.5 237t-60 305.5t60 305.5t160.5 237.5t233 150.5t275.5 54.5q144 0 276.5 -54.5t233.5 -150.5t161 -237.5t60 -305.5t-60 -305.5t-161 -237t-233.5 -150t-276.5 -54.5zM844 74q124 0 238.5 47t202 130t140 207t52.5 269
t-52.5 269t-140 207t-202 130t-238.5 47q-123 0 -237.5 -47t-202 -130t-140.5 -207t-53 -269t53 -269t140.5 -207t202 -130t237.5 -47z" />
    <glyph glyph-name="uni041F" unicode="&#x41f;" horiz-adv-x="1271" 
d="M1139 1454v-1454h-97v1362h-811v-1362h-96v1454h1004z" />
    <glyph glyph-name="uni0420" unicode="&#x420;" horiz-adv-x="1155" 
d="M575 1454q227 0 357.5 -128.5t130.5 -328.5q0 -204 -130 -332t-358 -128h-344v-537h-96v1454h440zM569 629q184 0 289 97.5t105 270.5t-105 269t-289 96h-338v-733h338z" />
    <glyph glyph-name="uni0421" unicode="&#x421;" horiz-adv-x="1490" 
d="M848 -20q-202 0 -369 94t-265.5 266t-98.5 387q0 162 57.5 302t155.5 237.5t232.5 153t285.5 55.5q68 0 135 -12t141 -40t146 -81.5t131 -129.5l-72 -57q-50 66 -113 112.5t-127.5 69.5t-121.5 33t-115 10q-131 0 -248 -47.5t-203.5 -132t-137 -207.5t-50.5 -266
q0 -190 86.5 -340.5t231.5 -231.5t321 -81q58 0 115 10t121.5 33t127.5 69.5t113 112.5l72 -57q-59 -76 -130.5 -129.5t-145.5 -81t-140.5 -39.5t-134.5 -12z" />
    <glyph glyph-name="uni0422" unicode="&#x422;" horiz-adv-x="1085" 
d="M1004 1454v-92h-412v-1362h-96v1362h-412v92h920z" />
    <glyph glyph-name="uni0423" unicode="&#x423;" horiz-adv-x="1296" 
d="M1128 1454h107l-793 -1454h-104l262 483l-526 971h104l473 -876z" />
    <glyph glyph-name="uni0424" unicode="&#x424;" horiz-adv-x="1677" 
d="M922 1311q307 0 485 -162.5t178 -421.5t-178 -421.5t-485 -162.5h-37v-143h-97v143h-30q-155 0 -280.5 43.5t-209.5 121.5t-129 185t-45 234t45 234t129 185t209.5 121.5t280.5 43.5h30v143h97v-143h37zM758 231h30v994h-30q-270 0 -419 -135.5t-149 -362.5t149 -361.5
t419 -134.5zM922 231q267 0 417 135t150 361q0 227 -150 362.5t-417 135.5h-37v-994h37z" />
    <glyph glyph-name="uni0425" unicode="&#x425;" horiz-adv-x="1296" 
d="M1233 0h-115l-469 670l-471 -670h-115l527 752l-492 702h115l434 -620l434 620h117l-491 -702z" />
    <glyph glyph-name="uni0426" unicode="&#x426;" horiz-adv-x="1294" 
d="M1139 92h82v-233h-95v141h-991v1454h96v-1362h811v1362h97v-1362z" />
    <glyph glyph-name="uni0427" unicode="&#x427;" horiz-adv-x="1196" 
d="M965 1454h96v-1454h-96v631q-21 -33 -51.5 -65.5t-81 -70t-125 -60.5t-160.5 -23q-90 0 -169.5 27t-144 80t-102 140.5t-37.5 198.5v596h96v-584q0 -168 99 -266t272 -98q176 0 290 99.5t114 264.5v584z" />
    <glyph glyph-name="uni0428" unicode="&#x428;" horiz-adv-x="2004" 
d="M135 0v1454h96v-1362h723v1362h97v-1362h723v1362h96v-1454h-1735z" />
    <glyph glyph-name="uni0429" unicode="&#x429;" horiz-adv-x="2025" 
d="M1870 92h82v-233h-92v141h-1725v1454h96v-1362h723v1362h97v-1362h723v1362h96v-1362z" />
    <glyph glyph-name="uni042A" unicode="&#x42a;" horiz-adv-x="1222" 
d="M643 918q228 0 356.5 -128t128.5 -333q0 -200 -129 -328.5t-356 -128.5h-442v1362h-201v92h297v-536h346zM635 92q184 0 288.5 95.5t104.5 269.5q0 173 -105 270.5t-288 97.5h-338v-733h338z" />
    <glyph glyph-name="uni042B" unicode="&#x42b;" horiz-adv-x="1523" 
d="M575 918q228 0 358 -128t130 -333q0 -200 -130.5 -328.5t-357.5 -128.5h-440v1454h96v-536h344zM1294 1454h97v-1454h-97v1454zM569 92q184 0 289 96t105 269t-105 270.5t-289 97.5h-338v-733h338z" />
    <glyph glyph-name="uni042C" unicode="&#x42c;" horiz-adv-x="1155" 
d="M575 918q228 0 358 -128t130 -333q0 -200 -130.5 -328.5t-357.5 -128.5h-440v1454h96v-536h344zM569 92q184 0 289 96t105 269t-105 270.5t-289 97.5h-338v-733h338z" />
    <glyph glyph-name="uni042D" unicode="&#x42d;" horiz-adv-x="1490" 
d="M666 1475q151 0 285.5 -55.5t233.5 -153t156.5 -237.5t57.5 -302q0 -215 -99 -387t-266.5 -266t-369.5 -94q-68 0 -134.5 12t-140 39.5t-145 81t-129.5 129.5l69 57q50 -66 113 -112.5t128 -69.5t122 -33t115 -10q257 0 437 166.5t199 433.5h-434v88h436
q-12 275 -194 446.5t-444 171.5q-58 0 -115 -10t-122 -33t-128 -69.5t-113 -112.5l-69 57q58 76 129.5 129.5t145.5 81.5t141 40t135 12z" />
    <glyph glyph-name="uni042E" unicode="&#x42e;" horiz-adv-x="2066" 
d="M1223 1475q143 0 275.5 -54.5t233 -150.5t160.5 -237.5t60 -305.5t-60 -305.5t-160.5 -237t-233 -150t-275.5 -54.5q-138 0 -266 50.5t-227 139.5t-162.5 220t-73.5 284h-263v-674h-96v1454h96v-692h261q7 157 69.5 292t162 226.5t229.5 143t270 51.5zM1223 74
q123 0 237 47t202 130t140.5 207t52.5 269t-52.5 269t-140.5 207t-202 130t-237 47q-124 0 -238.5 -47t-202 -130t-140 -207t-52.5 -269t52.5 -269t140 -207t202 -130t238.5 -47z" />
    <glyph glyph-name="uni042F" unicode="&#x42f;" horiz-adv-x="1185" 
d="M614 1454h439v-1454h-97v541h-342q-27 0 -39 2l-370 -543h-111l383 555q-164 36 -254 154.5t-90 287.5q0 199 129 328t352 129zM627 633h329v729h-329q-184 0 -289 -96t-105 -269q0 -172 105 -268t289 -96z" />
    <glyph glyph-name="uni0430" unicode="&#x430;" 
d="M614 -20q-103 0 -197 36.5t-169 104t-119.5 174.5t-44.5 237q0 105 29 195.5t79.5 155t118 111t144.5 69t159 22.5q150 0 271 -73.5t174 -192.5h6v246h94v-1065h-94v246h-6q-53 -119 -174 -192.5t-271 -73.5zM623 68q84 0 162 29.5t141.5 85t102 146.5t38.5 203
t-38.5 203t-102 147t-141.5 85.5t-162 29.5t-162 -29.5t-141.5 -85t-101.5 -146.5t-38 -204q0 -91 25 -168t68 -131t99.5 -91.5t120 -55.5t130.5 -18z" />
    <glyph glyph-name="uni0431" unicode="&#x431;" 
d="M678 1085q103 0 197.5 -36.5t169.5 -104t120 -175t45 -237.5t-45 -237t-120 -174.5t-169.5 -104t-197.5 -36.5q-150 0 -270 73.5t-172 192.5h-7v-246h-94v1133q0 149 64 225t223 76h381q48 0 67.5 7t32.5 34h94q-11 -68 -51 -96.5t-131 -28.5h-373q-125 0 -169 -54
t-44 -184v-293h7q52 119 172 192.5t270 73.5zM670 68q84 0 161.5 29t141 84.5t101.5 146.5t38 204t-38 204t-101.5 146.5t-141 85t-161.5 29.5t-162 -29.5t-142 -85.5t-102.5 -147t-38.5 -203t38.5 -203t102.5 -146.5t142 -85t162 -29.5z" />
    <glyph glyph-name="uni0432" unicode="&#x432;" horiz-adv-x="1103" 
d="M780 588q117 -31 173.5 -104.5t56.5 -174.5q0 -140 -103.5 -224.5t-316.5 -84.5h-455v1065h475q158 0 244 -69t86 -183q0 -78 -42 -137t-118 -88zM598 979h-369v-361h373q117 0 180.5 49t63.5 136q0 176 -248 176zM602 86q313 0 313 223q0 106 -74.5 169t-238.5 63h-373
v-455h373z" />
    <glyph glyph-name="uni0433" unicode="&#x433;" horiz-adv-x="940" 
d="M858 1065v-86h-629v-979h-94v1065h723z" />
    <glyph glyph-name="uni0434" unicode="&#x434;" horiz-adv-x="1200" 
d="M1040 88h88v-231h-94v143h-868v-143h-94v231h65q59 86 73.5 247t14.5 525v205h815v-977zM227 88h719v891h-627v-119q0 -364 -15 -525t-77 -247z" />
    <glyph glyph-name="uni0435" unicode="&#x435;" horiz-adv-x="1196" 
d="M606 1085q103 0 197.5 -38t168 -108.5t112.5 -184.5t28 -254h-938q8 -136 73.5 -235.5t165 -148t218.5 -48.5q108 0 200 40t150 113l55 -55q-72 -89 -182 -137.5t-233 -48.5q-106 0 -202.5 37t-171.5 105.5t-119 175.5t-44 237q0 129 44 235.5t117.5 174t166.5 104
t194 36.5zM606 997q-108 0 -201 -46t-156.5 -142.5t-72.5 -228.5h852q-4 128 -64.5 225t-154 144.5t-203.5 47.5z" />
    <glyph glyph-name="uni0436" unicode="&#x436;" horiz-adv-x="1726" 
d="M1550 0l-483 522l-162 -162v-360h-94v360l-162 162l-483 -522h-113l537 582l-479 483h122l578 -586v586h94v-586l578 586h123l-480 -483l537 -582h-113z" />
    <glyph glyph-name="uni0437" unicode="&#x437;" horiz-adv-x="1011" 
d="M506 -20q-186 0 -300 94t-114 245h94q0 -116 90 -186t234 -70q134 0 224.5 60.5t90.5 173.5q0 116 -94 172.5t-252 56.5v74q142 0 213.5 57.5t71.5 143.5q0 90 -71 144t-189 54q-123 0 -199 -59.5t-76 -163.5h-94q0 138 101 222.5t268 84.5q161 0 257.5 -78t96.5 -198
q0 -78 -49.5 -144t-157.5 -94q121 -15 195 -89t74 -185q0 -140 -118.5 -227.5t-295.5 -87.5z" />
    <glyph glyph-name="uni0438" unicode="&#x438;" horiz-adv-x="1155" 
d="M135 0v1065h94v-924l697 924h96v-1065h-96v924l-697 -924h-94z" />
    <glyph glyph-name="uni0439" unicode="&#x439;" horiz-adv-x="1155" 
d="M578 1243q-136 0 -206.5 81t-68.5 192h90q2 -78 47.5 -132.5t137.5 -54.5q94 0 138 54t46 133h92q1 -52 -15 -99t-48 -87t-87 -63.5t-126 -23.5zM135 0v1065h94v-924l697 924h96v-1065h-96v924l-697 -924h-94z" />
    <glyph glyph-name="uni043A" unicode="&#x43a;" horiz-adv-x="1050" 
d="M874 0l-485 522l-160 -162v-360h-94v1065h94v-586l578 586h121l-477 -481l536 -584h-113z" />
    <glyph glyph-name="uni043B" unicode="&#x43b;" horiz-adv-x="1234" 
d="M1102 1065v-1065h-96v979h-662v-817q0 -89 -49.5 -131.5t-128.5 -42.5q-76 0 -125 37v84q61 -37 117 -37q48 0 70 26.5t22 85.5v881h852z" />
    <glyph glyph-name="uni043C" unicode="&#x43c;" horiz-adv-x="1411" 
d="M135 0v1065h96l476 -950l473 950h98v-1065h-96v885l-437 -885h-77l-439 885v-885h-94z" />
    <glyph glyph-name="uni043D" unicode="&#x43d;" horiz-adv-x="1140" 
d="M913 1065h95v-1065h-95v481h-684v-481h-94v1065h94v-496h684v496z" />
    <glyph glyph-name="uni043E" unicode="&#x43e;" horiz-adv-x="1259" 
d="M629 -20q-104 0 -201 37t-174 105.5t-123.5 175t-46.5 234.5t46.5 235t123.5 175t174 105.5t201 37.5q83 0 162 -23t149 -70t122.5 -112t83 -155t30.5 -193t-30.5 -193t-83 -155t-122.5 -111.5t-149 -69.5t-162 -23zM629 68q86 0 166 31t144 87.5t102 146.5t38 199
t-38 199t-102 147t-144 88t-166 31t-166 -31t-143.5 -88t-101.5 -147t-38 -199t38 -199t101.5 -146.5t143.5 -87.5t166 -31z" />
    <glyph glyph-name="uni043F" unicode="&#x43f;" horiz-adv-x="1124" 
d="M991 1065v-1065h-94v979h-668v-979h-94v1065h856z" />
    <glyph glyph-name="uni0440" unicode="&#x440;" 
d="M678 1085q103 0 197.5 -36.5t169.5 -104t120 -175t45 -237.5t-45 -237t-120 -174.5t-169.5 -104t-197.5 -36.5q-150 0 -270 73.5t-172 192.5h-7v-635h-94v1454h94v-246h7q52 119 172 192.5t270 73.5zM670 68q84 0 161.5 29t141 84.5t101.5 146.5t38 204t-38 204
t-101.5 146.5t-141 85t-161.5 29.5t-162 -29.5t-142 -85.5t-102.5 -147t-38.5 -203t38.5 -203t102.5 -146.5t142 -85t162 -29.5z" />
    <glyph glyph-name="uni0441" unicode="&#x441;" horiz-adv-x="1163" 
d="M627 -20q-103 0 -199.5 37t-173.5 105t-123.5 174t-46.5 234q0 129 46.5 236t123.5 175.5t173.5 106t199.5 37.5q142 0 264 -68t188 -194l-75 -41q-56 102 -156.5 158.5t-216.5 56.5q-85 0 -165 -31t-144 -88t-103 -147.5t-39 -200.5q0 -108 39 -197.5t103 -146
t144 -87.5t165 -31q116 0 216.5 56.5t156.5 158.5l75 -41q-66 -126 -188 -194t-264 -68z" />
    <glyph glyph-name="uni0442" unicode="&#x442;" horiz-adv-x="894" 
d="M823 1065v-86h-327v-979h-95v979h-329v86h751z" />
    <glyph glyph-name="uni0443" unicode="&#x443;" horiz-adv-x="1124" 
d="M961 1065h100l-457 -1065l-172 -389h-94l178 399l-453 1055h101l397 -938z" />
    <glyph glyph-name="uni0444" unicode="&#x444;" horiz-adv-x="2205" 
d="M1055 -389v635h-8q-52 -119 -172.5 -192.5t-270.5 -73.5q-100 0 -192 36t-166 103.5t-118 174.5t-44 238t44 238.5t118 174.5t166 103.5t192 36.5q150 0 270.5 -73.5t172.5 -192.5h8v666h94v-666h8q53 119 174 192.5t271 73.5q99 0 191 -36.5t166 -103.5t118.5 -174.5
t44.5 -238.5t-44.5 -238t-118.5 -174.5t-166 -103.5t-191 -36q-150 0 -271 73.5t-174 192.5h-8v-635h-94zM612 68q67 0 130.5 18t120 56t99.5 92t68 131t25 167q0 112 -38 203t-101.5 147t-141.5 85.5t-162 29.5q-83 0 -159 -29.5t-137.5 -85t-98.5 -146.5t-37 -204t37 -204
t99 -146.5t137.5 -84.5t158.5 -29zM1593 68q83 0 158.5 29t137.5 84.5t99 146.5t37 204t-37 204t-98.5 146.5t-137.5 85t-159 29.5q-84 0 -162 -29.5t-141.5 -85.5t-102 -147t-38.5 -203t38.5 -203t102 -146.5t141.5 -85t162 -29.5z" />
    <glyph glyph-name="uni0445" unicode="&#x445;" horiz-adv-x="1044" 
d="M53 0l416 543l-399 522h112l340 -449l340 449h113l-400 -522l416 -543h-114l-355 471l-354 -471h-115z" />
    <glyph glyph-name="uni0446" unicode="&#x446;" horiz-adv-x="1153" 
d="M991 88h88v-229h-94v141h-850v1065h94v-977h668v977h94v-977z" />
    <glyph glyph-name="uni0447" unicode="&#x447;" horiz-adv-x="1107" 
d="M881 1065h94v-1065h-94v418q-46 -71 -139 -120.5t-216 -49.5q-59 0 -113 12t-105.5 40.5t-89 71.5t-60.5 110t-23 151v432h94v-434q0 -138 84 -216.5t232 -78.5q150 0 243 79.5t93 215.5v434z" />
    <glyph glyph-name="uni0448" unicode="&#x448;" horiz-adv-x="1562" 
d="M135 0v1065h94v-977h506v977h94v-977h506v977h95v-1065h-1295z" />
    <glyph glyph-name="uni0449" unicode="&#x449;" horiz-adv-x="1589" 
d="M1430 88h88v-229h-95v141h-1288v1065h94v-977h506v977h94v-977h506v977h95v-977z" />
    <glyph glyph-name="uni044A" unicode="&#x44a;" horiz-adv-x="1093" 
d="M643 625q177 0 272 -83.5t95 -228.5q0 -147 -94.5 -230t-272.5 -83h-500v979h-143v86h238v-440h405zM637 88q278 0 278 225q0 226 -278 226h-399v-451h399z" />
    <glyph glyph-name="uni044B" unicode="&#x44b;" horiz-adv-x="1353" 
d="M633 625q178 0 273 -83.5t95 -228.5q0 -147 -94.5 -230t-273.5 -83h-498v1065h94v-440h404zM1124 1065h95v-1065h-95v1065zM629 88q150 0 213 59.5t63 165.5q0 226 -276 226h-400v-451h400z" />
    <glyph glyph-name="uni044C" unicode="&#x44c;" horiz-adv-x="1083" 
d="M633 625q178 0 273 -83.5t95 -228.5q0 -147 -94.5 -230t-273.5 -83h-498v1065h94v-440h404zM629 88q150 0 213 59.5t63 165.5q0 226 -276 226h-400v-451h400z" />
    <glyph glyph-name="uni044D" unicode="&#x44d;" horiz-adv-x="1163" 
d="M535 1085q103 0 200 -37.5t174 -106t123.5 -175.5t46.5 -236q0 -103 -30.5 -192t-83 -154t-121.5 -111.5t-148 -69.5t-161 -23q-142 0 -264.5 68.5t-186.5 193.5l74 41q57 -102 157 -158.5t215 -56.5q82 0 159.5 28.5t140.5 80.5t104 134.5t47 182.5h-371v75h371
q-7 101 -48 184t-104 135.5t-140 80.5t-159 28q-115 0 -215 -56.5t-157 -158.5l-74 41q64 125 186.5 193.5t264.5 68.5z" />
    <glyph glyph-name="uni044E" unicode="&#x44e;" horiz-adv-x="1638" 
d="M1010 1085q104 0 201 -37.5t174.5 -105.5t124 -175t46.5 -235t-46.5 -234.5t-124 -175t-174.5 -105.5t-201 -37q-99 0 -192.5 34t-169.5 97t-125 161t-56 217h-238v-489h-94v1065h94v-490h238q7 119 56 217.5t125 161.5t169.5 97t192.5 34zM1010 68q87 0 167 31
t143.5 87.5t101.5 146.5t38 199t-38 199t-101.5 147t-143.5 88t-167 31q-86 0 -166 -31t-143.5 -88t-101.5 -147t-38 -199t38 -199t101.5 -146.5t143.5 -87.5t166 -31z" />
    <glyph glyph-name="uni044F" unicode="&#x44f;" horiz-adv-x="1103" 
d="M969 1065v-1065h-95v430h-301l-362 -430h-117l369 430q-171 0 -261.5 87.5t-90.5 230.5t90.5 230t261.5 87h506zM465 516h409v463h-409q-137 0 -198.5 -64.5t-61.5 -166.5t61.5 -167t198.5 -65z" />
    <glyph glyph-name="uni0451" unicode="&#x451;" horiz-adv-x="1196" 
d="M463 1454v-100h-94v100h94zM852 1454v-100h-96v100h96zM606 1085q103 0 197.5 -38t168 -108.5t112.5 -184.5t28 -254h-938q8 -136 73.5 -235.5t165 -148t218.5 -48.5q108 0 200 40t150 113l55 -55q-72 -89 -182 -137.5t-233 -48.5q-106 0 -202.5 37t-171.5 105.5
t-119 175.5t-44 237q0 129 44 235.5t117.5 174t166.5 104t194 36.5zM606 997q-108 0 -201 -46t-156.5 -142.5t-72.5 -228.5h852q-4 128 -64.5 225t-154 144.5t-203.5 47.5z" />
    <glyph glyph-name="uni0453" unicode="&#x453;" horiz-adv-x="940" 
d="M719 1516l-129 -316h-92l125 316h96zM858 1065v-86h-629v-979h-94v1065h723z" />
    <glyph glyph-name="uni0454" unicode="&#x454;" horiz-adv-x="1163" 
d="M631 68q116 0 216.5 56.5t156.5 158.5l75 -41q-66 -126 -188 -194t-264 -68q-103 0 -199.5 37t-173.5 105t-123.5 174t-46.5 234q0 129 46.5 236t123.5 175.5t173.5 106t199.5 37.5q142 0 264 -68t188 -194l-75 -41q-56 102 -156.5 158.5t-216.5 56.5q-81 0 -157.5 -28
t-139.5 -80.5t-104 -135.5t-48 -184h371v-75h-371q6 -100 47 -182.5t104 -134.5t140 -80.5t158 -28.5z" />
    <glyph glyph-name="uni0456" unicode="&#x456;" horiz-adv-x="362" 
d="M135 1356v98h94v-98h-94zM135 0v1065h94v-1065h-94z" />
    <glyph glyph-name="uni0457" unicode="&#x457;" horiz-adv-x="362" 
d="M-59 1354v100h94v-100h-94zM328 1354v100h96v-100h-96zM135 0v1065h94v-1065h-94z" />
    <glyph glyph-name="uni0490" unicode="&#x490;" horiz-adv-x="1024" 
d="M834 1550h96v-188h-699v-1362h-96v1454h699v96z" />
    <glyph glyph-name="uni0491" unicode="&#x491;" horiz-adv-x="940" 
d="M764 1159h94v-180h-629v-979h-94v1065h629v94z" />
    <glyph glyph-name="Wgrave" unicode="&#x1e80;" horiz-adv-x="2004" 
d="M1044 1589h-92l-129 316h97zM506 0l-432 1454h100l379 -1274l408 1274h81l410 -1274l377 1274h102l-434 -1454h-80l-416 1280l-413 -1280h-82z" />
    <glyph glyph-name="wgrave" unicode="&#x1e81;" horiz-adv-x="1894" 
d="M991 1200h-92l-129 316h96zM1735 1065h98l-408 -1065h-90l-387 948l-389 -948h-88l-408 1065h99l354 -936l383 936h96l383 -936z" />
    <glyph glyph-name="Wacute" unicode="&#x1e82;" horiz-adv-x="2004" 
d="M973 1589l125 316h96l-129 -316h-92zM506 0l-432 1454h100l379 -1274l408 1274h81l410 -1274l377 1274h102l-434 -1454h-80l-416 1280l-413 -1280h-82z" />
    <glyph glyph-name="wacute" unicode="&#x1e83;" horiz-adv-x="1894" 
d="M1139 1516l-129 -316h-92l124 316h97zM1735 1065h98l-408 -1065h-90l-387 948l-389 -948h-88l-408 1065h99l354 -936l383 936h96l383 -936z" />
    <glyph glyph-name="Wdieresis" unicode="&#x1e84;" horiz-adv-x="2004" 
d="M762 1743v100h94v-100h-94zM1149 1743v100h96v-100h-96zM506 0l-432 1454h100l379 -1274l408 1274h81l410 -1274l377 1274h102l-434 -1454h-80l-416 1280l-413 -1280h-82z" />
    <glyph glyph-name="wdieresis" unicode="&#x1e85;" horiz-adv-x="1894" 
d="M801 1454v-100h-94v100h94zM1190 1454v-100h-96v100h96zM1735 1065h98l-408 -1065h-90l-387 948l-389 -948h-88l-408 1065h99l354 -936l383 936h96l383 -936z" />
    <glyph glyph-name="Ygrave" unicode="&#x1ef2;" horiz-adv-x="1265" 
d="M674 1589h-92l-129 316h96zM584 0v662l-510 792h110l449 -700l446 700h113l-512 -792v-662h-96z" />
    <glyph glyph-name="ygrave" unicode="&#x1ef3;" horiz-adv-x="1124" 
d="M600 1200h-92l-129 316h96zM961 1065h100l-457 -1065l-172 -389h-94l178 399l-453 1055h101l397 -938z" />
    <glyph glyph-name="endash" unicode="&#x2013;" horiz-adv-x="1228" 
d="M92 541v75h1045v-75h-1045z" />
    <glyph glyph-name="emdash" unicode="&#x2014;" horiz-adv-x="1351" 
d="M92 541v75h1168v-75h-1168z" />
    <glyph glyph-name="quoteleft" unicode="&#x2018;" horiz-adv-x="356" 
d="M295 1454l-141 -403h-93l146 403h88z" />
    <glyph glyph-name="quoteright" unicode="&#x2019;" horiz-adv-x="356" 
d="M61 1051l144 403h90l-143 -403h-91z" />
    <glyph glyph-name="quotesinglbase" unicode="&#x201a;" horiz-adv-x="366" 
d="M61 -289l144 404h90l-143 -404h-91z" />
    <glyph glyph-name="quotedblleft" unicode="&#x201c;" horiz-adv-x="573" 
d="M295 1454l-141 -403h-93l146 403h88zM512 1454l-141 -403h-92l143 403h90z" />
    <glyph glyph-name="quotedblright" unicode="&#x201d;" horiz-adv-x="573" 
d="M61 1051l144 403h90l-143 -403h-91zM279 1051l141 403h92l-143 -403h-90z" />
    <glyph glyph-name="quotedblbase" unicode="&#x201e;" horiz-adv-x="583" 
d="M61 -289l144 404h90l-143 -404h-91zM279 -289l141 404h92l-143 -404h-90z" />
    <glyph glyph-name="dagger" unicode="&#x2020;" horiz-adv-x="608" 
d="M506 1161v-74h-162l-14 -428h-47l-17 428h-162v74h160l-10 293h102l-10 -293h160z" />
    <glyph glyph-name="daggerdbl" unicode="&#x2021;" horiz-adv-x="608" 
d="M344 1161h162v-74h-164l-12 -301h-47l-13 301h-166v74h162l-12 293h102zM330 668l12 -301h164v-74h-162l12 -293h-102l12 293h-162v74h166l13 301h47z" />
    <glyph glyph-name="bullet" unicode="&#x2022;" horiz-adv-x="329" 
d="M176 504q-30 0 -46.5 17.5t-16.5 43.5t17 45t46 19q28 0 45 -19t17 -45t-17 -43.5t-45 -17.5z" />
    <glyph glyph-name="ellipsis" unicode="&#x2026;" horiz-adv-x="1300" 
d="M145 -20q-30 0 -46.5 17.5t-16.5 43.5t17 44.5t46 18.5q28 0 45 -18.5t17 -44.5t-17 -43.5t-45 -17.5zM651 -20q-30 0 -46.5 17.5t-16.5 43.5t17 44.5t46 18.5q28 0 45 -18.5t17 -44.5t-17 -43.5t-45 -17.5zM1157 -20q-30 0 -46.5 17.5t-16.5 43.5t17 44.5t46 18.5
q28 0 45 -18.5t17 -44.5t-17 -43.5t-45 -17.5z" />
    <glyph glyph-name="perthousand" unicode="&#x2030;" horiz-adv-x="2048" 
d="M326 961q-105 0 -179.5 73t-74.5 178t74.5 178.5t179.5 73.5t179.5 -73.5t74.5 -178.5t-74.5 -178t-179.5 -73zM285 0l-74 51l932 1405l71 -51zM326 1038q75 0 125.5 48.5t50.5 125.5t-50.5 125.5t-125.5 48.5t-125.5 -48.5t-50.5 -125.5t50.5 -125.5t125.5 -48.5z
M1104 -10q-105 0 -179.5 73.5t-74.5 178.5t74.5 178.5t179.5 73.5t179.5 -73.5t74.5 -178.5t-74.5 -178.5t-179.5 -73.5zM1722 -10q-105 0 -179.5 73.5t-74.5 178.5t74.5 178.5t179.5 73.5t179.5 -73.5t74.5 -178.5t-74.5 -178.5t-179.5 -73.5zM1104 68q73 0 123.5 48.5
t50.5 125.5t-50.5 125.5t-123.5 48.5t-123.5 -48.5t-50.5 -125.5t50.5 -125.5t123.5 -48.5zM1722 68q73 0 123.5 48.5t50.5 125.5t-50.5 125.5t-123.5 48.5t-123.5 -48.5t-50.5 -125.5t50.5 -125.5t123.5 -48.5z" />
    <glyph glyph-name="guilsinglleft" unicode="&#x2039;" horiz-adv-x="468" 
d="M379 276l-297 295v64l297 295l39 -41l-264 -287l264 -285z" />
    <glyph glyph-name="guilsinglright" unicode="&#x203a;" horiz-adv-x="468" 
d="M90 276l-39 41l264 285l-264 287l39 41l297 -295v-64z" />
    <glyph glyph-name="fraction" unicode="&#x2044;" horiz-adv-x="221" 
d="M-389 0l893 1434h86l-881 -1434h-98z" />
    <glyph glyph-name="Euro" unicode="&#x20ac;" horiz-adv-x="1536" 
d="M895 74q58 0 115 10t121.5 33t127.5 69.5t113 112.5l70 -57q-58 -76 -129.5 -129.5t-145.5 -81t-140.5 -39.5t-133.5 -12q-179 0 -332.5 75t-257 214t-133.5 319h-139v74h129q-2 20 -2 65v18h-127v74h131q21 192 123 342.5t260.5 232t345.5 81.5q67 0 134 -12t141 -39.5
t146 -82t130 -129.5l-70 -57q-50 66 -113 112.5t-127.5 69.5t-121.5 33t-115 10q-162 0 -298.5 -68.5t-225.5 -197t-109 -295.5h453v-74h-459v-18q0 -45 2 -65h457v-74h-447q44 -231 218.5 -372.5t408.5 -141.5z" />
    <glyph glyph-name="trademark" unicode="&#x2122;" horiz-adv-x="1114" 
d="M274 1085v310h-141v59h350v-59h-141v-310h-68zM551 1085v369h65l148 -289l151 289h66v-369h-66v246l-122 -246h-54l-123 246v-246h-65z" />
    <glyph glyph-name="oneeighth" unicode="&#x215b;" horiz-adv-x="1138" 
d="M129 901v453l-35 -23l-37 64l72 41h76v-535h-76zM51 0l893 1434h86l-880 -1434h-99zM899 -4q-75 0 -130.5 46.5t-55.5 115.5q0 44 23 79.5t65 55.5q-62 41 -62 108q0 54 44.5 96t115.5 42q74 0 118 -41.5t44 -96.5q0 -69 -62 -108q88 -45 88 -135q0 -69 -55 -115.5
t-133 -46.5zM899 322q36 0 60 23.5t24 55.5q0 31 -20 52.5t-64 21.5q-40 0 -62 -22t-22 -52q0 -31 26 -55t58 -24zM899 59q50 0 80.5 27.5t30.5 71.5t-31 72t-80 28q-44 0 -77.5 -28.5t-33.5 -71.5q0 -42 33.5 -70.5t77.5 -28.5z" />
    <glyph glyph-name="threeeighths" unicode="&#x215c;" horiz-adv-x="1175" 
d="M238 893q-83 0 -136.5 55.5t-50.5 130.5h78q0 -50 30 -85.5t79 -35.5q45 0 77.5 28t32.5 71q0 55 -38.5 76.5t-112.5 21.5v59q66 0 97.5 23.5t31.5 62.5q0 32 -25.5 54t-62.5 22q-44 0 -70.5 -29t-26.5 -83h-75q-1 77 47.5 126.5t124.5 49.5q66 0 114.5 -42t48.5 -98
q0 -65 -61 -108q38 -16 62 -50.5t24 -84.5q0 -69 -56 -116.5t-132 -47.5zM92 0l893 1434h86l-881 -1434h-98zM936 -4q-75 0 -130.5 46.5t-55.5 115.5q0 44 23 79.5t65 55.5q-62 41 -62 108q0 54 44.5 96t115.5 42q74 0 118 -41.5t44 -96.5q0 -69 -62 -108q88 -45 88 -135
q0 -69 -55 -115.5t-133 -46.5zM936 322q36 0 60 23.5t24 55.5q0 31 -20 52.5t-64 21.5q-40 0 -62 -22t-22 -52q0 -31 26 -55t58 -24zM936 59q50 0 80.5 27.5t30.5 71.5t-31 72t-80 28q-44 0 -77.5 -28.5t-33.5 -71.5q0 -42 33.5 -70.5t77.5 -28.5z" />
    <glyph glyph-name="fiveeighths" unicode="&#x215d;" horiz-adv-x="1179" 
d="M236 893q-67 0 -119.5 38.5t-65.5 88.5l68 39q3 -42 35.5 -71.5t81.5 -29.5q47 0 81.5 35.5t34.5 89.5q0 51 -33.5 87t-74.5 36q-72 0 -117 -59l-66 16l37 273h283v-66h-213l-16 -119q47 21 92 21q72 0 129 -55t57 -134t-57 -134.5t-137 -55.5zM92 0l893 1434h86
l-881 -1434h-98zM940 -4q-75 0 -130.5 46.5t-55.5 115.5q0 44 23 79.5t65 55.5q-62 41 -62 108q0 54 44.5 96t115.5 42q74 0 118 -41.5t44 -96.5q0 -69 -62 -108q88 -45 88 -135q0 -69 -55 -115.5t-133 -46.5zM940 322q36 0 60 23.5t24 55.5q0 31 -20 52.5t-64 21.5
q-40 0 -62 -22t-22 -52q0 -31 26 -55t58 -24zM940 59q50 0 80.5 27.5t30.5 71.5t-31 72t-80 28q-44 0 -77.5 -28.5t-33.5 -71.5q0 -42 33.5 -70.5t77.5 -28.5z" />
    <glyph glyph-name="seveneighths" unicode="&#x215e;" horiz-adv-x="1138" 
d="M121 901l182 469h-248v66h355l-209 -535h-80zM51 0l893 1434h86l-880 -1434h-99zM899 -4q-75 0 -130.5 46.5t-55.5 115.5q0 44 23 79.5t65 55.5q-62 41 -62 108q0 54 44.5 96t115.5 42q74 0 118 -41.5t44 -96.5q0 -69 -62 -108q88 -45 88 -135q0 -69 -55 -115.5
t-133 -46.5zM899 322q36 0 60 23.5t24 55.5q0 31 -20 52.5t-64 21.5q-40 0 -62 -22t-22 -52q0 -31 26 -55t58 -24zM899 59q50 0 80.5 27.5t30.5 71.5t-31 72t-80 28q-44 0 -77.5 -28.5t-33.5 -71.5q0 -42 33.5 -70.5t77.5 -28.5z" />
    <glyph glyph-name="partialdiff" unicode="&#x2202;" horiz-adv-x="1128" 
d="M805 952q5 -7 34.5 -48t42.5 -61t40 -63.5t41 -77t31 -78t24.5 -91t7.5 -93.5q0 -204 -132 -332t-329 -128q-196 0 -328.5 127t-132.5 327q0 196 130 319.5t323 123.5q137 0 254 -84l-471 661h106zM565 70q153 0 260 98t107 262q0 163 -107 260.5t-260 97.5
q-73 0 -139.5 -24.5t-117.5 -69.5t-81 -113.5t-30 -150.5q0 -164 107.5 -262t260.5 -98z" />
    <glyph glyph-name="product" unicode="&#x220f;" horiz-adv-x="1320" 
d="M92 -389v1823h1137v-1823h-86v1726h-965v-1726h-86z" />
    <glyph glyph-name="summation" unicode="&#x2211;" horiz-adv-x="1325" 
d="M92 -389l563 911l-563 912h1141v-101h-963l502 -811l-502 -811h963v-100h-1141z" />
    <glyph glyph-name="minus" unicode="&#x2212;" horiz-adv-x="870" 
d="M92 541v75h686v-75h-686z" />
    <glyph glyph-name="radical" unicode="&#x221a;" horiz-adv-x="1331" 
d="M637 -389l-330 971h-215v94h283l305 -922l467 1680h92l-506 -1823h-96z" />
    <glyph glyph-name="infinity" unicode="&#x221e;" horiz-adv-x="1671" 
d="M1225 868q138 0 234.5 -95.5t96.5 -235.5q0 -145 -96.5 -241.5t-234.5 -96.5q-112 0 -205 67.5t-184 192.5q-90 -124 -183.5 -192t-203.5 -68q-140 0 -237 96.5t-97 241.5q0 140 97.5 235.5t236.5 95.5q109 0 203 -67t184 -189q91 123 184 189.5t205 66.5zM453 289
q163 0 327 248q-71 106 -155 173.5t-172 67.5q-104 0 -173 -69.5t-69 -171.5q0 -104 69.5 -176t172.5 -72zM1219 289q103 0 172 72t69 176q0 102 -68.5 171.5t-172.5 69.5q-88 0 -172.5 -67.5t-155.5 -173.5q72 -109 156 -178.5t172 -69.5z" />
    <glyph glyph-name="integral" unicode="&#x222b;" horiz-adv-x="468" 
d="M-125 -389v86q107 0 153 47.5t46 179.5v1194q0 95 19 158.5t59 97.5t90.5 47t124.5 13v-86q-106 0 -151.5 -48t-45.5 -180v-1194q0 -96 -19 -159t-59.5 -96.5t-91 -46.5t-125.5 -13z" />
    <glyph glyph-name="approxequal" unicode="&#x2248;" horiz-adv-x="792" 
d="M530 614q-37 0 -68 14.5t-52.5 35t-42.5 41t-46.5 35t-54.5 14.5q-44 0 -68 -29t-24 -72h-82q0 89 48.5 135t121.5 46q37 0 68 -14.5t52.5 -35t42.5 -41t46.5 -35t54.5 -14.5q44 0 68 28.5t24 70.5h82q0 -87 -48.5 -133t-121.5 -46zM530 287q-37 0 -68 14.5t-52.5 34.5
t-42.5 40.5t-46.5 35t-54.5 14.5q-44 0 -68 -28t-24 -70h-82q0 87 48.5 132.5t121.5 45.5q37 0 68 -14.5t52.5 -35t42.5 -40.5t46.5 -34.5t54.5 -14.5q44 0 68 28.5t24 71.5h82q0 -89 -48.5 -134.5t-121.5 -45.5z" />
    <glyph glyph-name="notequal" unicode="&#x2260;" horiz-adv-x="870" 
d="M778 702h-252l-96 -249h348v-76h-377l-147 -377h-84l147 377h-225v76h254l96 249h-350v78h381l143 369h84l-143 -369h221v-78z" />
    <glyph glyph-name="lessequal" unicode="&#x2264;" horiz-adv-x="888" 
d="M795 322l-703 411v70l703 411v-88l-615 -358l615 -356v-90zM92 78h703v-78h-703v78z" />
    <glyph glyph-name="greaterequal" unicode="&#x2265;" horiz-adv-x="886" 
d="M92 322v90l615 356l-615 358v88l703 -411v-70zM795 78v-78h-703v78h703z" />
    <glyph glyph-name="lozenge" unicode="&#x25ca;" horiz-adv-x="937" 
d="M528 1434l318 -717l-318 -717h-118l-318 717l318 717h118zM469 92l276 625l-276 624l-276 -624z" />
    <glyph glyph-name="M.ss01" horiz-adv-x="1816" 
d="M113 0l120 1454h109l567 -1329l566 1329h108l121 -1454h-100l-101 1282l-551 -1282h-88l-547 1282l-104 -1282h-100z" />
    <glyph glyph-name="i.loclTRK" horiz-adv-x="370" 
d="M133 1354v100h94v-100h-94zM143 0v1065h95v-1065h-95z" />
    <glyph glyph-name="i.ss01" horiz-adv-x="342" 
d="M172 1339q-30 0 -50 20t-20 50q0 28 20.5 47t49.5 19q28 0 47 -19t19 -47q0 -30 -19 -50t-47 -20zM123 0v1065h94v-1065h-94z" />
    <glyph glyph-name="j.ss01" horiz-adv-x="344" 
d="M174 1339q-31 0 -50.5 19.5t-19.5 50.5q0 28 20 47t50 19q28 0 47 -19t19 -47q0 -30 -19 -50t-47 -20zM-195 -395v88h37q67 0 115 13t88 45t60 92.5t20 148.5v1073h94v-1075q0 -91 -19 -159t-52 -111t-82.5 -69t-104 -36t-123.5 -10h-33z" />
    <glyph glyph-name="f_t" horiz-adv-x="1136" 
d="M1042 983h-202v-803q0 -106 102 -106q46 0 96 22v-80q-45 -28 -112 -28q-85 0 -134 42.5t-49 127.5v825h-473v-983h-94v983h-113v82h113v152q0 63 16 112.5t41 79.5t59 49.5t68 27t70 7.5q82 0 150 -41v-80q-61 35 -140 35q-170 0 -170 -201v-141h473v272h97v-272h202
v-82z" />
    <glyph glyph-name="t_t" horiz-adv-x="1177" 
d="M1083 983h-202v-803q0 -106 102 -106q46 0 96 22v-80q-45 -28 -112 -28q-85 0 -133 42.5t-48 127.5v825h-14v-2h-391v2h-70v-803q0 -106 105 -106q46 0 96 22v-80q-45 -28 -113 -28q-86 0 -134 42.5t-48 127.5v825h-133v82h133v272h94v-272h475v272h95v-272h202v-82z" />
    <glyph glyph-name="zero.ss01" horiz-adv-x="1327" 
d="M664 -20q-247 0 -398 200t-151 547t151 547.5t398 200.5t397.5 -200.5t150.5 -547.5t-150.5 -547t-397.5 -200zM664 70q203 0 327.5 173.5t124.5 483.5q0 309 -125 484t-327 175q-203 0 -328 -175t-125 -484q0 -310 125 -483.5t328 -173.5z" />
    <glyph glyph-name="zero.tf" horiz-adv-x="1433" 
d="M739 -20q-248 0 -399.5 200t-151.5 547t151.5 547.5t399.5 200.5q247 0 398 -200.5t151 -547.5t-151 -547t-398 -200zM739 70q203 0 328 173.5t125 483.5q0 309 -125 484t-328 175q-204 0 -329 -175t-125 -484q0 -310 125 -483.5t329 -173.5z" />
    <glyph glyph-name="one.tf" horiz-adv-x="1433" 
d="M684 0v1362h-184v92h278v-1454h-94z" />
    <glyph glyph-name="two.tf" horiz-adv-x="1433" 
d="M272 0l482 586q18 22 55.5 67t54 65t46 59t43 61t32.5 57t27.5 62t15 60.5t6.5 67.5q0 136 -85.5 217.5t-231.5 81.5q-149 0 -244.5 -88t-95.5 -249v-35h-94v43q0 189 121.5 304.5t312.5 115.5q188 0 299.5 -108t111.5 -273q0 -45 -7.5 -88t-26 -85.5t-33 -72.5
t-46 -72.5t-45.5 -60.5t-51 -62t-45 -53l-428 -514h689v-86h-863z" />
    <glyph glyph-name="three.tf" horiz-adv-x="1433" 
d="M711 -20q-170 0 -292.5 86t-166.5 223l76 39q41 -117 142 -188.5t243 -71.5q78 0 147 23.5t123 68.5t85.5 117t31.5 161q0 133 -67.5 226t-178.5 127t-240 6l375 571h-651v86h803l-383 -573q83 1 160.5 -28t140 -83.5t100 -140t37.5 -189.5q0 -139 -66 -245
t-175.5 -160.5t-243.5 -54.5z" />
    <glyph glyph-name="four.tf" horiz-adv-x="1433" 
d="M1163 494v-88h-153v-406h-97v406h-643v88l643 960h97v-960h153zM371 494h542v815z" />
    <glyph glyph-name="five.tf" horiz-adv-x="1433" 
d="M692 -20q-166 0 -287 82.5t-174 209.5l78 43q40 -103 143 -175t242 -72q171 0 288.5 113t117.5 292q0 178 -114 293t-284 115q-103 0 -195 -45.5t-153 -133.5l-82 27l99 725h678v-86h-603l-79 -551q63 71 152.5 109.5t191.5 38.5q131 0 240 -59.5t175 -173.5t66 -259
q0 -218 -142 -355.5t-358 -137.5z" />
    <glyph glyph-name="six.tf" horiz-adv-x="1433" 
d="M750 877q192 0 322 -123.5t130 -319.5q0 -200 -132.5 -327t-328.5 -127q-197 0 -328.5 128t-131.5 332q0 42 7.5 84.5t15.5 76t27.5 75.5t30.5 65t37.5 64t35 53.5t37 51.5t30.5 42l356 502h109l-469 -661q112 84 252 84zM741 70q98 0 181 41.5t135.5 125.5t52.5 193
q0 162 -108.5 260t-260.5 98q-73 0 -139.5 -24.5t-117.5 -69.5t-81 -113.5t-30 -150.5q0 -164 107.5 -262t260.5 -98z" />
    <glyph glyph-name="seven.tf" horiz-adv-x="1433" 
d="M475 0l524 1368h-696v86h823l-553 -1454h-98z" />
    <glyph glyph-name="eight.tf" horiz-adv-x="1433" 
d="M735 -20q-122 0 -225 52t-166 151t-63 225q0 137 73.5 238t194.5 153q-89 53 -136.5 137t-47.5 182q0 148 102.5 252.5t267.5 104.5q164 0 266.5 -105t102.5 -252q0 -98 -47.5 -182t-136.5 -137q122 -52 195 -153t73 -238q0 -126 -63.5 -225t-166 -151t-223.5 -52z
M735 834q118 0 199.5 80.5t81.5 199.5q0 111 -77 191.5t-204 80.5q-128 0 -204 -80t-76 -192q0 -119 81 -199.5t199 -80.5zM735 70q95 0 175 40t130 118.5t50 179.5q0 150 -101.5 245t-253.5 95q-153 0 -253.5 -94.5t-100.5 -245.5t104 -244.5t250 -93.5z" />
    <glyph glyph-name="nine.tf" horiz-adv-x="1433" 
d="M723 1475q197 0 329 -128.5t132 -332.5q0 -42 -7.5 -84.5t-15.5 -76t-27.5 -75.5t-30.5 -65t-37.5 -64t-35 -53.5t-37 -51.5t-30.5 -42l-357 -502h-108l469 662q-112 -84 -252 -84q-193 0 -323 123t-130 319q0 200 132.5 327.5t328.5 127.5zM354 1024q0 -162 108.5 -260
t260.5 -98q99 0 182 41.5t135 124.5t52 192q0 164 -108 262t-261 98q-98 0 -181 -41.5t-135.5 -125.5t-52.5 -193z" />
    <glyph glyph-name="zero.dnom" horiz-adv-x="532" 
d="M266 -4q-93 0 -154 72t-61 186v27q0 114 61 186t154 72q95 0 155 -71.5t60 -186.5v-27q0 -115 -60 -186.5t-155 -71.5zM266 59q64 0 102 52t38 143v27q0 91 -38 142.5t-102 51.5q-60 0 -99.5 -52t-39.5 -142v-27q0 -90 39.5 -142.5t99.5 -52.5z" />
    <glyph glyph-name="one.dnom" horiz-adv-x="249" 
d="M123 0v453l-35 -23l-37 64l72 41h76v-535h-76z" />
    <glyph glyph-name="two.dnom" horiz-adv-x="452" 
d="M57 0v66l140 141q56 58 74 78.5t32 47t14 54.5q0 38 -28.5 64t-65.5 26q-39 0 -67.5 -26.5t-28.5 -75.5v-29h-76v29q0 72 50.5 119t121.5 47q70 0 121 -46.5t51 -107.5q0 -54 -29.5 -96.5t-109.5 -124.5l-96 -100h241v-66h-344z" />
    <glyph glyph-name="three.dnom" horiz-adv-x="477" 
d="M238 -8q-83 0 -136.5 55.5t-50.5 130.5h78q0 -50 30 -85.5t79 -35.5q45 0 77.5 28t32.5 71q0 55 -38.5 76.5t-112.5 21.5v59q66 0 97.5 23.5t31.5 62.5q0 32 -25.5 54t-62.5 22q-44 0 -70.5 -29.5t-26.5 -83.5h-75q-1 77 47.5 127t124.5 50q66 0 114.5 -42t48.5 -98
q0 -65 -61 -108q38 -16 62 -50.5t24 -84.5q0 -69 -56 -116.5t-132 -47.5z" />
    <glyph glyph-name="four.dnom" horiz-adv-x="503" 
d="M322 0v156h-271l271 379h75v-316h56v-63h-56v-156h-75zM188 219h134v195z" />
    <glyph glyph-name="five.dnom" horiz-adv-x="481" 
d="M236 -8q-67 0 -119.5 38.5t-65.5 88.5l68 39q3 -42 35.5 -71.5t81.5 -29.5q47 0 81.5 35.5t34.5 89.5q0 51 -33.5 87t-74.5 36q-72 0 -117 -59l-66 16l37 273h283v-66h-213l-16 -119q47 21 92 21q72 0 129 -55t57 -134t-57 -134.5t-137 -55.5z" />
    <glyph glyph-name="six.dnom" horiz-adv-x="456" 
d="M229 -8q-70 0 -124 51.5t-54 122.5q0 32 11 63.5t21 47.5t36.5 50.5t34.5 45.5l116 162h86l-139 -197h12q69 0 123 -51.5t54 -120.5q0 -71 -54 -122.5t-123 -51.5zM229 57q38 0 69.5 31t31.5 78t-31.5 76.5t-69.5 29.5q-45 0 -73.5 -28.5t-28.5 -77.5q0 -47 31.5 -78
t70.5 -31z" />
    <glyph glyph-name="seven.dnom" horiz-adv-x="456" 
d="M117 0l182 469h-248v66h355l-209 -535h-80z" />
    <glyph glyph-name="eight.dnom" horiz-adv-x="477" 
d="M238 -4q-75 0 -131 46.5t-56 115.5q0 44 23 79.5t65 55.5q-61 40 -61 108q0 54 44.5 96t115.5 42q74 0 117.5 -41.5t43.5 -96.5q0 -70 -61 -108q88 -45 88 -135q0 -69 -55 -115.5t-133 -46.5zM238 322q36 0 60 23.5t24 55.5q0 31 -20 52.5t-64 21.5q-40 0 -62 -22
t-22 -52q0 -31 26 -55t58 -24zM238 59q49 0 79.5 27.5t30.5 71.5t-30.5 72t-79.5 28q-44 0 -77.5 -28.5t-33.5 -71.5q0 -42 33.5 -70.5t77.5 -28.5z" />
    <glyph glyph-name="nine.dnom" horiz-adv-x="458" 
d="M100 0l140 195h-11q-71 0 -124.5 52.5t-53.5 121.5q0 71 54 121.5t124 50.5t124.5 -50.5t54.5 -121.5q0 -26 -5.5 -49.5t-18.5 -46t-22 -36.5t-30 -40t-29 -37l-115 -160h-88zM229 260q45 0 73 30t28 79q0 45 -31.5 75.5t-69.5 30.5q-39 0 -70.5 -30.5t-31.5 -75.5
q0 -47 31.5 -78t70.5 -31z" />
    <glyph glyph-name="zero.numr" horiz-adv-x="532" 
d="M266 897q-93 0 -154 72t-61 186v27q0 114 61 186t154 72q95 0 155 -71.5t60 -186.5v-27q0 -115 -60 -186.5t-155 -71.5zM266 961q64 0 102 51.5t38 142.5v27q0 91 -38 142.5t-102 51.5q-60 0 -99.5 -52t-39.5 -142v-27q0 -90 39.5 -142t99.5 -52z" />
    <glyph glyph-name="one.numr" horiz-adv-x="249" 
d="M123 901v453l-35 -23l-37 64l72 41h76v-535h-76z" />
    <glyph glyph-name="two.numr" horiz-adv-x="452" 
d="M57 901v66l140 141q56 58 74 78.5t32 47t14 54.5q0 38 -28.5 64t-65.5 26q-39 0 -67.5 -26.5t-28.5 -75.5v-29h-76v29q0 72 50.5 119t121.5 47q70 0 121 -46.5t51 -107.5q0 -54 -29.5 -96.5t-109.5 -124.5l-96 -100h241v-66h-344z" />
    <glyph glyph-name="three.numr" horiz-adv-x="477" 
d="M238 893q-83 0 -136.5 55.5t-50.5 130.5h78q0 -50 30 -85.5t79 -35.5q45 0 77.5 28t32.5 71q0 55 -38.5 76.5t-112.5 21.5v59q66 0 97.5 23.5t31.5 62.5q0 32 -25.5 54t-62.5 22q-44 0 -70.5 -29t-26.5 -83h-75q-1 77 47.5 126.5t124.5 49.5q66 0 114.5 -42t48.5 -98
q0 -65 -61 -108q38 -16 62 -50.5t24 -84.5q0 -69 -56 -116.5t-132 -47.5z" />
    <glyph glyph-name="four.numr" horiz-adv-x="503" 
d="M322 901v156h-271l271 379h75v-316h56v-63h-56v-156h-75zM188 1120h134v195z" />
    <glyph glyph-name="five.numr" horiz-adv-x="481" 
d="M236 893q-67 0 -119.5 38.5t-65.5 88.5l68 39q3 -42 35.5 -71.5t81.5 -29.5q47 0 81.5 35.5t34.5 89.5q0 51 -33.5 87t-74.5 36q-72 0 -117 -59l-66 16l37 273h283v-66h-213l-16 -119q47 21 92 21q72 0 129 -55t57 -134t-57 -134.5t-137 -55.5z" />
    <glyph glyph-name="six.numr" horiz-adv-x="456" 
d="M229 893q-70 0 -124 51.5t-54 122.5q0 32 11 63.5t21 47.5t36.5 50.5t34.5 45.5l116 162h86l-139 -197h12q69 0 123 -51.5t54 -120.5q0 -71 -54 -122.5t-123 -51.5zM229 958q38 0 69.5 31t31.5 78t-31.5 77t-69.5 30q-45 0 -73.5 -29t-28.5 -78q0 -47 31.5 -78t70.5 -31z
" />
    <glyph glyph-name="seven.numr" horiz-adv-x="456" 
d="M117 901l182 469h-248v66h355l-209 -535h-80z" />
    <glyph glyph-name="eight.numr" horiz-adv-x="477" 
d="M238 897q-75 0 -131 46.5t-56 115.5q0 44 23 79.5t65 55.5q-61 40 -61 109q0 54 44 95.5t116 41.5q74 0 117.5 -41t43.5 -96q0 -71 -61 -109q88 -45 88 -135q0 -69 -55 -115.5t-133 -46.5zM238 1223q36 0 60 24t24 56q0 31 -20 52t-64 21q-40 0 -62 -21.5t-22 -51.5
q0 -31 26 -55.5t58 -24.5zM238 961q50 0 80 27t30 71t-30.5 72t-79.5 28q-44 0 -77.5 -28.5t-33.5 -71.5q0 -42 33.5 -70t77.5 -28z" />
    <glyph glyph-name="nine.numr" horiz-adv-x="458" 
d="M100 901l140 195h-11q-71 0 -124.5 52.5t-53.5 121.5q0 71 54 121.5t124 50.5t124.5 -50.5t54.5 -121.5q0 -26 -5.5 -49.5t-18.5 -46t-22 -36.5t-30 -40t-29 -37l-115 -160h-88zM229 1161q45 0 73 30t28 79q0 45 -31.5 75.5t-69.5 30.5q-39 0 -70.5 -30.5t-31.5 -75.5
q0 -47 31.5 -78t70.5 -31z" />
    </font>
</defs>
</svg>
