<svg width="186" height="40" viewBox="0 0 186 40" fill="none" xmlns="http://www.w3.org/2000/svg">
<g clip-path="url(#clip0_293_833)">
<path fill-rule="evenodd" clip-rule="evenodd" d="M97.2626 11.9003H88.2628L88.1409 15.5919H96.0021C97.484 15.5874 98.1978 16.4672 98.1481 17.9684C98.103 19.3697 97.231 20.2722 95.713 20.2722H93.0835L93.2236 16.0137L88.0731 17.7371L87.7252 28.3901H92.8215L92.966 23.9593H96.7611C100.809 23.9593 103.244 21.3198 103.353 17.9684C103.47 14.3856 101.383 11.9003 97.2626 11.9003ZM120.155 20.6713C120.761 19.8278 121.081 18.8573 121.117 17.7643C121.235 14.1815 119.193 11.9003 115.072 11.9003H105.991L105.458 28.3901H110.554L110.713 23.5738H112.149C112.908 23.5738 113.261 23.8051 113.532 24.4173L115.244 28.3856H120.557L118.691 24.0591C118.352 23.2745 118.122 22.9343 117.734 22.626C118.746 22.1679 119.55 21.5149 120.155 20.6713ZM113.514 19.8913H110.83L110.97 15.5874H113.816C115.262 15.5874 115.962 16.313 115.913 17.7643C115.868 19.1294 114.996 19.8913 113.514 19.8913ZM91.9043 0.108951C85.9768 0.376525 80.5191 1.09308 75.6126 2.14977C79.0191 1.61916 82.6515 1.25634 86.4783 1.08401C105.065 0.240471 123.06 4.53526 131.373 11.669C126.634 11.9049 123.282 13.923 123.074 20.1997C122.884 26.0364 125.825 28.6486 131.717 28.6486C131.906 28.6486 132.096 28.6441 132.277 28.6396C126.516 34.3221 114.941 38.4491 101.604 40.0001C123.512 38.7257 142.51 30.8119 142.858 20.0908C143.265 7.59648 118.118 -1.07926 91.9043 0.108951ZM135.706 20.1951C135.607 23.2337 134.454 24.5489 131.852 24.5489C129.25 24.5489 128.179 23.2337 128.278 20.1951C128.382 16.9842 129.498 15.7416 132.137 15.7416C134.775 15.7416 135.81 16.9888 135.706 20.1951ZM34.3139 20.6713C34.9193 19.8278 35.24 18.8573 35.2762 17.7643C35.3349 15.9729 34.856 14.5489 33.844 13.4876C32.832 12.4309 31.2913 11.9003 29.2311 11.9003H20.15L19.6169 28.3901H24.7132L24.8713 23.5738H26.308C27.067 23.5738 27.4194 23.8051 27.6905 24.4173L29.4028 28.3856H34.716L32.85 24.0591C32.5112 23.2745 32.2808 22.9343 31.8922 22.626C32.8997 22.1679 33.7085 21.5149 34.3139 20.6713ZM27.6725 19.8913H24.9888L25.1288 15.5874H27.9752C29.4209 15.5874 30.1212 16.313 30.0715 17.7643C30.0263 19.1294 29.1543 19.8913 27.6725 19.8913ZM37.9147 28.3901H51.1433L51.2607 24.7031H43.1284L43.2142 22.0137H50.3436L50.4656 18.2768H43.3407L43.4266 15.5874H51.5589L51.6764 11.9003H38.4478L37.9147 28.3901ZM8.51178 21.8096H11.9816L11.9048 24.2178C11.1006 24.44 10.2693 24.5489 9.40181 24.5489C6.47417 24.5489 5.10523 23.2337 5.20463 20.2994C5.30854 17.1248 6.99826 15.7416 10.3958 15.7416C12.3656 15.7416 14.0463 15.991 15.4423 16.4854L15.5779 12.3629C14.0553 11.8867 12.2572 11.6464 10.1789 11.6464C3.74533 11.6464 0.185172 14.7348 0.00445315 20.2994C-0.171747 25.6963 3.09474 28.6486 9.27531 28.6486C12.0403 28.6486 14.8776 27.991 16.3279 27.1384L16.5989 18.8436H8.62021L8.51178 21.8096ZM155.544 15.9139H160.451L160.031 28.821H165.127L165.547 15.9139H170.454L170.571 12.3312H155.662L155.544 15.9139ZM60.3147 11.9003L53.086 28.3901H58.3991L59.9488 24.8799H65.2077L66.5586 28.3901H71.8717L65.7092 11.9003H60.3147ZM60.7394 21.4287L62.8493 16.5897L64.6429 21.4287H60.7394ZM180.908 16.1679C182.679 16.1679 184.333 16.4944 185.864 17.143L186 12.9434C184.712 12.499 182.756 12.0727 180.687 12.0727C174.289 12.0727 170.883 15.084 170.702 20.6532C170.526 26.05 173.833 29.0795 180.158 29.0795C182.056 29.0795 183.854 28.8074 185.553 28.2586L185.688 24.0319C184.13 24.6622 182.458 24.9797 180.669 24.9797C177.416 24.9797 175.807 23.6554 175.902 20.6532C176.011 17.5421 177.583 16.1679 180.908 16.1679ZM147.588 28.8164H152.684L153.218 12.3266H148.121L147.588 28.8164ZM70.8009 15.4876H75.7074L75.2873 28.3947H80.3835L80.8037 15.4876H85.7102L85.8277 11.9049H70.9184L70.8009 15.4876Z" fill="white"/>
<path d="M2.30416 33.0976L1.64906 32.8391L1.6355 32.9117C1.3825 34.44 0.844859 35.7235 0.0361437 36.7303L0 36.7756L0.578299 37.2246L0.614443 37.1838C0.885521 36.8618 1.08431 36.5806 1.21081 36.3402V39.9003H1.9111V34.7167L2.06923 34.1407C2.17314 33.7461 2.24995 33.4105 2.29513 33.143L2.30416 33.0976Z" fill="white"/>
<path d="M4.76654 32.9434H4.06625V33.7778H2.31328V34.4581H4.06625V34.9479H2.59791V35.6282H4.06625V36.2722H2.14612V36.957H4.06625V39.9003H4.76654V36.957H6.11741C6.11741 37.2245 6.09933 37.5148 6.07223 37.8277C6.03157 38.2722 6.00446 38.3493 5.99994 38.3629C5.98639 38.3855 5.94572 38.3901 5.91862 38.3901C5.84181 38.3901 5.64754 38.3538 5.13249 38.1905L5.04213 38.1633L5.1596 38.9524L5.20026 38.9615C5.51652 39.0341 5.75597 39.0749 5.93217 39.0749C6.25295 39.0749 6.47433 38.9434 6.60083 38.6758C6.7183 38.4264 6.78155 38.0681 6.79962 37.61L6.84028 36.2722H4.77557V35.6282H6.55113V34.9479H4.77557V34.4581H6.96227V33.7778H4.77557V32.9434H4.76654Z" fill="white"/>
<path d="M13.0661 37.6781C12.673 37.1067 12.3929 36.3811 12.2302 35.5103H14.4892V34.8028H11.7197C11.7559 34.3811 11.7694 33.7779 11.7559 32.9978V32.948L11.0104 32.8391V32.9071C11.0239 33.7144 11.0104 34.3493 10.9607 34.7983H8.5481V35.5058H10.8929C10.5586 37.1974 9.655 38.4037 8.20473 39.0976L8.13696 39.1294L8.65653 39.7597L8.69719 39.7371C9.54205 39.2745 10.2017 38.7031 10.658 38.0409C11.0691 37.4468 11.3763 36.6895 11.5706 35.7824C11.7333 36.6713 12.0134 37.4241 12.4019 38.0182C12.8356 38.6849 13.4817 39.2745 14.3266 39.7733L14.3672 39.796L14.8642 39.2427L14.801 39.2065C14.0465 38.7756 13.4636 38.2586 13.0615 37.6736L13.0661 37.6781Z" fill="white"/>
<path d="M20.4032 33.0522L20.4167 32.9932L19.6848 32.8254L19.6758 32.8889C19.4905 33.991 19.1381 34.9388 18.6321 35.7143V34.2676H17.4936C17.6111 34.0409 17.7376 33.6871 17.8686 33.2019L17.8822 33.152L17.209 32.8799L17.1954 32.9479C17.096 33.4649 16.9424 33.9093 16.7481 34.2676H16.0162V39.7551H16.7436V39.1248H17.9093V39.6282H18.6321V36.2132L18.9891 36.4445L19.0207 36.3991C19.4137 35.8685 19.7119 35.3288 19.9062 34.7937H21.4559C21.4423 36.1225 21.37 37.1973 21.2345 37.991C21.0628 39.0114 20.8595 39.161 20.7556 39.161C20.5342 39.161 20.1321 39.0522 19.5628 38.839L19.468 38.8028L19.5899 39.5919L19.6261 39.601C20.2315 39.7778 20.6291 39.8595 20.8459 39.8595C21.3294 39.8595 21.6682 39.4286 21.8534 38.576C22.0342 37.7506 22.1336 36.2767 22.1561 34.1951V34.1361H20.0914C20.2315 33.6962 20.3354 33.3243 20.3987 33.0386L20.4032 33.0522ZM16.7391 36.3266V34.9479H17.9047V36.3266H16.7391ZM17.9047 37.0114V38.44H16.7391V37.0114H17.9047Z" fill="white"/>
<path d="M20.4619 38.0589L21.126 37.7642L21.1079 37.7143C20.873 37.0476 20.489 36.4036 19.9694 35.805L19.9378 35.7642L19.364 36.1451L19.4047 36.195C19.8745 36.7891 20.2224 37.3968 20.4438 38L20.4664 38.0589H20.4619Z" fill="white"/>
<path d="M26.787 34.5623H29.439V33.8775H26.909C26.9587 33.6145 26.9813 33.3605 26.9858 33.1292V33.0839L26.3036 32.8979V32.9705C26.272 33.3243 26.2358 33.6281 26.1906 33.8775H23.9407V34.5623H26.0732C26.037 34.7075 25.9738 34.9161 25.8834 35.1927H23.507V35.8775H25.6078C25.4949 36.1406 25.3277 36.4036 25.1154 36.6621L25.1018 36.6803V37.288H28.0565L27.1123 38.2721C26.8096 38.1179 26.3126 37.9184 25.644 37.6825L25.6033 37.6689L25.147 38.2222L25.2283 38.2494C25.5897 38.3719 25.9105 38.4898 26.1906 38.6032C26.4662 38.7165 26.7373 38.8435 26.9948 38.9887C27.2523 39.1292 27.4873 39.288 27.6951 39.4603L28.3457 39.9955L28.7975 39.4422L28.7568 39.4059C28.4315 39.0975 28.0927 38.839 27.7584 38.6304L29.1363 37.2018V36.6032H26.0009C26.0732 36.4716 26.1906 36.2313 26.3533 35.8775H30.1619V35.1927H26.6198C26.6605 35.0431 26.7102 34.8345 26.7689 34.5623H26.787Z" fill="white"/>
<path d="M35.6377 33.1431H34.9464V38.8619H34.1648V33.1431H33.4465V38.8619H31.192V39.5467H37.8786V38.8619H35.6377V33.1431Z" fill="white"/>
<path d="M32.4073 38.1316V38.2178L33.1121 37.9139V37.8731C33.0082 36.9344 32.7146 35.9185 32.2402 34.8618L32.2176 34.8074L31.6122 35.1022L31.6348 35.152C32.1137 36.245 32.3757 37.2473 32.4119 38.1362L32.4073 38.1316Z" fill="white"/>
<path d="M36.4239 38.254C36.9209 37.474 37.2597 36.4128 37.4269 35.0976V35.0522L36.7853 34.8164V34.8935C36.6769 36.1361 36.3606 37.1429 35.832 37.8867L35.7959 37.9366L36.3923 38.3039L36.4239 38.254Z" fill="white"/>
<path d="M44.5516 37.6191H43.883L44.2625 37.347L44.2354 37.3017C44.0456 36.9933 43.7294 36.6985 43.2866 36.4218H44.2309V35.7688H42.6134V34.9026H44.4748V34.2495H40.1511V34.9026H41.9493V35.7688H40.4132V36.4218H41.9493V37.6191H40.0789V38.2722H44.5516V37.6191ZM42.7128 36.7438L42.7896 36.7847C43.1104 36.9661 43.4131 37.2472 43.6977 37.6191H42.6134V36.4218H43.1194L42.7173 36.7438H42.7128Z" fill="white"/>
<path d="M39.338 39.9093H40.0428V39.3651H44.6285V39.9093H45.2927V33.22H39.3425V39.9093H39.338ZM44.6285 33.9048V38.712H40.0428V33.9048H44.6285Z" fill="white"/>
<path d="M49.2052 37.1657C49.2052 36.6714 48.9206 36.0637 48.3558 35.3607L49.2187 33.8278L49.2278 33.8142V33.2383H46.8016V39.9186H47.5064V37.5603L47.7143 38.1181H47.7504C47.8453 38.1272 47.9356 38.1317 48.017 38.1317C48.4145 38.1317 48.7173 38.041 48.9115 37.8641C49.1058 37.6827 49.2097 37.4469 49.2097 37.1612L49.2052 37.1657ZM47.5064 33.8959H48.3829L47.5561 35.4469L47.5832 35.4786C48.2383 36.2496 48.5682 36.812 48.5682 37.1476C48.5682 37.202 48.5411 37.2655 48.4914 37.3381C48.4688 37.3698 48.3739 37.4378 47.9131 37.4378C47.8182 37.4378 47.6917 37.4378 47.5426 37.4242H47.5064V33.8959Z" fill="white"/>
<path d="M52.9732 33.3743H49.291V34.0273H52.9732V33.3743Z" fill="white"/>
<path d="M51.9657 36.6396L51.9295 36.6079L51.4416 36.9752V35.9231H53.2036V35.27H48.8212V35.9231H50.7458V39.0523C50.7458 39.1884 50.7187 39.2564 50.6645 39.2564C50.3437 39.2564 50.0862 39.2428 49.901 39.2156L49.8016 39.202L50.0726 39.9004H50.1088C50.2398 39.9095 50.3573 39.914 50.4567 39.914C50.7187 39.914 50.8994 39.8959 51.0079 39.8596C51.1253 39.8188 51.2247 39.7371 51.3106 39.6147C51.3964 39.4922 51.4416 39.3607 51.4416 39.2247V37.0478L51.4551 37.0614C52.047 37.5058 52.5485 38.1952 52.9506 39.1068L52.9822 39.1748L53.5424 38.753L53.5244 38.7122C53.2307 37.9548 52.7066 37.261 51.9657 36.6396Z" fill="white"/>
<path d="M50.6103 36.9435L50.1043 36.5444L50.0727 36.6034C49.5802 37.4696 48.9929 38.1136 48.3333 38.5218L48.2745 38.558L48.7218 39.1023L48.767 39.0705C49.5125 38.5671 50.1269 37.8642 50.5923 36.9889L50.6148 36.9435H50.6103Z" fill="white"/>
<path d="M55.0695 36.2178C55.2863 36.1044 55.4716 36.0047 55.6161 35.9185V38.5897H56.321V36.5489H59.1311V38.3675H59.8359V35.8641H57.6989C58.0694 35.7099 58.3631 35.5013 58.5799 35.2428C58.8375 34.9344 59.0182 34.4809 59.1085 33.8958H59.9398C59.9263 34.2088 59.8947 34.4899 59.8495 34.7303C59.7862 35.0704 59.7456 35.1385 59.732 35.1521C59.7185 35.1702 59.6688 35.1974 59.5242 35.1974C59.2983 35.1974 59.0588 35.1611 58.8239 35.084L58.72 35.0523L58.9278 35.8051H58.9685C59.217 35.8323 59.4112 35.8414 59.5558 35.8414C59.8179 35.8414 59.9986 35.8051 60.1115 35.7326C60.2245 35.66 60.3148 35.5648 60.3781 35.4423C60.4413 35.3244 60.4955 35.0568 60.5543 34.6169C60.6085 34.1952 60.6446 33.7507 60.6672 33.2972V33.2337H57.6312V33.3108L57.1477 32.8618L57.1116 32.8845C56.4926 33.2292 55.7562 33.4378 54.9249 33.5058H54.8707V35.4015C54.8707 35.4332 54.8707 35.5103 54.6945 35.5466L54.6132 35.5648L55.0153 36.2314L55.065 36.2042L55.0695 36.2178ZM56.9218 35.8686H55.702C55.7472 35.8414 55.7878 35.8187 55.824 35.7961L56.9038 35.1158C56.9986 35.2518 57.0664 35.3652 57.1071 35.4514C57.0077 35.4922 56.8993 35.533 56.7863 35.5693L56.705 35.5965L56.9218 35.8686ZM58.4173 33.9004C58.3811 34.4809 58.0604 34.9435 57.455 35.2836L57.7306 35.0659L57.7034 35.0205C57.4685 34.6078 57.1251 34.2768 56.6869 34.0455L56.6553 34.0273L56.1131 34.3811L56.1854 34.431C56.3526 34.5444 56.4429 34.6078 56.4926 34.6487L55.5755 35.1657V34.0636C56.2577 33.9775 56.9489 33.7688 57.6312 33.4378V33.9004H58.4173Z" fill="white"/>
<path d="M58.0604 36.703L57.3872 36.644V36.7075C57.3872 37.0159 57.3556 37.3016 57.2969 37.5556C57.2381 37.805 57.0845 38.0681 56.8315 38.3357C56.5785 38.6032 56.2487 38.8164 55.8511 38.9615C55.449 39.1112 55.0063 39.2019 54.5274 39.2381H54.437L54.803 39.9048H54.8436C56.9851 39.6282 58.0649 38.5669 58.0604 36.7574V36.703Z" fill="white"/>
<path d="M58.0153 38.0635L57.9746 38.0544L57.5906 38.6576L57.6719 38.6758C58.7472 38.9116 59.6869 39.3379 60.464 39.9501L60.5137 39.9909L60.9158 39.3832L60.8706 39.3515C60.1116 38.7619 59.1493 38.3311 58.0107 38.068L58.0153 38.0635Z" fill="white"/>
<path d="M65.113 36.2496H67.7786V33.27H63.3736V36.2496H64.2591C63.8163 36.7712 63.1296 37.1884 62.2124 37.4922L62.1311 37.5195L62.61 38.1045L62.6462 38.0909C63.1657 37.9095 63.6717 37.6328 64.1552 37.2746H64.7606C64.2546 37.9548 63.3871 38.4809 62.1718 38.8392L62.0859 38.8619L62.5513 39.4424L62.5874 39.4288C64.0241 38.9752 65.0362 38.2496 65.5874 37.27H66.3057C65.9307 38.1 65.1717 38.8165 64.0422 39.4015L63.9744 39.4378L64.485 39.9775L64.5256 39.9548C65.0949 39.6419 65.5783 39.2927 65.9714 38.9163L66.1114 39.6192L66.1476 39.6283C66.6446 39.7371 66.9473 39.7916 67.0738 39.7916C67.2906 39.7916 67.4713 39.7371 67.6114 39.6283C67.7515 39.5195 67.8554 39.3562 67.9231 39.1476C67.9864 38.948 68.0587 38.617 68.1445 38.1453C68.2259 37.6827 68.2981 37.1839 68.3523 36.6532L68.3614 36.5897H64.8419C64.9232 36.5081 65.0136 36.3947 65.1085 36.2496H65.113ZM67.0828 35.0433V35.5693H64.0738V35.0433H67.0828ZM67.0828 33.9594V34.3902H64.0738V33.9594H67.0828ZM67.0692 37.2791H67.5933C67.3494 38.948 67.128 39.1294 67.0421 39.1294C66.9699 39.1294 66.744 39.0886 66.0572 38.8891L66.0256 38.88C66.5226 38.3947 66.8705 37.8596 67.0692 37.2791Z" fill="white"/>
<path d="M72.9425 32.9933L72.9561 32.9344L72.2468 32.7756L72.2332 32.8301C72.1112 33.3516 72.0164 33.7053 71.9531 33.8777H70.0962V34.5625H71.6911C71.3612 35.4332 70.67 36.3403 69.6444 37.2473L69.5857 37.2972L70.2318 37.7189L70.2634 37.6827C70.8643 37.0613 71.2573 36.6214 71.4606 36.3539V39.9412H72.1926V38.3085H74.9801V39.016C74.9801 39.0659 74.8762 39.0976 74.7 39.0976C74.4244 39.0976 74.1714 39.0795 73.941 39.0477L73.8371 39.0341L74.1624 39.7643H74.8265C75.3642 39.7643 75.6533 39.5693 75.6895 39.1793V35.1566H72.2287C72.2919 35.0205 72.3688 34.821 72.4546 34.5534H76.6247V33.8686H72.7121C72.8251 33.474 72.9019 33.1747 72.9471 32.9797L72.9425 32.9933ZM72.1926 36.3629V35.8505H74.9801V36.3629H72.1926ZM74.9801 37.0432V37.6282H72.1926V37.0432H74.9801Z" fill="white"/>
<path d="M83.0086 38.1996C83.5914 37.7733 84.0206 37.4195 84.2827 37.1565L84.3278 37.1111L83.8038 36.6304L82.6923 37.6145C82.5704 37.3061 82.489 36.9796 82.4484 36.6485H83.745V33.1882H80.3566V39.0658L79.5659 39.2563L79.9093 39.9275L82.2541 39.2653L82.2948 39.2517V38.5397L81.0614 38.9025V36.6485H81.7752C81.843 37.356 82.0644 38.0091 82.4393 38.5896C82.8234 39.1837 83.3429 39.6236 83.9709 39.8866L84.0116 39.9048L84.4363 39.3197L84.3685 39.2925C83.736 39.0159 83.2797 38.6531 83.0041 38.2086L83.0086 38.1996ZM83.0402 35.2336V35.9683H81.0568V35.2336H83.0402ZM81.0568 34.5488V33.8685H83.0402V34.5488H81.0568Z" fill="white"/>
<path d="M80.2436 36.88C80.2436 36.3857 79.9997 35.8959 79.5208 35.4288L80.1533 33.8279V33.1748H77.8672V39.9231H78.572V37.4787L78.6985 38.0637H78.7392C78.9334 38.1 79.069 38.1136 79.1548 38.1136C79.3762 38.1136 79.6111 38.0183 79.8596 37.8233C80.1126 37.6283 80.2391 37.3109 80.2391 36.88H80.2436ZM78.5765 33.8687H79.3988C79.2994 34.1816 79.0825 34.7349 78.7437 35.5149L78.7256 35.5558L78.7572 35.583C79.2858 36.0501 79.5569 36.5081 79.5569 36.948C79.5569 37.2564 79.4349 37.4016 79.1684 37.4016C79.0554 37.4016 78.8747 37.3698 78.6307 37.3109L78.581 37.2973V33.8687H78.5765Z" fill="white"/>
<path d="M89.9798 37.0614L89.9527 37.0342L89.2659 37.3381L89.3292 37.397C89.5732 37.6283 89.8307 37.9548 90.0927 38.3675L87.5717 38.5399C88.0687 37.8052 88.4843 36.8755 88.8141 35.7689L88.8322 35.7145L88.1229 35.4741L88.1048 35.5331C87.8021 36.6986 87.3322 37.7236 86.7088 38.5762L85.7871 38.6533L86.0763 39.4152H86.1214C86.6591 39.3381 87.382 39.27 88.272 39.2065L90.409 39.0342C90.5671 39.3789 90.6755 39.6465 90.7298 39.8279L90.7478 39.8959L91.4436 39.5739L91.43 39.524C91.1047 38.5036 90.6168 37.6782 89.9798 37.066V37.0614Z" fill="white"/>
<path d="M90.8789 34.8708C90.4903 34.3039 90.2238 33.728 90.0792 33.152L90.0611 33.084L89.397 33.3924L89.406 33.4377C89.537 34.0046 89.8217 34.6169 90.2554 35.2609C90.6891 35.9048 91.159 36.4173 91.6605 36.7892L91.7011 36.8209L92.2433 36.2767L92.1846 36.2359C91.7011 35.8958 91.2629 35.4377 90.8743 34.8708H90.8789Z" fill="white"/>
<path d="M87.0611 35.2519C87.4949 34.6125 87.7795 34.0002 87.9105 33.4333L87.9196 33.388L87.2599 33.0796L87.2419 33.1476C87.1018 33.719 86.8352 34.295 86.4467 34.8619C86.0627 35.4288 85.6199 35.8868 85.132 36.2315L85.0732 36.2723L85.6154 36.8166L85.6561 36.7848C86.1576 36.4084 86.6274 35.8959 87.0611 35.2519Z" fill="white"/>
<path d="M93.671 33.2109V33.9184H98.6634V39.0749C98.6634 39.1701 98.6272 39.2109 98.5278 39.2109C98.0896 39.2109 97.7733 39.1973 97.5926 39.1747L97.5022 39.161L97.7417 39.9411H98.5504C99.2417 39.9411 99.3908 39.5511 99.3908 39.2245V33.2155H93.6665L93.671 33.2109Z" fill="white"/>
<path d="M98.3787 34.5762H93.2915V35.2791H98.3787V34.5762Z" fill="white"/>
<path d="M97.5564 38.9027V35.9231H94.1589V38.9254H94.8818V38.3494H96.8291V38.9027H97.5564ZM96.8291 36.6079V37.6691H94.8818V36.6079H96.8291Z" fill="white"/>
</g>
<defs>
<clipPath id="clip0_293_833">
<rect width="186" height="40" fill="white"/>
</clipPath>
</defs>
</svg>
