<svg width="186" height="40" viewBox="0 0 186 40" fill="none" xmlns="http://www.w3.org/2000/svg">
<g clip-path="url(#clip0_536_383)">
<path fill-rule="evenodd" clip-rule="evenodd" d="M97.2625 11.9003H88.2627L88.1407 15.5919H96.002C97.4839 15.5874 98.1977 16.4672 98.148 17.9684C98.1029 19.3697 97.2309 20.2722 95.7128 20.2722H93.0834L93.2234 16.0137L88.073 17.7371L87.7251 28.3901H92.8214L92.9659 23.9593H96.761C100.809 23.9593 103.244 21.3198 103.353 17.9684C103.47 14.3856 101.383 11.9003 97.2625 11.9003ZM120.155 20.6713C120.76 19.8278 121.081 18.8573 121.117 17.7643C121.235 14.1815 119.193 11.9003 115.072 11.9003H105.991L105.458 28.3901H110.554L110.712 23.5738H112.149C112.908 23.5738 113.261 23.8051 113.532 24.4173L115.244 28.3856H120.557L118.691 24.0591C118.352 23.2745 118.122 22.9343 117.733 22.626C118.745 22.1679 119.55 21.5149 120.155 20.6713ZM113.514 19.8913H110.83L110.97 15.5874H113.816C115.262 15.5874 115.962 16.313 115.913 17.7643C115.867 19.1294 114.996 19.8913 113.514 19.8913ZM91.9042 0.108951C85.9766 0.376525 80.5189 1.09308 75.6124 2.14977C79.019 1.61916 82.6514 1.25634 86.4781 1.08401C105.065 0.240471 123.06 4.53526 131.373 11.669C126.634 11.9049 123.281 13.923 123.074 20.1997C122.884 26.0364 125.825 28.6486 131.716 28.6486C131.906 28.6486 132.096 28.6441 132.277 28.6396C126.516 34.3221 114.941 38.4491 101.604 40.0001C123.512 38.7257 142.51 30.8119 142.858 20.0908C143.264 7.59648 118.117 -1.07926 91.9042 0.108951ZM135.706 20.1951C135.606 23.2337 134.454 24.5489 131.852 24.5489C129.25 24.5489 128.179 23.2337 128.278 20.1951C128.382 16.9842 129.498 15.7416 132.137 15.7416C134.775 15.7416 135.81 16.9888 135.706 20.1951ZM34.3137 20.6713C34.9191 19.8278 35.2399 18.8573 35.2761 17.7643C35.3348 15.9729 34.8559 14.5489 33.8439 13.4876C32.8318 12.4309 31.2912 11.9003 29.231 11.9003H20.1499L19.6168 28.3901H24.7131L24.8712 23.5738H26.3079C27.0669 23.5738 27.4193 23.8051 27.6904 24.4173L29.4027 28.3856H34.7158L32.8499 24.0591C32.5111 23.2745 32.2807 22.9343 31.8921 22.626C32.8996 22.1679 33.7083 21.5149 34.3137 20.6713ZM27.6723 19.8913H24.9887L25.1287 15.5874H27.975C29.4208 15.5874 30.1211 16.313 30.0714 17.7643C30.0262 19.1294 29.1542 19.8913 27.6723 19.8913ZM37.9146 28.3901H51.1431L51.2606 24.7031H43.1283L43.2141 22.0137H50.3435L50.4655 18.2768H43.3406L43.4265 15.5874H51.5588L51.6763 11.9003H38.4477L37.9146 28.3901ZM8.51165 21.8096H11.9814L11.9046 24.2178C11.1004 24.44 10.2691 24.5489 9.40169 24.5489C6.47405 24.5489 5.10511 23.2337 5.20451 20.2994C5.30842 17.1248 6.99814 15.7416 10.3956 15.7416C12.3655 15.7416 14.0462 15.991 15.4422 16.4854L15.5777 12.3629C14.0552 11.8867 12.257 11.6464 10.1788 11.6464C3.7452 11.6464 0.18505 14.7348 0.00433108 20.2994C-0.171869 25.6963 3.09462 28.6486 9.27519 28.6486C12.0402 28.6486 14.8775 27.991 16.3277 27.1384L16.5988 18.8436H8.62008L8.51165 21.8096ZM155.544 15.9139H160.451L160.031 28.821H165.127L165.547 15.9139H170.454L170.571 12.3312H155.662L155.544 15.9139ZM60.3146 11.9003L53.0859 28.3901H58.399L59.9487 24.8799H65.2076L66.5584 28.3901H71.8716L65.7091 11.9003H60.3146ZM60.7393 21.4287L62.8492 16.5897L64.6428 21.4287H60.7393ZM180.908 16.1679C182.679 16.1679 184.333 16.4944 185.864 17.143L186 12.9434C184.712 12.499 182.756 12.0727 180.687 12.0727C174.289 12.0727 170.883 15.084 170.702 20.6532C170.526 26.05 173.833 29.0795 180.158 29.0795C182.056 29.0795 183.854 28.8074 185.553 28.2586L185.688 24.0319C184.129 24.6622 182.458 24.9797 180.669 24.9797C177.416 24.9797 175.807 23.6554 175.902 20.6532C176.011 17.5421 177.583 16.1679 180.908 16.1679ZM147.588 28.8164H152.684L153.217 12.3266H148.121L147.588 28.8164ZM70.8008 15.4876H75.7073L75.2871 28.3947H80.3834L80.8036 15.4876H85.7101L85.8275 11.9049H70.9183L70.8008 15.4876Z" fill="#3C598E"/>
<path d="M2.30416 33.0976L1.64906 32.8391L1.6355 32.9117C1.3825 34.44 0.844859 35.7235 0.0361437 36.7303L0 36.7756L0.578299 37.2246L0.614443 37.1838C0.885521 36.8618 1.08431 36.5806 1.21081 36.3402V39.9003H1.9111V34.7167L2.06923 34.1407C2.17314 33.7461 2.24995 33.4105 2.29513 33.143L2.30416 33.0976Z" fill="#3C598E"/>
<path d="M4.76641 32.9434H4.06613V33.7778H2.31316V34.4581H4.06613V34.9479H2.59779V35.6282H4.06613V36.2722H2.146V36.957H4.06613V39.9003H4.76641V36.957H6.11729C6.11729 37.2245 6.09921 37.5148 6.07211 37.8277C6.03144 38.2722 6.00434 38.3493 5.99982 38.3629C5.98626 38.3855 5.9456 38.3901 5.91849 38.3901C5.84169 38.3901 5.64742 38.3538 5.13237 38.1905L5.04201 38.1633L5.15948 38.9524L5.20014 38.9615C5.5164 39.0341 5.75585 39.0749 5.93205 39.0749C6.25282 39.0749 6.4742 38.9434 6.60071 38.6758C6.71817 38.4264 6.78143 38.0681 6.7995 37.61L6.84016 36.2722H4.77545V35.6282H6.55101V34.9479H4.77545V34.4581H6.96214V33.7778H4.77545V32.9434H4.76641Z" fill="#3C598E"/>
<path d="M13.0658 37.6781C12.6728 37.1067 12.3926 36.3811 12.23 35.5103H14.489V34.8028H11.7195C11.7556 34.3811 11.7692 33.7779 11.7556 32.9978V32.948L11.0101 32.8391V32.9071C11.0237 33.7144 11.0101 34.3493 10.9604 34.7983H8.54785V35.5058H10.8927C10.5583 37.1974 9.65475 38.4037 8.20449 39.0976L8.13672 39.1294L8.65628 39.7597L8.69695 39.7371C9.5418 39.2745 10.2014 38.7031 10.6577 38.0409C11.0689 37.4468 11.3761 36.6895 11.5704 35.7824C11.733 36.6713 12.0131 37.4241 12.4017 38.0182C12.8354 38.6849 13.4815 39.2745 14.3263 39.7733L14.367 39.796L14.864 39.2427L14.8007 39.2065C14.0462 38.7756 13.4634 38.2586 13.0613 37.6736L13.0658 37.6781Z" fill="#3C598E"/>
<path d="M20.4031 33.0522L20.4166 32.9932L19.6847 32.8254L19.6757 32.8889C19.4904 33.991 19.138 34.9388 18.632 35.7143V34.2676H17.4935C17.611 34.0409 17.7375 33.6871 17.8685 33.2019L17.882 33.152L17.2089 32.8799L17.1953 32.9479C17.0959 33.4649 16.9423 33.9093 16.748 34.2676H16.0161V39.7551H16.7435V39.1248H17.9091V39.6282H18.632V36.2132L18.9889 36.4445L19.0206 36.3991C19.4136 35.8685 19.7118 35.3288 19.9061 34.7937H21.4557C21.4422 36.1225 21.3699 37.1973 21.2344 37.991C21.0627 39.0114 20.8594 39.161 20.7555 39.161C20.5341 39.161 20.132 39.0522 19.5627 38.839L19.4678 38.8028L19.5898 39.5919L19.626 39.601C20.2314 39.7778 20.629 39.8595 20.8458 39.8595C21.3292 39.8595 21.6681 39.4286 21.8533 38.576C22.034 37.7506 22.1334 36.2767 22.156 34.1951V34.1361H20.0913C20.2314 33.6962 20.3353 33.3243 20.3985 33.0386L20.4031 33.0522ZM16.739 36.3266V34.9479H17.9046V36.3266H16.739ZM17.9046 37.0114V38.44H16.739V37.0114H17.9046Z" fill="#3C598E"/>
<path d="M20.4616 38.0589L21.1258 37.7642L21.1077 37.7143C20.8728 37.0476 20.4887 36.4036 19.9692 35.805L19.9376 35.7642L19.3638 36.1451L19.4044 36.195C19.8743 36.7891 20.2222 37.3968 20.4436 38L20.4662 38.0589H20.4616Z" fill="#3C598E"/>
<path d="M26.7869 34.5623H29.4389V33.8775H26.9089C26.9586 33.6145 26.9811 33.3605 26.9857 33.1292V33.0839L26.3035 32.8979V32.9705C26.2718 33.3243 26.2357 33.6281 26.1905 33.8775H23.9406V34.5623H26.073C26.0369 34.7075 25.9736 34.9161 25.8833 35.1927H23.5068V35.8775H25.6077C25.4947 36.1406 25.3276 36.4036 25.1152 36.6621L25.1017 36.6803V37.288H28.0564L27.1122 38.2721C26.8095 38.1179 26.3125 37.9184 25.6438 37.6825L25.6032 37.6689L25.1469 38.2222L25.2282 38.2494C25.5896 38.3719 25.9104 38.4898 26.1905 38.6032C26.4661 38.7165 26.7372 38.8435 26.9947 38.9887C27.2522 39.1292 27.4872 39.288 27.695 39.4603L28.3456 39.9955L28.7974 39.4422L28.7567 39.4059C28.4314 39.0975 28.0926 38.839 27.7582 38.6304L29.1362 37.2018V36.6032H26.0008C26.073 36.4716 26.1905 36.2313 26.3532 35.8775H30.1618V35.1927H26.6197C26.6604 35.0431 26.7101 34.8345 26.7688 34.5623H26.7869Z" fill="#3C598E"/>
<path d="M35.6376 33.1431H34.9463V38.8619H34.1647V33.1431H33.4464V38.8619H31.1919V39.5467H37.8785V38.8619H35.6376V33.1431Z" fill="#3C598E"/>
<path d="M32.4075 38.1316V38.2178L33.1123 37.9139V37.8731C33.0084 36.9344 32.7147 35.9185 32.2403 34.8618L32.2177 34.8074L31.6123 35.1022L31.6349 35.152C32.1138 36.245 32.3758 37.2473 32.412 38.1362L32.4075 38.1316Z" fill="#3C598E"/>
<path d="M36.4239 38.254C36.9209 37.474 37.2597 36.4128 37.4269 35.0976V35.0522L36.7853 34.8164V34.8935C36.6769 36.1361 36.3606 37.1429 35.832 37.8867L35.7959 37.9366L36.3923 38.3039L36.4239 38.254Z" fill="#3C598E"/>
<path d="M44.5514 37.6191H43.8827L44.2622 37.347L44.2351 37.3017C44.0454 36.9933 43.7291 36.6985 43.2864 36.4218H44.2306V35.7688H42.6132V34.9026H44.4746V34.2495H40.1509V34.9026H41.949V35.7688H40.4129V36.4218H41.949V37.6191H40.0786V38.2722H44.5514V37.6191ZM42.7126 36.7438L42.7894 36.7847C43.1102 36.9661 43.4129 37.2472 43.6975 37.6191H42.6132V36.4218H43.1192L42.7171 36.7438H42.7126Z" fill="#3C598E"/>
<path d="M39.3379 39.9093H40.0427V39.3651H44.6284V39.9093H45.2926V33.22H39.3424V39.9093H39.3379ZM44.6284 33.9048V38.712H40.0427V33.9048H44.6284Z" fill="#3C598E"/>
<path d="M49.2048 37.1657C49.2048 36.6714 48.9202 36.0637 48.3554 35.3607L49.2184 33.8278L49.2274 33.8142V33.2383H46.8013V39.9186H47.5061V37.5603L47.7139 38.1181H47.75C47.8449 38.1272 47.9353 38.1317 48.0166 38.1317C48.4142 38.1317 48.7169 38.041 48.9112 37.8641C49.1054 37.6827 49.2093 37.4469 49.2093 37.1612L49.2048 37.1657ZM47.5061 33.8959H48.3826L47.5558 35.4469L47.5829 35.4786C48.238 36.2496 48.5678 36.812 48.5678 37.1476C48.5678 37.202 48.5407 37.2655 48.491 37.3381C48.4684 37.3698 48.3735 37.4378 47.9127 37.4378C47.8178 37.4378 47.6913 37.4378 47.5422 37.4242H47.5061V33.8959Z" fill="#3C598E"/>
<path d="M52.9732 33.3743H49.291V34.0273H52.9732V33.3743Z" fill="#3C598E"/>
<path d="M51.9653 36.6396L51.9292 36.6079L51.4412 36.9752V35.9231H53.2032V35.27H48.8208V35.9231H50.7455V39.0523C50.7455 39.1884 50.7183 39.2564 50.6641 39.2564C50.3434 39.2564 50.0858 39.2428 49.9006 39.2156L49.8012 39.202L50.0723 39.9004H50.1084C50.2394 39.9095 50.3569 39.914 50.4563 39.914C50.7183 39.914 50.8991 39.8959 51.0075 39.8596C51.125 39.8188 51.2244 39.7371 51.3102 39.6147C51.396 39.4922 51.4412 39.3607 51.4412 39.2247V37.0478L51.4548 37.0614C52.0466 37.5058 52.5481 38.1952 52.9502 39.1068L52.9818 39.1748L53.5421 38.753L53.524 38.7122C53.2303 37.9548 52.7062 37.261 51.9653 36.6396Z" fill="#3C598E"/>
<path d="M50.6102 36.9435L50.1042 36.5444L50.0726 36.6034C49.5801 37.4696 48.9928 38.1136 48.3331 38.5218L48.2744 38.558L48.7217 39.1023L48.7669 39.0705C49.5123 38.5671 50.1268 37.8642 50.5921 36.9889L50.6147 36.9435H50.6102Z" fill="#3C598E"/>
<path d="M55.0696 36.2178C55.2865 36.1044 55.4717 36.0047 55.6163 35.9185V38.5897H56.3211V36.5489H59.1312V38.3675H59.836V35.8641H57.6991C58.0695 35.7099 58.3632 35.5013 58.5801 35.2428C58.8376 34.9344 59.0183 34.4809 59.1087 33.8958H59.94C59.9264 34.2088 59.8948 34.4899 59.8496 34.7303C59.7864 35.0704 59.7457 35.1385 59.7321 35.1521C59.7186 35.1702 59.6689 35.1974 59.5243 35.1974C59.2984 35.1974 59.059 35.1611 58.824 35.084L58.7201 35.0523L58.9279 35.8051H58.9686C59.2171 35.8323 59.4114 35.8414 59.5559 35.8414C59.818 35.8414 59.9987 35.8051 60.1116 35.7326C60.2246 35.66 60.315 35.5648 60.3782 35.4423C60.4415 35.3244 60.4957 35.0568 60.5544 34.6169C60.6086 34.1952 60.6448 33.7507 60.6674 33.2972V33.2337H57.6313V33.3108L57.1479 32.8618L57.1117 32.8845C56.4928 33.2292 55.7563 33.4378 54.925 33.5058H54.8708V35.4015C54.8708 35.4332 54.8708 35.5103 54.6946 35.5466L54.6133 35.5648L55.0154 36.2314L55.0651 36.2042L55.0696 36.2178ZM56.922 35.8686H55.7021C55.7473 35.8414 55.788 35.8187 55.8241 35.7961L56.9039 35.1158C56.9988 35.2518 57.0665 35.3652 57.1072 35.4514C57.0078 35.4922 56.8994 35.533 56.7864 35.5693L56.7051 35.5965L56.922 35.8686ZM58.4174 33.9004C58.3813 34.4809 58.0605 34.9435 57.4551 35.2836L57.7307 35.0659L57.7036 35.0205C57.4686 34.6078 57.1253 34.2768 56.687 34.0455L56.6554 34.0273L56.1132 34.3811L56.1855 34.431C56.3527 34.5444 56.4431 34.6078 56.4928 34.6487L55.5756 35.1657V34.0636C56.2578 33.9775 56.9491 33.7688 57.6313 33.4378V33.9004H58.4174Z" fill="#3C598E"/>
<path d="M58.0604 36.703L57.3872 36.644V36.7075C57.3872 37.0159 57.3556 37.3016 57.2969 37.5556C57.2381 37.805 57.0845 38.0681 56.8315 38.3357C56.5785 38.6032 56.2487 38.8164 55.8511 38.9615C55.449 39.1112 55.0063 39.2019 54.5274 39.2381H54.437L54.803 39.9048H54.8436C56.9851 39.6282 58.0649 38.5669 58.0604 36.7574V36.703Z" fill="#3C598E"/>
<path d="M58.015 38.0635L57.9744 38.0544L57.5903 38.6576L57.6717 38.6758C58.7469 38.9116 59.6867 39.3379 60.4638 39.9501L60.5135 39.9909L60.9156 39.3832L60.8704 39.3515C60.1114 38.7619 59.149 38.3311 58.0105 38.068L58.015 38.0635Z" fill="#3C598E"/>
<path d="M65.113 36.2496H67.7786V33.27H63.3736V36.2496H64.2591C63.8163 36.7712 63.1296 37.1884 62.2124 37.4922L62.1311 37.5195L62.61 38.1045L62.6462 38.0909C63.1657 37.9095 63.6717 37.6328 64.1552 37.2746H64.7606C64.2546 37.9548 63.3871 38.4809 62.1718 38.8392L62.0859 38.8619L62.5513 39.4424L62.5874 39.4288C64.0241 38.9752 65.0362 38.2496 65.5874 37.27H66.3057C65.9307 38.1 65.1717 38.8165 64.0422 39.4015L63.9744 39.4378L64.485 39.9775L64.5256 39.9548C65.0949 39.6419 65.5783 39.2927 65.9714 38.9163L66.1114 39.6192L66.1476 39.6283C66.6446 39.7371 66.9473 39.7916 67.0738 39.7916C67.2906 39.7916 67.4713 39.7371 67.6114 39.6283C67.7515 39.5195 67.8554 39.3562 67.9231 39.1476C67.9864 38.948 68.0587 38.617 68.1445 38.1453C68.2259 37.6827 68.2981 37.1839 68.3523 36.6532L68.3614 36.5897H64.8419C64.9232 36.5081 65.0136 36.3947 65.1085 36.2496H65.113ZM67.0828 35.0433V35.5693H64.0738V35.0433H67.0828ZM67.0828 33.9594V34.3902H64.0738V33.9594H67.0828ZM67.0692 37.2791H67.5933C67.3494 38.948 67.128 39.1294 67.0421 39.1294C66.9699 39.1294 66.744 39.0886 66.0572 38.8891L66.0256 38.88C66.5226 38.3947 66.8705 37.8596 67.0692 37.2791Z" fill="#3C598E"/>
<path d="M72.9423 32.9933L72.9558 32.9344L72.2465 32.7756L72.233 32.8301C72.111 33.3516 72.0161 33.7053 71.9529 33.8777H70.096V34.5625H71.6908C71.361 35.4332 70.6698 36.3403 69.6442 37.2473L69.5854 37.2972L70.2315 37.7189L70.2631 37.6827C70.864 37.0613 71.2571 36.6214 71.4604 36.3539V39.9412H72.1923V38.3085H74.9799V39.016C74.9799 39.0659 74.876 39.0976 74.6998 39.0976C74.4242 39.0976 74.1712 39.0795 73.9408 39.0477L73.8368 39.0341L74.1621 39.7643H74.8263C75.3639 39.7643 75.6531 39.5693 75.6892 39.1793V35.1566H72.2285C72.2917 35.0205 72.3685 34.821 72.4544 34.5534H76.6244V33.8686H72.7119C72.8248 33.474 72.9016 33.1747 72.9468 32.9797L72.9423 32.9933ZM72.1923 36.3629V35.8505H74.9799V36.3629H72.1923ZM74.9799 37.0432V37.6282H72.1923V37.0432H74.9799Z" fill="#3C598E"/>
<path d="M83.0086 38.1996C83.5914 37.7733 84.0206 37.4195 84.2827 37.1565L84.3278 37.1111L83.8038 36.6304L82.6923 37.6145C82.5704 37.3061 82.489 36.9796 82.4484 36.6485H83.745V33.1882H80.3566V39.0658L79.5659 39.2563L79.9093 39.9275L82.2541 39.2653L82.2948 39.2517V38.5397L81.0614 38.9025V36.6485H81.7752C81.843 37.356 82.0644 38.0091 82.4393 38.5896C82.8234 39.1837 83.3429 39.6236 83.9709 39.8866L84.0116 39.9048L84.4363 39.3197L84.3685 39.2925C83.736 39.0159 83.2797 38.6531 83.0041 38.2086L83.0086 38.1996ZM83.0402 35.2336V35.9683H81.0568V35.2336H83.0402ZM81.0568 34.5488V33.8685H83.0402V34.5488H81.0568Z" fill="#3C598E"/>
<path d="M80.2436 36.88C80.2436 36.3857 79.9997 35.8959 79.5208 35.4288L80.1533 33.8279V33.1748H77.8672V39.9231H78.572V37.4787L78.6985 38.0637H78.7392C78.9334 38.1 79.069 38.1136 79.1548 38.1136C79.3762 38.1136 79.6111 38.0183 79.8596 37.8233C80.1126 37.6283 80.2391 37.3109 80.2391 36.88H80.2436ZM78.5765 33.8687H79.3988C79.2994 34.1816 79.0825 34.7349 78.7437 35.5149L78.7256 35.5558L78.7572 35.583C79.2858 36.0501 79.5569 36.5081 79.5569 36.948C79.5569 37.2564 79.4349 37.4016 79.1684 37.4016C79.0554 37.4016 78.8747 37.3698 78.6307 37.3109L78.581 37.2973V33.8687H78.5765Z" fill="#3C598E"/>
<path d="M89.9798 37.0614L89.9527 37.0342L89.2659 37.3381L89.3292 37.397C89.5732 37.6283 89.8307 37.9548 90.0927 38.3675L87.5717 38.5399C88.0687 37.8052 88.4843 36.8755 88.8141 35.7689L88.8322 35.7145L88.1229 35.4741L88.1048 35.5331C87.8021 36.6986 87.3322 37.7236 86.7088 38.5762L85.7871 38.6533L86.0763 39.4152H86.1214C86.6591 39.3381 87.382 39.27 88.272 39.2065L90.409 39.0342C90.5671 39.3789 90.6755 39.6465 90.7298 39.8279L90.7478 39.8959L91.4436 39.5739L91.43 39.524C91.1047 38.5036 90.6168 37.6782 89.9798 37.066V37.0614Z" fill="#3C598E"/>
<path d="M90.8789 34.8708C90.4903 34.3039 90.2238 33.728 90.0792 33.152L90.0611 33.084L89.397 33.3924L89.406 33.4377C89.537 34.0046 89.8217 34.6169 90.2554 35.2609C90.6891 35.9048 91.159 36.4173 91.6605 36.7892L91.7011 36.8209L92.2433 36.2767L92.1846 36.2359C91.7011 35.8958 91.2629 35.4377 90.8743 34.8708H90.8789Z" fill="#3C598E"/>
<path d="M87.0611 35.2519C87.4949 34.6125 87.7795 34.0002 87.9105 33.4333L87.9196 33.388L87.2599 33.0796L87.2419 33.1476C87.1018 33.719 86.8352 34.295 86.4467 34.8619C86.0627 35.4288 85.6199 35.8868 85.132 36.2315L85.0732 36.2723L85.6154 36.8166L85.6561 36.7848C86.1576 36.4084 86.6274 35.8959 87.0611 35.2519Z" fill="#3C598E"/>
<path d="M93.671 33.2109V33.9184H98.6634V39.0749C98.6634 39.1701 98.6272 39.2109 98.5278 39.2109C98.0896 39.2109 97.7733 39.1973 97.5926 39.1747L97.5022 39.161L97.7417 39.9411H98.5504C99.2417 39.9411 99.3908 39.5511 99.3908 39.2245V33.2155H93.6665L93.671 33.2109Z" fill="#3C598E"/>
<path d="M98.3787 34.5762H93.2915V35.2791H98.3787V34.5762Z" fill="#3C598E"/>
<path d="M97.5562 38.9027V35.9231H94.1587V38.9254H94.8816V38.3494H96.8288V38.9027H97.5562ZM96.8288 36.6079V37.6691H94.8816V36.6079H96.8288Z" fill="#3C598E"/>
</g>
<defs>
<clipPath id="clip0_536_383">
<rect width="186" height="40" fill="white"/>
</clipPath>
</defs>
</svg>
