<svg width="32" height="32" viewBox="0 0 32 32" fill="none" xmlns="http://www.w3.org/2000/svg">
<path d="M16 3C18.5712 3 21.0846 3.76244 23.2224 5.1909C25.3602 6.61935 27.0265 8.64968 28.0104 11.0251C28.9944 13.4006 29.2518 16.0144 28.7502 18.5362C28.2486 21.0579 27.0105 23.3743 25.1924 25.1924C23.3743 27.0105 21.0579 28.2486 18.5362 28.7502C16.0144 29.2518 13.4005 28.9944 11.0251 28.0104C8.64967 27.0265 6.61935 25.3603 5.19089 23.2224C3.76243 21.0846 2.99999 18.5712 2.99999 16C3.00363 12.5533 4.37444 9.24882 6.81163 6.81163C9.24881 4.37445 12.5533 3.00364 16 3ZM16 27C18.1756 27 20.3023 26.3549 22.1113 25.1462C23.9202 23.9375 25.3301 22.2195 26.1627 20.2095C26.9952 18.1995 27.2131 15.9878 26.7886 13.854C26.3642 11.7202 25.3165 9.7602 23.7782 8.22183C22.2398 6.68345 20.2798 5.6358 18.146 5.21136C16.0122 4.78692 13.8005 5.00476 11.7905 5.83733C9.78049 6.66989 8.06252 8.07979 6.85383 9.88873C5.64513 11.6977 4.99999 13.8244 4.99999 16C5.0033 18.9164 6.16329 21.7123 8.22547 23.7745C10.2877 25.8367 13.0836 26.9967 16 27ZM9.99999 16C9.99999 16.2652 10.1054 16.5196 10.2929 16.7071C10.4804 16.8946 10.7348 17 11 17H18.5862L16.2925 19.2925C16.1996 19.3854 16.1259 19.4957 16.0756 19.6171C16.0253 19.7385 15.9994 19.8686 15.9994 20C15.9994 20.1314 16.0253 20.2615 16.0756 20.3829C16.1259 20.5043 16.1996 20.6146 16.2925 20.7075C16.3854 20.8004 16.4957 20.8741 16.6171 20.9244C16.7385 20.9747 16.8686 21.0006 17 21.0006C17.1314 21.0006 17.2615 20.9747 17.3829 20.9244C17.5043 20.8741 17.6146 20.8004 17.7075 20.7075L21.7075 16.7075C21.8005 16.6146 21.8742 16.5043 21.9246 16.3829C21.9749 16.2615 22.0008 16.1314 22.0008 16C22.0008 15.8686 21.9749 15.7385 21.9246 15.6171C21.8742 15.4957 21.8005 15.3854 21.7075 15.2925L17.7075 11.2925C17.5199 11.1049 17.2654 10.9994 17 10.9994C16.7346 10.9994 16.4801 11.1049 16.2925 11.2925C16.1049 11.4801 15.9994 11.7346 15.9994 12C15.9994 12.2654 16.1049 12.5199 16.2925 12.7075L18.5862 15H11C10.7348 15 10.4804 15.1054 10.2929 15.2929C10.1054 15.4804 9.99999 15.7348 9.99999 16Z" fill="#BE1F1F"/>
</svg>
